NotoSansEthiopic-CondensedBold.ufo
<glyph name="hyphen" format="2">
  <advance width="326"/>
  <unicode hex="002D"/>
  <outline>
    <contour>
      <point x="29" y="192" type="line"/>
      <point x="296" y="192" type="line"/>
      <point x="296" y="344" type="line"/>
      <point x="29" y="344" type="line"/>
    </contour>
  </outline>
</glyph>
<glyph name="dieresiscomb" format="2">
  <unicode hex="0308"/>
  <anchor x="0" y="552" name="_top"/>
  <anchor x="0" y="767" name="top"/>
  <outline>
    <contour>
      <point x="-169" y="690" type="curve" smooth="yes"/>
      <point x="-169" y="642"/>
      <point x="-141" y="614"/>
      <point x="-98" y="614" type="curve" smooth="yes"/>
      <point x="-53" y="614"/>
      <point x="-25" y="644"/>
      <point x="-25" y="690" type="curve" smooth="yes"/>
      <point x="-25" y="737"/>
      <point x="-53" y="767"/>
      <point x="-98" y="767" type="curve" smooth="yes"/>
      <point x="-141" y="767"/>
      <point x="-169" y="739"/>
    </contour>
    <contour>
      <point x="24" y="690" type="curve" smooth="yes"/>
      <point x="24" y="643"/>
      <point x="51" y="614"/>
      <point x="96" y="614" type="curve" smooth="yes"/>
      <point x="142" y="614"/>
      <point x="169" y="644"/>
      <point x="169" y="690" type="curve" smooth="yes"/>
      <point x="169" y="737"/>
      <point x="142" y="767"/>
      <point x="96" y="767" type="curve" smooth="yes"/>
      <point x="52" y="767"/>
      <point x="24" y="739"/>
    </contour>
  </outline>
</glyph>
<glyph name="dblverticallineabovecomb" format="2">
  <unicode hex="030E"/>
  <anchor x="-1" y="552" name="_top"/>
  <anchor x="-1" y="776" name="top"/>
  <outline>
    <contour>
      <point x="-24" y="776" type="line"/>
      <point x="-121" y="776" type="line"/>
      <point x="-121" y="597" type="line"/>
      <point x="-24" y="597" type="line"/>
    </contour>
    <contour>
      <point x="120" y="776" type="line"/>
      <point x="24" y="776" type="line"/>
      <point x="24" y="597" type="line"/>
      <point x="120" y="597" type="line"/>
    </contour>
  </outline>
</glyph>
<glyph name="ha.eth" format="2">
  <advance width="557"/>
  <unicode hex="1200"/>
  <note>
uni1200
</note>
  <anchor x="278" y="714" name="top"/>
  <outline>
    <contour>
      <point x="276" y="-10" type="curve" smooth="yes"/>
      <point x="429" y="-10"/>
      <point x="490" y="87"/>
      <point x="490" y="228" type="curve" smooth="yes"/>
      <point x="490" y="714" type="line"/>
      <point x="330" y="714" type="line"/>
      <point x="330" y="241" type="line" smooth="yes"/>
      <point x="330" y="169"/>
      <point x="318" y="127"/>
      <point x="279" y="127" type="curve" smooth="yes"/>
      <point x="240" y="127"/>
      <point x="227" y="165"/>
      <point x="227" y="240" type="curve" smooth="yes"/>
      <point x="227" y="714" type="line"/>
      <point x="67" y="714" type="line"/>
      <point x="67" y="230" type="line" smooth="yes"/>
      <point x="67" y="78"/>
      <point x="127" y="-10"/>
    </contour>
  </outline>
</glyph>
<glyph name="hi.eth" format="2">
  <advance width="479"/>
  <unicode hex="1202"/>
  <note>
uni1202
</note>
  <anchor x="252" y="714" name="top"/>
  <outline>
    <contour>
      <point x="108" y="0" type="line"/>
      <point x="247" y="0" type="line"/>
      <point x="469" y="714" type="line"/>
      <point x="305" y="714" type="line"/>
      <point x="225" y="437" type="line"/>
      <point x="194" y="442"/>
      <point x="185" y="472"/>
      <point x="185" y="526" type="curve" smooth="yes"/>
      <point x="185" y="714" type="line"/>
      <point x="25" y="714" type="line"/>
      <point x="25" y="524" type="line" smooth="yes"/>
      <point x="25" y="396"/>
      <point x="80" y="318"/>
      <point x="176" y="305" type="curve"/>
      <point x="108" y="82" type="line"/>
    </contour>
    <contour>
      <point x="170" y="0" type="line"/>
      <point x="314" y="0" type="line"/>
      <point x="314" y="106" type="line"/>
      <point x="170" y="106" type="line"/>
    </contour>
    <component base="rightdoubleflag" xOffset="271"/>
  </outline>
</glyph>
<glyph name="haa.eth" format="2">
  <advance width="485"/>
  <unicode hex="1203"/>
  <note>
uni1203
</note>
  <anchor x="247" y="714" name="top"/>
  <outline>
    <contour>
      <point x="83" y="0" type="line"/>
      <point x="248" y="0" type="line"/>
      <point x="470" y="714" type="line"/>
      <point x="305" y="714" type="line"/>
      <point x="224" y="437" type="line"/>
      <point x="193" y="442"/>
      <point x="185" y="472"/>
      <point x="185" y="526" type="curve" smooth="yes"/>
      <point x="185" y="714" type="line"/>
      <point x="25" y="714" type="line"/>
      <point x="25" y="524" type="line" smooth="yes"/>
      <point x="25" y="396"/>
      <point x="79" y="318"/>
      <point x="175" y="305" type="curve"/>
    </contour>
  </outline>
</glyph>
<glyph name="hee.eth" format="2">
  <advance width="538"/>
  <unicode hex="1204"/>
  <note>
uni1204
</note>
  <anchor x="278" y="714" name="top"/>
  <outline>
    <contour>
      <point x="108" y="0" type="line"/>
      <point x="248" y="0" type="line"/>
      <point x="470" y="714" type="line"/>
      <point x="305" y="714" type="line"/>
      <point x="224" y="437" type="line"/>
      <point x="193" y="442"/>
      <point x="185" y="472"/>
      <point x="185" y="526" type="curve" smooth="yes"/>
      <point x="185" y="714" type="line"/>
      <point x="25" y="714" type="line"/>
      <point x="25" y="524" type="line" smooth="yes"/>
      <point x="25" y="396"/>
      <point x="79" y="318"/>
      <point x="175" y="305" type="curve"/>
      <point x="108" y="101" type="line"/>
    </contour>
    <contour>
      <point x="268" y="107" type="line"/>
      <point x="303" y="220" type="line"/>
      <point x="333" y="220" type="line" smooth="yes"/>
      <point x="377" y="220"/>
      <point x="391" y="199"/>
      <point x="391" y="169" type="curve" smooth="yes"/>
      <point x="391" y="130"/>
      <point x="374" y="107"/>
      <point x="327" y="107" type="curve" smooth="yes"/>
    </contour>
    <contour>
      <point x="138" y="0" type="line"/>
      <point x="352" y="0" type="line" smooth="yes"/>
      <point x="463" y="0"/>
      <point x="531" y="68"/>
      <point x="531" y="169" type="curve" smooth="yes"/>
      <point x="531" y="271"/>
      <point x="475" y="326"/>
      <point x="342" y="326" type="curve" smooth="yes"/>
      <point x="236" y="326" type="line"/>
    </contour>
  </outline>
</glyph>
<glyph name="he.eth" format="2">
  <advance width="621"/>
  <unicode hex="1205"/>
  <note>
uni1205
</note>
  <anchor x="297" y="714" name="top"/>
  <outline>
    <contour>
      <point x="340" y="-10" type="curve" smooth="yes"/>
      <point x="498" y="-10"/>
      <point x="554" y="87"/>
      <point x="554" y="228" type="curve" smooth="yes"/>
      <point x="554" y="714" type="line"/>
      <point x="394" y="714" type="line"/>
      <point x="394" y="239" type="line" smooth="yes"/>
      <point x="394" y="167"/>
      <point x="383" y="125"/>
      <point x="342" y="125" type="curve" smooth="yes"/>
      <point x="303" y="125"/>
      <point x="290" y="163"/>
      <point x="290" y="238" type="curve" smooth="yes"/>
      <point x="290" y="549" type="line"/>
      <point x="131" y="549" type="line"/>
      <point x="131" y="230" type="line" smooth="yes"/>
      <point x="131" y="78"/>
      <point x="189" y="-10"/>
    </contour>
    <contour>
      <point x="132" y="430" type="curve"/>
      <point x="290" y="549" type="line"/>
      <point x="270" y="549" type="line" smooth="yes"/>
      <point x="219" y="549"/>
      <point x="200" y="557"/>
      <point x="200" y="647" type="curve" smooth="yes"/>
      <point x="200" y="714" type="line"/>
      <point x="40" y="714" type="line"/>
      <point x="40" y="572" type="line" smooth="yes"/>
      <point x="40" y="485"/>
      <point x="71" y="443"/>
    </contour>
  </outline>
</glyph>
<glyph name="ho.eth" format="2">
  <advance width="721"/>
  <unicode hex="1206"/>
  <note>
uni1206
</note>
  <anchor x="390" y="724" name="top"/>
  <outline>
    <contour>
      <point x="276" y="-10" type="curve" smooth="yes"/>
      <point x="434" y="-10"/>
      <point x="490" y="87"/>
      <point x="490" y="228" type="curve" smooth="yes"/>
      <point x="490" y="680" type="line"/>
      <point x="330" y="680" type="line"/>
      <point x="330" y="239" type="line" smooth="yes"/>
      <point x="330" y="167"/>
      <point x="320" y="125"/>
      <point x="279" y="125" type="curve" smooth="yes"/>
      <point x="238" y="125"/>
      <point x="227" y="163"/>
      <point x="227" y="238" type="curve" smooth="yes"/>
      <point x="227" y="714" type="line"/>
      <point x="67" y="714" type="line"/>
      <point x="67" y="230" type="line" smooth="yes"/>
      <point x="67" y="78"/>
      <point x="131" y="-10"/>
    </contour>
    <contour>
      <point x="442" y="397" type="line"/>
      <point x="505" y="397" type="line" smooth="yes"/>
      <point x="655" y="397"/>
      <point x="714" y="465"/>
      <point x="714" y="570" type="curve" smooth="yes"/>
      <point x="714" y="666"/>
      <point x="664" y="724"/>
      <point x="536" y="724" type="curve" smooth="yes"/>
      <point x="454" y="724"/>
      <point x="380" y="702"/>
      <point x="330" y="680" type="curve"/>
    </contour>
    <contour>
      <point x="490" y="503" type="line"/>
      <point x="490" y="609" type="line"/>
      <point x="497" y="613"/>
      <point x="511" y="615"/>
      <point x="524" y="615" type="curve" smooth="yes"/>
      <point x="552" y="615"/>
      <point x="569" y="597"/>
      <point x="569" y="564" type="curve" smooth="yes"/>
      <point x="569" y="523"/>
      <point x="546" y="503"/>
      <point x="499" y="503" type="curve" smooth="yes"/>
    </contour>
  </outline>
</glyph>
<glyph name="la.eth" format="2">
	<advance width="540"/>
	<unicode hex="1208"/>
	<anchor x="270" y="714" name="top"/>
	<note>
		uni1208
	</note>
	<outline>
		<contour>
			<point x="15" y="0" type="curve"/>
			<point x="175" y="0" type="line"/>
			<point x="188" y="326"/>
			<point x="209" y="408"/>
			<point x="258" y="427" type="curve"/>
			<point x="360" y="0" type="line"/>
			<point x="525" y="0" type="line"/>
			<point x="352" y="714" type="line"/>
			<point x="187" y="714" type="line"/>
			<point x="226" y="565" type="line"/>
			<point x="81" y="516"/>
			<point x="25" y="405"/>
		</contour>
	</outline>
</glyph>
<glyph name="laa.eth" format="2">
	<advance width="531"/>
	<unicode hex="120B"/>
	<anchor x="265" y="714" name="top"/>
	<note>
		uni120B
	</note>
	<outline>
		<contour>
			<point x="351" y="0" type="line"/>
			<point x="516" y="0" type="line"/>
			<point x="343" y="714" type="line"/>
			<point x="178" y="714" type="line"/>
			<point x="216" y="565" type="line"/>
			<point x="94" y="530"/>
			<point x="29" y="434"/>
			<point x="15" y="175" type="curve"/>
			<point x="175" y="175" type="line"/>
			<point x="185" y="356"/>
			<point x="203" y="420"/>
			<point x="250" y="433" type="curve"/>
		</contour>
	</outline>
</glyph>
<glyph name="lee.eth" format="2">
  <advance width="729"/>
  <unicode hex="120C"/>
  <note>
uni120C
</note>
  <anchor x="368" y="714" name="top"/>
  <outline>
    <contour>
      <point x="15" y="0" type="curve"/>
      <point x="175" y="0" type="line"/>
      <point x="182" y="301"/>
      <point x="195" y="402"/>
      <point x="258" y="427" type="curve"/>
      <point x="360" y="0" type="line"/>
      <point x="498" y="0" type="line"/>
      <point x="510" y="62" type="line"/>
      <point x="352" y="714" type="line"/>
      <point x="187" y="714" type="line"/>
      <point x="226" y="565" type="line"/>
      <point x="89" y="522"/>
      <point x="24" y="375"/>
    </contour>
    <contour>
      <point x="462" y="107" type="line"/>
      <point x="462" y="220" type="line"/>
      <point x="513" y="220" type="line" smooth="yes"/>
      <point x="561" y="220"/>
      <point x="575" y="199"/>
      <point x="575" y="164" type="curve" smooth="yes"/>
      <point x="575" y="130"/>
      <point x="561" y="107"/>
      <point x="513" y="107" type="curve" smooth="yes"/>
    </contour>
    <contour>
      <point x="374" y="0" type="line"/>
      <point x="543" y="0" type="line" smooth="yes"/>
      <point x="654" y="0"/>
      <point x="722" y="68"/>
      <point x="722" y="169" type="curve" smooth="yes"/>
      <point x="722" y="271"/>
      <point x="666" y="326"/>
      <point x="533" y="326" type="curve" smooth="yes"/>
      <point x="302" y="326" type="line"/>
    </contour>
  </outline>
</glyph>
<glyph name="le.eth" format="2">
  <advance width="640"/>
  <unicode hex="120D"/>
  <note>
uni120D
</note>
  <anchor x="315" y="714" name="top"/>
  <outline>
    <contour>
      <point x="15" y="0" type="curve"/>
      <point x="153" y="0" type="line" smooth="yes"/>
      <point x="283" y="0"/>
      <point x="351" y="54"/>
      <point x="351" y="162" type="curve" smooth="yes"/>
      <point x="351" y="258"/>
      <point x="298" y="312"/>
      <point x="206" y="312" type="curve" smooth="yes"/>
      <point x="199" y="312" type="line"/>
      <point x="207" y="367"/>
      <point x="246" y="441"/>
      <point x="291" y="452" type="curve"/>
      <point x="451" y="0" type="line"/>
      <point x="616" y="0" type="line"/>
      <point x="346" y="714" type="line"/>
      <point x="181" y="714" type="line"/>
      <point x="237" y="565" type="line"/>
      <point x="96" y="486"/>
      <point x="24" y="344"/>
    </contour>
    <contour>
      <point x="165" y="107" type="line"/>
      <point x="166" y="137"/>
      <point x="171" y="175"/>
      <point x="178" y="206" type="curve"/>
      <point x="187" y="206" type="line" smooth="yes"/>
      <point x="212" y="206"/>
      <point x="226" y="193"/>
      <point x="226" y="158" type="curve" smooth="yes"/>
      <point x="226" y="121"/>
      <point x="210" y="107"/>
      <point x="176" y="107" type="curve" smooth="yes"/>
    </contour>
  </outline>
</glyph>
<glyph name="hha.eth" format="2">
  <advance width="691"/>
  <unicode hex="1210"/>
  <note>
uni1210
</note>
  <anchor x="345" y="714" name="top"/>
  <outline>
    <contour>
      <point x="35" y="0" type="line"/>
      <point x="195" y="0" type="line"/>
      <point x="195" y="201" type="line" smooth="yes"/>
      <point x="195" y="290"/>
      <point x="222" y="329"/>
      <point x="265" y="335" type="curve"/>
      <point x="265" y="0" type="line"/>
      <point x="425" y="0" type="line"/>
      <point x="425" y="335" type="line"/>
      <point x="467" y="329"/>
      <point x="496" y="291"/>
      <point x="496" y="200" type="curve" smooth="yes"/>
      <point x="496" y="0" type="line"/>
      <point x="656" y="0" type="line"/>
      <point x="656" y="202" type="line" smooth="yes"/>
      <point x="656" y="360"/>
      <point x="578" y="460"/>
      <point x="425" y="468" type="curve"/>
      <point x="425" y="714" type="line"/>
      <point x="265" y="714" type="line"/>
      <point x="265" y="470" type="line"/>
      <point x="110" y="460"/>
      <point x="35" y="360"/>
      <point x="35" y="201" type="curve" smooth="yes"/>
    </contour>
  </outline>
</glyph>
<glyph name="hhaa.eth" format="2">
  <advance width="691"/>
  <unicode hex="1213"/>
  <note>
uni1213
</note>
  <anchor x="345" y="714" name="top"/>
  <outline>
    <contour>
      <point x="496" y="0" type="line"/>
      <point x="656" y="0" type="line"/>
      <point x="656" y="214" type="line" smooth="yes"/>
      <point x="656" y="371"/>
      <point x="578" y="472"/>
      <point x="425" y="480" type="curve"/>
      <point x="425" y="714" type="line"/>
      <point x="265" y="714" type="line"/>
      <point x="265" y="481" type="line"/>
      <point x="110" y="472"/>
      <point x="35" y="371"/>
      <point x="35" y="213" type="curve" smooth="yes"/>
      <point x="35" y="162" type="line"/>
      <point x="195" y="162" type="line"/>
      <point x="195" y="213" type="line" smooth="yes"/>
      <point x="195" y="301"/>
      <point x="222" y="339"/>
      <point x="265" y="346" type="curve"/>
      <point x="265" y="162" type="line"/>
      <point x="425" y="162" type="line"/>
      <point x="425" y="346" type="line"/>
      <point x="467" y="339"/>
      <point x="496" y="303"/>
      <point x="496" y="212" type="curve" smooth="yes"/>
    </contour>
  </outline>
</glyph>
<glyph name="hhee.eth" format="2">
  <advance width="882"/>
  <unicode hex="1214"/>
  <note>
uni1214
</note>
  <anchor x="455" y="714" name="top"/>
  <outline>
    <contour>
      <point x="496" y="0" type="line"/>
      <point x="696" y="0" type="line" smooth="yes"/>
      <point x="807" y="0"/>
      <point x="875" y="68"/>
      <point x="875" y="169" type="curve" smooth="yes"/>
      <point x="875" y="271"/>
      <point x="819" y="326"/>
      <point x="686" y="326" type="curve" smooth="yes"/>
      <point x="496" y="326" type="line"/>
    </contour>
    <contour>
      <point x="656" y="107" type="line"/>
      <point x="656" y="220" type="line"/>
      <point x="678" y="220" type="line" smooth="yes"/>
      <point x="714" y="220"/>
      <point x="728" y="199"/>
      <point x="728" y="169" type="curve" smooth="yes"/>
      <point x="728" y="130"/>
      <point x="714" y="107"/>
      <point x="678" y="107" type="curve" smooth="yes"/>
    </contour>
    <component base="hha.eth"/>
  </outline>
</glyph>
<glyph name="ma.eth" format="2">
  <advance width="933"/>
  <unicode hex="1218"/>
  <note>
uni1218
</note>
  <anchor x="466" y="714" name="top"/>
  <outline>
    <contour>
      <point x="244" y="-10" type="curve" smooth="yes"/>
      <point x="355" y="-10"/>
      <point x="395" y="35"/>
      <point x="442" y="110" type="curve"/>
      <point x="442" y="591" type="line"/>
      <point x="511" y="591" type="line"/>
      <point x="511" y="73" type="line"/>
      <point x="683" y="73" type="line" smooth="yes"/>
      <point x="819" y="73"/>
      <point x="897" y="185"/>
      <point x="897" y="404" type="curve" smooth="yes"/>
      <point x="897" y="611"/>
      <point x="823" y="714"/>
      <point x="687" y="714" type="curve" smooth="yes"/>
      <point x="279" y="714" type="line" smooth="yes"/>
      <point x="122" y="714"/>
      <point x="36" y="558"/>
      <point x="36" y="318" type="curve" smooth="yes"/>
      <point x="36" y="102"/>
      <point x="100" y="-10"/>
    </contour>
    <contour>
      <point x="248" y="112" type="curve" smooth="yes"/>
      <point x="208" y="112"/>
      <point x="196" y="176"/>
      <point x="196" y="325" type="curve" smooth="yes"/>
      <point x="196" y="480"/>
      <point x="218" y="591"/>
      <point x="271" y="591" type="curve" smooth="yes"/>
      <point x="282" y="591" type="line"/>
      <point x="282" y="135" type="line"/>
      <point x="277" y="119"/>
      <point x="265" y="112"/>
    </contour>
    <contour>
      <point x="671" y="193" type="line"/>
      <point x="671" y="591" type="line"/>
      <point x="685" y="591" type="line" smooth="yes"/>
      <point x="733" y="591"/>
      <point x="740" y="505"/>
      <point x="740" y="402" type="curve" smooth="yes"/>
      <point x="740" y="284"/>
      <point x="732" y="193"/>
      <point x="685" y="193" type="curve" smooth="yes"/>
    </contour>
  </outline>
</glyph>
<glyph name="maa.eth" format="2">
  <advance width="892"/>
  <unicode hex="121B"/>
  <note>
uni121B
</note>
  <anchor x="446" y="714" name="top"/>
  <outline>
    <contour>
      <point x="524" y="0" type="line"/>
      <point x="687" y="0" type="line"/>
      <point x="831" y="389" type="line" smooth="yes"/>
      <point x="857" y="459"/>
      <point x="870" y="513"/>
      <point x="870" y="560" type="curve" smooth="yes"/>
      <point x="870" y="659"/>
      <point x="822" y="714"/>
      <point x="706" y="714" type="curve" smooth="yes"/>
      <point x="271" y="714" type="line" smooth="yes"/>
      <point x="114" y="714"/>
      <point x="22" y="616"/>
      <point x="22" y="455" type="curve" smooth="yes"/>
      <point x="22" y="322"/>
      <point x="92" y="249"/>
      <point x="212" y="249" type="curve" smooth="yes"/>
      <point x="292" y="249"/>
      <point x="367" y="286"/>
      <point x="428" y="342" type="curve"/>
      <point x="428" y="593" type="line"/>
      <point x="493" y="593" type="line"/>
      <point x="489" y="559"/>
      <point x="487" y="527"/>
      <point x="487" y="494" type="curve" smooth="yes"/>
      <point x="487" y="391"/>
      <point x="533" y="340"/>
      <point x="635" y="340" type="curve" smooth="yes"/>
      <point x="651" y="340" type="line"/>
    </contour>
    <contour>
      <point x="233" y="377" type="curve" smooth="yes"/>
      <point x="203" y="377"/>
      <point x="182" y="402"/>
      <point x="182" y="470" type="curve" smooth="yes"/>
      <point x="182" y="550"/>
      <point x="209" y="593"/>
      <point x="263" y="593" type="curve" smooth="yes"/>
      <point x="268" y="593" type="line"/>
      <point x="268" y="396" type="line"/>
      <point x="260" y="385"/>
      <point x="252" y="377"/>
    </contour>
    <contour>
      <point x="688" y="461" type="line" smooth="yes"/>
      <point x="662" y="461"/>
      <point x="641" y="479"/>
      <point x="641" y="524" type="curve" smooth="yes"/>
      <point x="641" y="543"/>
      <point x="642" y="564"/>
      <point x="650" y="593" type="curve"/>
      <point x="669" y="593" type="line" smooth="yes"/>
      <point x="702" y="593"/>
      <point x="716" y="575"/>
      <point x="716" y="549" type="curve" smooth="yes"/>
      <point x="716" y="533"/>
      <point x="713" y="512"/>
      <point x="705" y="487" type="curve" smooth="yes"/>
      <point x="697" y="461" type="line"/>
    </contour>
  </outline>
</glyph>
<glyph name="mee.eth" format="2">
  <advance width="984"/>
  <unicode hex="121C"/>
  <note>
uni121C
</note>
  <anchor x="499" y="714" name="top"/>
  <outline>
    <contour>
      <point x="562" y="0" type="line"/>
      <point x="698" y="0" type="line"/>
      <point x="831" y="389" type="line" smooth="yes"/>
      <point x="855" y="459"/>
      <point x="870" y="513"/>
      <point x="870" y="560" type="curve" smooth="yes"/>
      <point x="870" y="659"/>
      <point x="822" y="714"/>
      <point x="706" y="714" type="curve" smooth="yes"/>
      <point x="271" y="714" type="line" smooth="yes"/>
      <point x="114" y="714"/>
      <point x="22" y="616"/>
      <point x="22" y="455" type="curve" smooth="yes"/>
      <point x="22" y="322"/>
      <point x="93" y="249"/>
      <point x="212" y="249" type="curve" smooth="yes"/>
      <point x="292" y="249"/>
      <point x="367" y="286"/>
      <point x="428" y="342" type="curve"/>
      <point x="428" y="593" type="line"/>
      <point x="493" y="593" type="line"/>
      <point x="489" y="559"/>
      <point x="487" y="527"/>
      <point x="487" y="494" type="curve" smooth="yes"/>
      <point x="487" y="391"/>
      <point x="533" y="340"/>
      <point x="635" y="340" type="curve" smooth="yes"/>
      <point x="661" y="340" type="line"/>
      <point x="562" y="82" type="line"/>
    </contour>
    <contour>
      <point x="230" y="377" type="curve" smooth="yes"/>
      <point x="204" y="377"/>
      <point x="182" y="402"/>
      <point x="182" y="471" type="curve" smooth="yes"/>
      <point x="182" y="550"/>
      <point x="211" y="593"/>
      <point x="263" y="593" type="curve" smooth="yes"/>
      <point x="268" y="593" type="line"/>
      <point x="268" y="396" type="line"/>
      <point x="257" y="381"/>
      <point x="248" y="377"/>
    </contour>
    <contour>
      <point x="724" y="107" type="line"/>
      <point x="760" y="220" type="line"/>
      <point x="783" y="220" type="line" smooth="yes"/>
      <point x="818" y="220"/>
      <point x="832" y="199"/>
      <point x="832" y="169" type="curve" smooth="yes"/>
      <point x="832" y="130"/>
      <point x="811" y="107"/>
      <point x="758" y="107" type="curve" smooth="yes"/>
    </contour>
    <contour>
      <point x="605" y="0" type="line"/>
      <point x="756" y="0" type="line" smooth="yes"/>
      <point x="910" y="0"/>
      <point x="977" y="68"/>
      <point x="977" y="169" type="curve" smooth="yes"/>
      <point x="977" y="271"/>
      <point x="922" y="326"/>
      <point x="800" y="326" type="curve" smooth="yes"/>
      <point x="732" y="326" type="line"/>
    </contour>
    <contour>
      <point x="688" y="461" type="line" smooth="yes"/>
      <point x="662" y="461"/>
      <point x="641" y="479"/>
      <point x="641" y="524" type="curve" smooth="yes"/>
      <point x="641" y="543"/>
      <point x="642" y="564"/>
      <point x="650" y="593" type="curve"/>
      <point x="669" y="593" type="line" smooth="yes"/>
      <point x="702" y="593"/>
      <point x="716" y="575"/>
      <point x="716" y="549" type="curve" smooth="yes"/>
      <point x="716" y="533"/>
      <point x="713" y="512"/>
      <point x="705" y="487" type="curve" smooth="yes"/>
      <point x="697" y="461" type="line"/>
    </contour>
  </outline>
</glyph>
<glyph name="mo.eth" format="2">
  <advance width="885"/>
  <unicode hex="121E"/>
  <note>
uni121E
</note>
  <anchor x="442" y="714" name="top"/>
  <outline>
    <contour>
      <point x="207" y="249" type="curve" smooth="yes"/>
      <point x="289" y="249"/>
      <point x="367" y="286"/>
      <point x="428" y="342" type="curve"/>
      <point x="428" y="593" type="line"/>
      <point x="500" y="593" type="line"/>
      <point x="500" y="341" type="line"/>
      <point x="698" y="341" type="line" smooth="yes"/>
      <point x="814" y="341"/>
      <point x="863" y="429"/>
      <point x="863" y="535" type="curve" smooth="yes"/>
      <point x="863" y="638"/>
      <point x="805" y="714"/>
      <point x="675" y="714" type="curve" smooth="yes"/>
      <point x="272" y="714" type="line"/>
      <point x="115" y="714"/>
      <point x="22" y="616"/>
      <point x="22" y="455" type="curve" smooth="yes"/>
      <point x="22" y="322"/>
      <point x="93" y="249"/>
    </contour>
    <contour>
      <point x="268" y="0" type="line"/>
      <point x="428" y="0" type="line"/>
      <point x="428" y="342" type="line"/>
      <point x="268" y="342" type="line"/>
    </contour>
    <contour>
      <point x="233" y="377" type="curve" smooth="yes"/>
      <point x="202" y="377"/>
      <point x="182" y="402"/>
      <point x="182" y="475" type="curve" smooth="yes"/>
      <point x="182" y="550"/>
      <point x="211" y="593"/>
      <point x="263" y="593" type="curve" smooth="yes"/>
      <point x="268" y="593" type="line"/>
      <point x="268" y="396" type="line"/>
      <point x="259" y="383"/>
      <point x="250" y="377"/>
    </contour>
    <contour>
      <point x="655" y="462" type="line"/>
      <point x="655" y="593" type="line"/>
      <point x="670" y="593" type="line" smooth="yes"/>
      <point x="700" y="593"/>
      <point x="718" y="571"/>
      <point x="718" y="534" type="curve" smooth="yes"/>
      <point x="718" y="486"/>
      <point x="702" y="462"/>
      <point x="670" y="462" type="curve" smooth="yes"/>
    </contour>
  </outline>
</glyph>
<glyph name="sza.eth" format="2">
  <advance width="784"/>
  <unicode hex="1220"/>
  <note>
uni1220
</note>
  <anchor x="392" y="714" name="top"/>
  <outline>
    <contour>
      <point x="251" y="-10" type="curve" smooth="yes"/>
      <point x="340" y="-10"/>
      <point x="391" y="44"/>
      <point x="416" y="132" type="curve"/>
      <point x="435" y="101"/>
      <point x="472" y="78"/>
      <point x="536" y="78" type="curve" smooth="yes"/>
      <point x="672" y="78"/>
      <point x="717" y="183"/>
      <point x="717" y="309" type="curve" smooth="yes"/>
      <point x="717" y="714" type="line"/>
      <point x="557" y="714" type="line"/>
      <point x="557" y="312" type="line" smooth="yes"/>
      <point x="557" y="259"/>
      <point x="553" y="213"/>
      <point x="517" y="213" type="curve" smooth="yes"/>
      <point x="478" y="213"/>
      <point x="472" y="252"/>
      <point x="472" y="313" type="curve" smooth="yes"/>
      <point x="472" y="714" type="line"/>
      <point x="312" y="714" type="line"/>
      <point x="312" y="221" type="line" smooth="yes"/>
      <point x="312" y="165"/>
      <point x="305" y="125"/>
      <point x="269" y="125" type="curve" smooth="yes"/>
      <point x="235" y="125"/>
      <point x="227" y="162"/>
      <point x="227" y="220" type="curve" smooth="yes"/>
      <point x="227" y="714" type="line"/>
      <point x="67" y="714" type="line"/>
      <point x="67" y="215" type="line" smooth="yes"/>
      <point x="67" y="85"/>
      <point x="119" y="-10"/>
    </contour>
  </outline>
</glyph>
<glyph name="szi.eth" format="2">
  <advance width="761"/>
  <unicode hex="1222"/>
  <note>
uni1222
</note>
  <anchor x="420" y="714" name="top"/>
  <outline>
    <contour>
      <point x="415" y="0" type="line"/>
      <point x="544" y="0" type="line"/>
      <point x="700" y="434" type="line"/>
      <point x="549" y="418" type="line"/>
      <point x="415" y="91" type="line"/>
    </contour>
    <contour>
      <point x="512" y="0" type="line"/>
      <point x="625" y="0" type="line"/>
      <point x="625" y="106" type="line"/>
      <point x="512" y="106" type="line"/>
    </contour>
    <component base="shorttoploops"/>
    <component base="rightdoubleflag" xOffset="565"/>
  </outline>
</glyph>
<glyph name="szaa.eth" format="2">
  <advance width="784"/>
  <unicode hex="1223"/>
  <note>
uni1223
</note>
  <anchor x="392" y="714" name="top"/>
  <outline>
    <contour>
      <point x="381" y="0" type="line"/>
      <point x="544" y="0" type="line"/>
      <point x="700" y="434" type="line"/>
      <point x="543" y="418" type="line"/>
    </contour>
    <component base="shorttoploops"/>
  </outline>
</glyph>
<glyph name="szee.eth" format="2">
  <advance width="860"/>
  <unicode hex="1224"/>
  <note>
uni1224
</note>
  <anchor x="460" y="714" name="top"/>
  <outline>
    <contour>
      <point x="425" y="0" type="line"/>
      <point x="565" y="0" type="line"/>
      <point x="702" y="440" type="line"/>
      <point x="512" y="368" type="line"/>
      <point x="425" y="101" type="line"/>
    </contour>
    <contour>
      <point x="578" y="107" type="line"/>
      <point x="613" y="220" type="line"/>
      <point x="648" y="220" type="line" smooth="yes"/>
      <point x="692" y="220"/>
      <point x="706" y="199"/>
      <point x="706" y="169" type="curve" smooth="yes"/>
      <point x="706" y="130"/>
      <point x="689" y="107"/>
      <point x="642" y="107" type="curve" smooth="yes"/>
    </contour>
    <contour>
      <point x="455" y="0" type="line"/>
      <point x="674" y="0" type="line" smooth="yes"/>
      <point x="785" y="0"/>
      <point x="853" y="68"/>
      <point x="853" y="169" type="curve" smooth="yes"/>
      <point x="853" y="271"/>
      <point x="797" y="326"/>
      <point x="664" y="326" type="curve" smooth="yes"/>
      <point x="553" y="326" type="line"/>
    </contour>
    <component base="shorttoploops"/>
  </outline>
</glyph>
<glyph name="sze.eth" format="2">
	<advance width="824"/>
	<unicode hex="1225"/>
	<anchor x="383" y="714" name="top"/>
	<note>
		uni1225
	</note>
	<outline>
		<contour>
			<point x="10" y="0" type="line"/>
			<point x="173" y="0" type="line"/>
			<point x="295" y="339" type="line"/>
			<point x="172" y="418" type="line"/>
		</contour>
		<component base="shorttoploops" xOffset="40"/>
	</outline>
</glyph>
<glyph name="szo.eth" format="2">
  <advance width="784"/>
  <unicode hex="1226"/>
  <note>
uni1226
</note>
  <anchor x="392" y="714" name="top"/>
  <outline>
    <contour>
      <point x="150" y="0" type="line"/>
      <point x="313" y="0" type="line"/>
      <point x="452" y="387" type="line"/>
      <point x="312" y="418" type="line"/>
    </contour>
    <component base="shorttoploops"/>
  </outline>
</glyph>
<glyph name="ru.eth" format="2">
  <advance width="558"/>
  <unicode hex="1229"/>
  <note>
uni1229
</note>
  <anchor x="292" y="714" name="top"/>
  <outline>
    <contour>
      <point x="219" y="0" type="line"/>
      <point x="379" y="0" type="line"/>
      <point x="379" y="180" type="line"/>
      <point x="435" y="180" type="line"/>
      <point x="404" y="286" type="line"/>
      <point x="257" y="286" type="line" smooth="yes"/>
      <point x="223" y="286"/>
      <point x="205" y="300"/>
      <point x="205" y="329" type="curve" smooth="yes"/>
      <point x="205" y="365"/>
      <point x="232" y="383"/>
      <point x="268" y="416" type="curve" smooth="yes"/>
      <point x="351" y="492"/>
      <point x="387" y="549"/>
      <point x="387" y="714" type="curve"/>
      <point x="227" y="714" type="line"/>
      <point x="227" y="591"/>
      <point x="214" y="567"/>
      <point x="137" y="505" type="curve" smooth="yes"/>
      <point x="72" y="453"/>
      <point x="26" y="423"/>
      <point x="26" y="326" type="curve" smooth="yes"/>
      <point x="26" y="233"/>
      <point x="74" y="180"/>
      <point x="203" y="180" type="curve" smooth="yes"/>
      <point x="219" y="180" type="line"/>
    </contour>
    <component base="rightsingleflag" xOffset="348" yOffset="-128"/>
  </outline>
</glyph>
<glyph name="ri.eth" format="2">
  <advance width="547"/>
  <unicode hex="122A"/>
  <note>
uni122A
</note>
  <anchor x="273" y="714" name="top"/>
  <outline>
    <contour>
      <point x="276" y="0" type="line"/>
      <point x="438" y="0"/>
      <point x="521" y="80"/>
      <point x="521" y="224" type="curve" smooth="yes"/>
      <point x="521" y="284" type="line"/>
      <point x="368" y="284" type="line"/>
      <point x="368" y="205" type="line" smooth="yes"/>
      <point x="368" y="127"/>
      <point x="334" y="106"/>
      <point x="276" y="106" type="curve"/>
    </contour>
    <component base="nose"/>
  </outline>
</glyph>
<glyph name="raa.eth" format="2">
  <advance width="632"/>
  <unicode hex="122B"/>
  <note>
uni122B
</note>
  <anchor x="329" y="714" name="top"/>
  <outline>
    <contour>
      <point x="275" y="0" type="line"/>
      <point x="427" y="0" type="line"/>
      <point x="427" y="161"/>
      <point x="440" y="231"/>
      <point x="502" y="240" type="curve"/>
      <point x="519" y="192"/>
      <point x="539" y="162"/>
      <point x="602" y="162" type="curve" smooth="yes"/>
      <point x="632" y="162" type="line"/>
      <point x="588" y="346" type="line"/>
      <point x="528" y="346" type="line" smooth="yes"/>
      <point x="352" y="346"/>
      <point x="302" y="261"/>
      <point x="293" y="106" type="curve"/>
      <point x="275" y="106" type="line"/>
    </contour>
    <component base="nose"/>
  </outline>
</glyph>
<glyph name="ree.eth" format="2">
	<advance width="612"/>
	<unicode hex="122C"/>
	<anchor x="313" y="714" name="top"/>
	<note>
		uni122C
	</note>
	<outline>
		<contour>
			<point x="277" y="0" type="line"/>
			<point x="444" y="0" type="line"/>
			<point x="444" y="60" type="line"/>
			<point x="324" y="106" type="line"/>
			<point x="277" y="106" type="line"/>
		</contour>
		<component base="nose"/>
		<component base="ballbig" xOffset="257" yOffset="-152"/>
	</outline>
</glyph>
<glyph name="re.eth" format="2">
  <advance width="487"/>
  <unicode hex="122D"/>
  <note>
uni122D
</note>
  <anchor x="261" y="714" name="top"/>
  <outline>
    <contour>
      <point x="454" y="-68" type="curve" smooth="yes"/>
      <point x="487" y="-68" type="line"/>
      <point x="458" y="52" type="line"/>
      <point x="487" y="172" type="line"/>
      <point x="452" y="172" type="line" smooth="yes"/>
      <point x="400" y="172"/>
      <point x="375" y="149"/>
      <point x="359" y="106" type="curve"/>
      <point x="286" y="106" type="line" smooth="yes"/>
      <point x="221" y="106"/>
      <point x="196" y="146"/>
      <point x="196" y="255" type="curve" smooth="yes"/>
      <point x="196" y="317" type="line" smooth="yes"/>
      <point x="196" y="533"/>
      <point x="240" y="608"/>
      <point x="336" y="608" type="curve" smooth="yes"/>
      <point x="353" y="608" type="line"/>
      <point x="373" y="552"/>
      <point x="396" y="530"/>
      <point x="452" y="530" type="curve" smooth="yes"/>
      <point x="483" y="530" type="line"/>
      <point x="439" y="714" type="line"/>
      <point x="314" y="714" type="line" smooth="yes"/>
      <point x="165" y="714"/>
      <point x="36" y="618"/>
      <point x="36" y="310" type="curve" smooth="yes"/>
      <point x="36" y="258" type="line" smooth="yes"/>
      <point x="36" y="70"/>
      <point x="100" y="0"/>
      <point x="267" y="0" type="curve" smooth="yes"/>
      <point x="359" y="0" type="line"/>
      <point x="377" y="-44"/>
      <point x="398" y="-68"/>
    </contour>
  </outline>
</glyph>
<glyph name="ro.eth" format="2">
  <advance width="616"/>
  <unicode hex="122E"/>
  <note>
uni122E
</note>
  <anchor x="320" y="714" name="top"/>
  <outline>
    <contour>
      <point x="454" y="-68" type="curve" smooth="yes"/>
      <point x="487" y="-68" type="line"/>
      <point x="458" y="52" type="line"/>
      <point x="487" y="172" type="line"/>
      <point x="452" y="172" type="line" smooth="yes"/>
      <point x="400" y="172"/>
      <point x="375" y="149"/>
      <point x="359" y="106" type="curve"/>
      <point x="286" y="106" type="line" smooth="yes"/>
      <point x="221" y="106"/>
      <point x="196" y="146"/>
      <point x="196" y="255" type="curve" smooth="yes"/>
      <point x="196" y="317" type="line" smooth="yes"/>
      <point x="196" y="533"/>
      <point x="240" y="608"/>
      <point x="336" y="608" type="curve"/>
      <point x="439" y="714" type="line"/>
      <point x="314" y="714" type="line" smooth="yes"/>
      <point x="165" y="714"/>
      <point x="36" y="618"/>
      <point x="36" y="310" type="curve" smooth="yes"/>
      <point x="36" y="258" type="line" smooth="yes"/>
      <point x="36" y="70"/>
      <point x="100" y="0"/>
      <point x="267" y="0" type="curve" smooth="yes"/>
      <point x="359" y="0" type="line"/>
      <point x="377" y="-44"/>
      <point x="398" y="-68"/>
    </contour>
    <component base="ballbig" xOffset="261" yOffset="263"/>
  </outline>
</glyph>
<glyph name="sa.eth" format="2">
	<advance width="557"/>
	<unicode hex="1230"/>
	<anchor x="278" y="760" name="top"/>
	<note>
		uni1230
	</note>
	<outline>
		<contour>
			<point x="201" y="551" type="line"/>
			<point x="361" y="551" type="line"/>
			<point x="361" y="760" type="line"/>
			<point x="201" y="760" type="line"/>
		</contour>
		<component base="shortnarch"/>
	</outline>
</glyph>
<glyph name="saa.eth" format="2">
	<advance width="557"/>
	<unicode hex="1233"/>
	<anchor x="278" y="760" name="top"/>
	<note>
		uni1233
	</note>
	<outline>
		<contour>
			<point x="198" y="551" type="line"/>
			<point x="358" y="551" type="line"/>
			<point x="358" y="760" type="line"/>
			<point x="198" y="760" type="line"/>
		</contour>
		<component base="baashort" xOffset="15"/>
	</outline>
</glyph>
<glyph name="se.eth" format="2">
	<advance width="557"/>
	<unicode hex="1235"/>
	<anchor x="278" y="760" name="top"/>
	<note>
		uni1235
	</note>
	<outline>
		<contour>
			<point x="208" y="551" type="line"/>
			<point x="371" y="551" type="line"/>
			<point x="284" y="760" type="line"/>
			<point x="121" y="760" type="line"/>
		</contour>
		<component base="shortnarch"/>
	</outline>
</glyph>
<glyph name="qe.eth" format="2">
  <advance width="595"/>
  <unicode hex="1245"/>
  <note>
uni1245
</note>
  <anchor x="297" y="851" name="top"/>
  <outline>
    <contour>
      <point x="218" y="660" type="line"/>
      <point x="378" y="660" type="line"/>
      <point x="378" y="773" type="line"/>
      <point x="218" y="773" type="line"/>
    </contour>
    <component base="qa.eth"/>
    <component base="leftsingleflag" yScale="-1" xOffset="43" yOffset="1081"/>
  </outline>
</glyph>
<glyph name="qwaa.eth" format="2">
	<advance width="595"/>
	<unicode hex="124B"/>
	<anchor x="297" y="713" name="top"/>
	<note>
		uni124B
	</note>
	<outline>
		<contour>
			<point x="217" y="101" type="line"/>
			<point x="561" y="101" type="line"/>
			<point x="561" y="207" type="line"/>
			<point x="217" y="207" type="line"/>
		</contour>
		<contour>
			<point x="442" y="0" type="line"/>
			<point x="561" y="0" type="line"/>
			<point x="561" y="207" type="line"/>
			<point x="442" y="207" type="line"/>
		</contour>
		<component base="midring" yOffset="66"/>
		<component base="leftsingleflag" xOffset="24" yOffset="-207"/>
		<component base="stem1" yScale="0.785" xOffset="155" yOffset="153"/>
	</outline>
</glyph>
<glyph name="qwe.eth" format="2">
  <advance width="907"/>
  <unicode hex="124D"/>
  <note>
uni124D
</note>
  <anchor x="458" y="714" name="top"/>
  <outline>
    <contour>
      <point x="637" y="330" type="line"/>
      <point x="772" y="330" type="line"/>
      <point x="772" y="615" type="line"/>
      <point x="637" y="615" type="line"/>
    </contour>
    <contour>
      <point x="517" y="330" type="line"/>
      <point x="706" y="330" type="line"/>
      <point x="706" y="436" type="line"/>
      <point x="517" y="436" type="line"/>
    </contour>
    <component base="rightsingleflag" xOffset="697" yOffset="22"/>
    <component base="qa.eth"/>
  </outline>
</glyph>
<glyph name="qha.eth" format="2">
  <advance width="595"/>
  <unicode hex="1250"/>
  <note>
uni1250
</note>
  <anchor x="297" y="839" name="top"/>
  <outline>
    <contour>
      <point x="218" y="649" type="line"/>
      <point x="378" y="649" type="line"/>
      <point x="378" y="762" type="line"/>
      <point x="218" y="762" type="line"/>
    </contour>
    <component base="qa.eth"/>
    <component base="bonemiddle" xOffset="30"/>
  </outline>
</glyph>
<glyph name="qhu.eth" format="2">
  <advance width="595"/>
  <unicode hex="1251"/>
  <note>
uni1251
</note>
  <anchor x="297" y="839" name="top"/>
  <outline>
    <contour>
      <point x="218" y="649" type="line"/>
      <point x="378" y="649" type="line"/>
      <point x="378" y="762" type="line"/>
      <point x="218" y="762" type="line"/>
    </contour>
    <component base="qu.eth"/>
    <component base="bonemiddle" xOffset="28"/>
  </outline>
</glyph>
<glyph name="qhaa.eth" format="2">
  <advance width="595"/>
  <unicode hex="1253"/>
  <note>
uni1253
</note>
  <anchor x="297" y="839" name="top"/>
  <outline>
    <contour>
      <point x="219" y="642" type="line"/>
      <point x="379" y="642" type="line"/>
      <point x="379" y="773" type="line"/>
      <point x="219" y="773" type="line"/>
    </contour>
    <component base="qaa.eth" xOffset="10"/>
    <component base="bonemiddle" xOffset="29"/>
  </outline>
</glyph>
<glyph name="qhe.eth" format="2">
  <advance width="644"/>
  <unicode hex="1255"/>
  <note>
uni1255
</note>
  <anchor x="317" y="839" name="top"/>
  <outline>
    <contour>
      <point x="279" y="0" type="line"/>
      <point x="439" y="0" type="line"/>
      <point x="439" y="556" type="line"/>
      <point x="418" y="556" type="line" smooth="yes"/>
      <point x="342" y="556"/>
      <point x="316" y="594"/>
      <point x="316" y="668" type="curve" smooth="yes"/>
      <point x="316" y="715" type="line"/>
      <point x="165" y="715" type="line"/>
      <point x="165" y="635" type="line" smooth="yes"/>
      <point x="165" y="540"/>
      <point x="206" y="479"/>
      <point x="279" y="459" type="curve"/>
    </contour>
    <component base="midringshort" xOffset="64" yOffset="-136"/>
    <component base="bone"/>
  </outline>
</glyph>
<glyph name="qhwa.eth" format="2">
  <advance width="708"/>
  <unicode hex="1258"/>
  <note>
uni1258
</note>
  <anchor x="353" y="879" name="top"/>
  <outline>
    <contour>
      <point x="210" y="686" type="line"/>
      <point x="370" y="686" type="line"/>
      <point x="370" y="766" type="line"/>
      <point x="210" y="766" type="line"/>
    </contour>
    <component base="stem1" xOffset="147"/>
    <component base="rightbulbsmall" xOffset="350" yOffset="-167"/>
    <component base="midringshort" yOffset="79"/>
    <component base="bonemiddle" xOffset="21" yOffset="40"/>
  </outline>
</glyph>
<glyph name="qhwi.eth" format="2">
  <advance width="943"/>
  <unicode hex="125A"/>
  <note>
uni125A
</note>
  <anchor x="476" y="839" name="top"/>
  <outline>
    <contour>
      <point x="910" y="156" type="curve" smooth="yes"/>
      <point x="943" y="156" type="line"/>
      <point x="899" y="340" type="line"/>
      <point x="733" y="340" type="line"/>
      <point x="733" y="234" type="line"/>
      <point x="813" y="234" type="line"/>
      <point x="832" y="182"/>
      <point x="853" y="156"/>
    </contour>
    <contour>
      <point x="526" y="326" type="line"/>
      <point x="645" y="326" type="line"/>
      <point x="645" y="432" type="line"/>
      <point x="526" y="432" type="line"/>
    </contour>
    <contour>
      <point x="641" y="234" type="line"/>
      <point x="780" y="234" type="line"/>
      <point x="780" y="532" type="line"/>
      <point x="641" y="532" type="line"/>
    </contour>
    <component base="qha.eth"/>
  </outline>
</glyph>
<glyph name="qhwaa.eth" format="2">
	<advance width="580"/>
	<unicode hex="125B"/>
	<anchor x="290" y="839" name="top"/>
	<note>
		uni125B
	</note>
	<outline>
		<contour>
			<point x="207" y="100" type="line"/>
			<point x="541" y="100" type="line"/>
			<point x="541" y="206" type="line"/>
			<point x="207" y="206" type="line"/>
		</contour>
		<contour>
			<point x="422" y="0" type="line"/>
			<point x="541" y="0" type="line"/>
			<point x="541" y="206" type="line"/>
			<point x="422" y="206" type="line"/>
		</contour>
		<component base="midringshort" yOffset="49"/>
		<component base="bonemiddle" xOffset="23"/>
		<component base="stem1" yScale="0.882" xOffset="150" yOffset="132"/>
		<component base="leftsingleflag" xOffset="24" yOffset="-208"/>
	</outline>
</glyph>
<glyph name="qhwe.eth" format="2">
  <advance width="907"/>
  <unicode hex="125D"/>
  <note>
uni125D
</note>
  <anchor x="458" y="839" name="top"/>
  <outline>
    <contour>
      <point x="637" y="330" type="line"/>
      <point x="772" y="330" type="line"/>
      <point x="772" y="615" type="line"/>
      <point x="637" y="615" type="line"/>
    </contour>
    <contour>
      <point x="517" y="330" type="line"/>
      <point x="706" y="330" type="line"/>
      <point x="706" y="436" type="line"/>
      <point x="517" y="436" type="line"/>
    </contour>
    <component base="qha.eth"/>
    <component base="rightsingleflag" xOffset="697" yOffset="22"/>
  </outline>
</glyph>
<glyph name="baa.eth" format="2">
  <advance width="550"/>
  <unicode hex="1263"/>
  <note>
uni1263
</note>
  <anchor x="271" y="724" name="top"/>
  <outline>
    <contour>
      <point x="323" y="0" type="line"/>
      <point x="483" y="0" type="line"/>
      <point x="483" y="501" type="line" smooth="yes"/>
      <point x="483" y="645"/>
      <point x="409" y="724"/>
      <point x="274" y="724" type="curve" smooth="yes"/>
      <point x="131" y="724"/>
      <point x="60" y="636"/>
      <point x="60" y="503" type="curve" smooth="yes"/>
      <point x="60" y="240" type="line"/>
      <point x="220" y="240" type="line"/>
      <point x="220" y="492" type="line" smooth="yes"/>
      <point x="220" y="557"/>
      <point x="234" y="589"/>
      <point x="272" y="589" type="curve" smooth="yes"/>
      <point x="311" y="589"/>
      <point x="323" y="559"/>
      <point x="323" y="491" type="curve" smooth="yes"/>
    </contour>
  </outline>
</glyph>
<glyph name="te.eth" format="2">
  <advance width="553"/>
  <unicode hex="1275"/>
  <note>
uni1275
</note>
  <anchor x="276" y="806" name="top"/>
  <outline>
    <contour>
      <point x="200" y="0" type="line"/>
      <point x="360" y="0" type="line"/>
      <point x="360" y="622" type="line"/>
      <point x="332" y="622" type="line" smooth="yes"/>
      <point x="268" y="622"/>
      <point x="247" y="651"/>
      <point x="247" y="725" type="curve" smooth="yes"/>
      <point x="247" y="806" type="line"/>
      <point x="87" y="806" type="line"/>
      <point x="87" y="695" type="line" smooth="yes"/>
      <point x="87" y="592"/>
      <point x="126" y="534"/>
      <point x="200" y="517" type="curve"/>
    </contour>
    <component base="footmiddle" yOffset="337"/>
  </outline>
</glyph>
<glyph name="caa.eth" format="2">
  <advance width="565"/>
  <unicode hex="127B"/>
  <note>
uni127B
</note>
  <anchor x="282" y="839" name="top"/>
  <outline>
    <contour>
      <point x="209" y="606" type="line"/>
      <point x="369" y="606" type="line"/>
      <point x="369" y="760" type="line"/>
      <point x="209" y="760" type="line"/>
    </contour>
    <component base="jstem"/>
    <component base="footmiddle" xOffset="12" yOffset="462"/>
    <component base="bonemiddle" xOffset="21"/>
  </outline>
</glyph>
<glyph name="cee.eth" format="2">
  <advance width="576"/>
  <unicode hex="127C"/>
  <note>
uni127C
</note>
  <anchor x="288" y="840" name="top"/>
  <outline>
    <contour>
      <point x="197" y="652" type="line"/>
      <point x="357" y="652" type="line"/>
      <point x="357" y="746" type="line"/>
      <point x="197" y="746" type="line"/>
    </contour>
    <component base="stem1" xOffset="134"/>
    <component base="baselinebowl" xOffset="187"/>
    <component base="bonemiddle" xOffset="9" yOffset="1"/>
    <component base="footmiddle" yOffset="440"/>
  </outline>
</glyph>
<glyph name="ce.eth" format="2">
  <advance width="626"/>
  <unicode hex="127D"/>
  <note>
uni127D
</note>
  <anchor x="313" y="839" name="top"/>
  <outline>
    <contour>
      <point x="274" y="0" type="line"/>
      <point x="434" y="0" type="line"/>
      <point x="434" y="557" type="line"/>
      <point x="406" y="557" type="line" smooth="yes"/>
      <point x="342" y="557"/>
      <point x="321" y="586"/>
      <point x="321" y="660" type="curve" smooth="yes"/>
      <point x="321" y="773" type="line"/>
      <point x="161" y="773" type="line"/>
      <point x="161" y="630" type="line" smooth="yes"/>
      <point x="161" y="527"/>
      <point x="200" y="469"/>
      <point x="274" y="452" type="curve"/>
    </contour>
    <contour>
      <point x="42" y="667" type="line"/>
      <point x="354" y="667" type="line"/>
      <point x="368" y="632"/>
      <point x="389" y="599"/>
      <point x="441" y="599" type="curve" smooth="yes"/>
      <point x="482" y="599" type="line"/>
      <point x="453" y="720" type="line"/>
      <point x="482" y="839" type="line"/>
      <point x="441" y="839" type="line" smooth="yes"/>
      <point x="389" y="839"/>
      <point x="367" y="807"/>
      <point x="354" y="773" type="curve"/>
      <point x="128" y="773" type="line"/>
      <point x="115" y="807"/>
      <point x="93" y="839"/>
      <point x="41" y="839" type="curve" smooth="yes"/>
      <point x="0" y="839" type="line"/>
    </contour>
    <component base="footmiddle" xOffset="73" yOffset="301"/>
  </outline>
</glyph>
<glyph name="co.eth" format="2">
  <advance width="668"/>
  <unicode hex="127E"/>
  <note>
uni127E
</note>
  <anchor x="334" y="874" name="top"/>
  <outline>
    <contour>
      <point x="200" y="690" type="line"/>
      <point x="473" y="690" type="line"/>
      <point x="473" y="796" type="line"/>
      <point x="200" y="796" type="line"/>
    </contour>
    <component base="to.eth" xOffset="62"/>
    <component base="leftdoubleflag" xOffset="16" yOffset="690"/>
    <component base="rightsingleflag" yScale="-1" xOffset="442" yOffset="1104"/>
  </outline>
</glyph>
<glyph name="xaa.eth" format="2">
  <advance width="524"/>
  <unicode hex="1283"/>
  <note>
uni1283
</note>
  <anchor x="231" y="715" name="top"/>
  <outline>
    <contour>
      <point x="0" y="-78" type="line"/>
      <point x="35" y="-78" type="line" smooth="yes"/>
      <point x="72" y="-78"/>
      <point x="107" y="-66"/>
      <point x="130" y="0" type="curve"/>
      <point x="196" y="0" type="line" smooth="yes"/>
      <point x="388" y="0"/>
      <point x="463" y="102"/>
      <point x="463" y="257" type="curve" smooth="yes"/>
      <point x="463" y="343" type="line"/>
      <point x="303" y="343" type="line"/>
      <point x="303" y="251" type="line" smooth="yes"/>
      <point x="303" y="155"/>
      <point x="266" y="106"/>
      <point x="179" y="106" type="curve" smooth="yes"/>
      <point x="44" y="106" type="line"/>
    </contour>
    <contour>
      <point x="303" y="282" type="line"/>
      <point x="463" y="282" type="line"/>
      <point x="463" y="533" type="line"/>
      <point x="441" y="533" type="line" smooth="yes"/>
      <point x="377" y="533"/>
      <point x="359" y="568"/>
      <point x="359" y="635" type="curve" smooth="yes"/>
      <point x="359" y="715" type="line"/>
      <point x="199" y="715" type="line"/>
      <point x="199" y="602" type="line" smooth="yes"/>
      <point x="199" y="507"/>
      <point x="236" y="446"/>
      <point x="303" y="426" type="curve"/>
    </contour>
    <component base="leftsingleflag" xOffset="6" yOffset="230"/>
  </outline>
</glyph>
<glyph name="xe.eth" format="2">
  <advance width="542"/>
  <unicode hex="1285"/>
  <note>
uni1285
</note>
  <anchor x="251" y="714" name="top"/>
  <outline>
    <contour>
      <point x="22" y="357" type="curve"/>
      <point x="174" y="357" type="line"/>
      <point x="174" y="472"/>
      <point x="194" y="499"/>
      <point x="229" y="516" type="curve"/>
      <point x="216" y="645" type="line"/>
      <point x="96" y="625"/>
      <point x="22" y="522"/>
    </contour>
    <component base="na.eth" xOffset="173"/>
  </outline>
</glyph>
<glyph name="xwi.eth" format="2">
  <advance width="801"/>
  <unicode hex="128A"/>
  <note>
uni128A
</note>
  <anchor x="400" y="714" name="top"/>
  <outline>
    <contour>
      <point x="768" y="67" type="curve" smooth="yes"/>
      <point x="801" y="67" type="line"/>
      <point x="757" y="251" type="line"/>
      <point x="591" y="251" type="line"/>
      <point x="591" y="145" type="line"/>
      <point x="671" y="145" type="line"/>
      <point x="690" y="93"/>
      <point x="711" y="67"/>
    </contour>
    <contour>
      <point x="384" y="237" type="line"/>
      <point x="503" y="237" type="line"/>
      <point x="503" y="343" type="line"/>
      <point x="384" y="343" type="line"/>
    </contour>
    <contour>
      <point x="499" y="145" type="line"/>
      <point x="638" y="145" type="line"/>
      <point x="638" y="443" type="line"/>
      <point x="499" y="443" type="line"/>
    </contour>
    <component base="xa.eth"/>
  </outline>
</glyph>
<glyph name="xwaa.eth" format="2">
  <advance width="638"/>
  <unicode hex="128B"/>
  <note>
uni128B
</note>
  <anchor x="309" y="714" name="top"/>
  <outline>
    <contour>
      <point x="286" y="138" type="line"/>
      <point x="446" y="138" type="line"/>
      <point x="446" y="530" type="line"/>
      <point x="418" y="530" type="line" smooth="yes"/>
      <point x="354" y="530"/>
      <point x="333" y="559"/>
      <point x="333" y="633" type="curve" smooth="yes"/>
      <point x="333" y="714" type="line"/>
      <point x="173" y="714" type="line"/>
      <point x="173" y="603" type="line" smooth="yes"/>
      <point x="173" y="500"/>
      <point x="212" y="442"/>
      <point x="286" y="425" type="curve"/>
    </contour>
    <contour>
      <point x="248" y="111" type="line"/>
      <point x="618" y="111" type="line"/>
      <point x="618" y="217" type="line"/>
      <point x="248" y="217" type="line"/>
    </contour>
    <contour>
      <point x="491" y="0" type="line"/>
      <point x="618" y="0" type="line"/>
      <point x="618" y="217" type="line"/>
      <point x="491" y="217" type="line"/>
    </contour>
    <component base="leftsingleflag" xOffset="48" yOffset="-197"/>
    <component base="leftsingleflag" yOffset="230"/>
  </outline>
</glyph>
<glyph name="xwee.eth" format="2">
	<advance width="678"/>
	<unicode hex="128C"/>
	<anchor x="335" y="714" name="top"/>
	<note>
		uni128C
	</note>
	<outline>
		<contour>
			<point x="244" y="0" type="line"/>
			<point x="400" y="0" type="line"/>
			<point x="400" y="106" type="line"/>
			<point x="244" y="106" type="line"/>
		</contour>
		<component base="xee.eth"/>
		<component base="leftsingleflag" xOffset="88" yOffset="-308"/>
	</outline>
</glyph>
<glyph name="xwe.eth" format="2">
  <advance width="776"/>
  <unicode hex="128D"/>
  <note>
uni128D
</note>
  <anchor x="388" y="714" name="top"/>
  <outline>
    <contour>
      <point x="506" y="240" type="line"/>
      <point x="641" y="240" type="line"/>
      <point x="641" y="481" type="line"/>
      <point x="506" y="481" type="line"/>
    </contour>
    <contour>
      <point x="386" y="240" type="line"/>
      <point x="575" y="240" type="line"/>
      <point x="575" y="346" type="line"/>
      <point x="386" y="346" type="line"/>
    </contour>
    <component base="xa.eth"/>
    <component base="rightsingleflag" xOffset="566" yOffset="-68"/>
  </outline>
</glyph>
<glyph name="na.eth" format="2">
  <advance width="369"/>
  <unicode hex="1290"/>
  <note>
uni1290
</note>
  <anchor x="171" y="714" name="top"/>
  <outline>
    <contour>
      <point x="148" y="0" type="line"/>
      <point x="308" y="0" type="line"/>
      <point x="308" y="530" type="line"/>
      <point x="280" y="530" type="line" smooth="yes"/>
      <point x="216" y="530"/>
      <point x="195" y="559"/>
      <point x="195" y="633" type="curve" smooth="yes"/>
      <point x="195" y="714" type="line"/>
      <point x="35" y="714" type="line"/>
      <point x="35" y="603" type="line" smooth="yes"/>
      <point x="35" y="500"/>
      <point x="74" y="442"/>
      <point x="148" y="425" type="curve"/>
    </contour>
  </outline>
</glyph>
<glyph name="naa.eth" format="2">
  <advance width="494"/>
  <unicode hex="1293"/>
  <note>
uni1293
</note>
  <anchor x="270" y="714" name="top"/>
  <outline>
    <contour>
      <point x="47" y="235" type="line"/>
      <point x="207" y="260" type="line"/>
      <point x="207" y="328" type="line" smooth="yes"/>
      <point x="207" y="504"/>
      <point x="254" y="608"/>
      <point x="347" y="608" type="curve" smooth="yes"/>
      <point x="364" y="608" type="line"/>
      <point x="384" y="552"/>
      <point x="405" y="530"/>
      <point x="463" y="530" type="curve" smooth="yes"/>
      <point x="494" y="530" type="line"/>
      <point x="450" y="714" type="line"/>
      <point x="325" y="714" type="line" smooth="yes"/>
      <point x="176" y="714"/>
      <point x="47" y="617"/>
      <point x="47" y="310" type="curve" smooth="yes"/>
    </contour>
    <contour>
      <point x="198" y="0" type="line"/>
      <point x="358" y="0" type="line"/>
      <point x="358" y="359" type="line"/>
      <point x="116" y="359" type="line"/>
      <point x="47" y="236" type="line"/>
      <point x="198" y="236" type="line"/>
    </contour>
  </outline>
</glyph>
<glyph name="nee.eth" format="2">
  <advance width="490"/>
  <unicode hex="1294"/>
  <note>
uni1294
</note>
  <anchor x="261" y="714" name="top"/>
  <outline>
    <contour>
      <point x="58" y="0" type="line"/>
      <point x="194" y="0" type="line"/>
      <point x="382" y="530" type="line"/>
      <point x="286" y="530" type="line" smooth="yes"/>
      <point x="222" y="530"/>
      <point x="200" y="559"/>
      <point x="200" y="633" type="curve" smooth="yes"/>
      <point x="200" y="714" type="line"/>
      <point x="40" y="714" type="line"/>
      <point x="40" y="603" type="line" smooth="yes"/>
      <point x="40" y="500"/>
      <point x="87" y="434"/>
      <point x="186" y="417" type="curve"/>
      <point x="58" y="82" type="line"/>
    </contour>
    <contour>
      <point x="220" y="107" type="line"/>
      <point x="264" y="220" type="line"/>
      <point x="286" y="220" type="line" smooth="yes"/>
      <point x="318" y="220"/>
      <point x="336" y="199"/>
      <point x="336" y="166" type="curve" smooth="yes"/>
      <point x="336" y="130"/>
      <point x="322" y="107"/>
      <point x="286" y="107" type="curve" smooth="yes"/>
    </contour>
    <contour>
      <point x="104" y="0" type="line"/>
      <point x="304" y="0" type="line" smooth="yes"/>
      <point x="415" y="0"/>
      <point x="483" y="68"/>
      <point x="483" y="169" type="curve" smooth="yes"/>
      <point x="483" y="271"/>
      <point x="427" y="326"/>
      <point x="294" y="326" type="curve" smooth="yes"/>
      <point x="232" y="326" type="line"/>
    </contour>
  </outline>
</glyph>
<glyph name="ne.eth" format="2">
  <advance width="562"/>
  <unicode hex="1295"/>
  <note>
uni1295
</note>
  <anchor x="263" y="714" name="top"/>
  <outline>
    <contour>
      <point x="189" y="0" type="line"/>
      <point x="354" y="0" type="line"/>
      <point x="527" y="497" type="line"/>
      <point x="372" y="497" type="line"/>
      <point x="372" y="507" type="line" smooth="yes"/>
      <point x="372" y="650"/>
      <point x="313" y="714"/>
      <point x="140" y="714" type="curve" smooth="yes"/>
      <point x="44" y="714" type="line"/>
      <point x="0" y="530" type="line"/>
      <point x="28" y="530" type="line" smooth="yes"/>
      <point x="89" y="530"/>
      <point x="110" y="553"/>
      <point x="130" y="608" type="curve"/>
      <point x="134" y="608" type="line" smooth="yes"/>
      <point x="181" y="608"/>
      <point x="208" y="594"/>
      <point x="208" y="496" type="curve" smooth="yes"/>
      <point x="208" y="370" type="line"/>
      <point x="317" y="370" type="line"/>
    </contour>
  </outline>
</glyph>
<glyph name="no.eth" format="2">
  <advance width="628"/>
  <unicode hex="1296"/>
  <note>
uni1296
</note>
  <anchor x="331" y="714" name="top"/>
  <outline>
    <contour>
      <point x="234" y="0" type="line"/>
      <point x="394" y="0" type="line"/>
      <point x="394" y="358" type="line"/>
      <point x="207" y="358" type="line"/>
      <point x="210" y="500"/>
      <point x="234" y="574"/>
      <point x="290" y="602" type="curve"/>
      <point x="444" y="714" type="line"/>
      <point x="382" y="714" type="line" smooth="yes"/>
      <point x="176" y="714"/>
      <point x="47" y="618"/>
      <point x="47" y="310" type="curve" smooth="yes"/>
      <point x="47" y="233" type="line"/>
      <point x="234" y="233" type="line"/>
    </contour>
    <component base="ballbig" xOffset="273" yOffset="263"/>
  </outline>
</glyph>
<glyph name="nya.eth" format="2">
  <advance width="500"/>
  <unicode hex="1298"/>
  <note>
uni1298
</note>
  <anchor x="241" y="780" name="top"/>
  <outline>
    <contour>
      <point x="273" y="0" type="line"/>
      <point x="433" y="0" type="line"/>
      <point x="433" y="450" type="line"/>
      <point x="405" y="450" type="line" smooth="yes"/>
      <point x="341" y="450"/>
      <point x="320" y="479"/>
      <point x="320" y="553" type="curve" smooth="yes"/>
      <point x="320" y="634" type="line"/>
      <point x="160" y="634" type="line"/>
      <point x="160" y="523" type="line" smooth="yes"/>
      <point x="160" y="420"/>
      <point x="199" y="362"/>
      <point x="273" y="345" type="curve"/>
    </contour>
    <component base="bone" yOffset="-59"/>
  </outline>
</glyph>
<glyph name="nyaa.eth" format="2">
  <advance width="536"/>
  <unicode hex="129B"/>
  <note>
uni129B
</note>
  <anchor x="268" y="813" name="top"/>
  <outline>
    <contour>
      <point x="20" y="164" type="line"/>
      <point x="180" y="218" type="line" smooth="yes"/>
      <point x="180" y="248" type="line" smooth="yes"/>
      <point x="180" y="381"/>
      <point x="228" y="470"/>
      <point x="322" y="470" type="curve" smooth="yes"/>
      <point x="332" y="470" type="line"/>
      <point x="353" y="414"/>
      <point x="374" y="392"/>
      <point x="432" y="392" type="curve" smooth="yes"/>
      <point x="462" y="392" type="line"/>
      <point x="418" y="576" type="line"/>
      <point x="301" y="576" type="line" smooth="yes"/>
      <point x="153" y="576"/>
      <point x="20" y="485"/>
      <point x="20" y="253" type="curve" smooth="yes"/>
    </contour>
    <contour>
      <point x="175" y="0" type="line"/>
      <point x="335" y="0" type="line"/>
      <point x="335" y="288" type="line"/>
      <point x="93" y="288" type="line"/>
      <point x="20" y="165" type="line"/>
      <point x="175" y="165" type="line"/>
    </contour>
    <contour>
      <point x="188" y="538" type="line"/>
      <point x="343" y="538" type="line"/>
      <point x="343" y="686" type="line"/>
      <point x="188" y="686" type="line"/>
    </contour>
    <component base="bonemiddle" yOffset="-26"/>
  </outline>
</glyph>
<glyph name="nyee.eth" format="2">
  <advance width="668"/>
  <unicode hex="129C"/>
  <note>
uni129C
</note>
  <anchor x="330" y="789" name="top"/>
  <outline>
    <contour>
      <point x="231" y="0" type="line"/>
      <point x="367" y="0" type="line"/>
      <point x="532" y="484" type="line"/>
      <point x="350" y="484" type="line"/>
      <point x="350" y="666" type="line"/>
      <point x="195" y="666" type="line"/>
      <point x="195" y="362" type="line"/>
      <point x="337" y="362" type="line"/>
      <point x="231" y="82" type="line"/>
    </contour>
    <contour>
      <point x="392" y="107" type="line"/>
      <point x="432" y="220" type="line"/>
      <point x="464" y="220" type="line" smooth="yes"/>
      <point x="496" y="220"/>
      <point x="514" y="199"/>
      <point x="514" y="171" type="curve" smooth="yes"/>
      <point x="514" y="130"/>
      <point x="495" y="107"/>
      <point x="452" y="107" type="curve" smooth="yes"/>
    </contour>
    <contour>
      <point x="282" y="0" type="line"/>
      <point x="482" y="0" type="line" smooth="yes"/>
      <point x="593" y="0"/>
      <point x="661" y="68"/>
      <point x="661" y="169" type="curve" smooth="yes"/>
      <point x="661" y="271"/>
      <point x="605" y="326"/>
      <point x="472" y="326" type="curve" smooth="yes"/>
      <point x="393" y="326" type="line"/>
    </contour>
    <component base="bonemiddle" yOffset="-50"/>
  </outline>
</glyph>
<glyph name="nye.eth" format="2">
  <advance width="535"/>
  <unicode hex="129D"/>
  <note>
uni129D
</note>
  <anchor x="262" y="792" name="top"/>
  <outline>
    <contour>
      <point x="247" y="0" type="line"/>
      <point x="413" y="0" type="line"/>
      <point x="525" y="384" type="line"/>
      <point x="369" y="384" type="line"/>
      <point x="369" y="388" type="line" smooth="yes"/>
      <point x="369" y="452"/>
      <point x="336" y="545"/>
      <point x="178" y="545" type="curve" smooth="yes"/>
      <point x="44" y="545" type="line"/>
      <point x="0" y="361" type="line"/>
      <point x="32" y="361" type="line" smooth="yes"/>
      <point x="87" y="361"/>
      <point x="110" y="383"/>
      <point x="130" y="439" type="curve"/>
      <point x="149" y="439" type="line" smooth="yes"/>
      <point x="183" y="439"/>
      <point x="205" y="416"/>
      <point x="205" y="339" type="curve" smooth="yes"/>
      <point x="205" y="256" type="line"/>
      <point x="322" y="256" type="line"/>
    </contour>
    <contour>
      <point x="145" y="467" type="line"/>
      <point x="305" y="467" type="line"/>
      <point x="305" y="678" type="line"/>
      <point x="145" y="678" type="line"/>
    </contour>
    <component base="footshort" xScale="-1" yScale="-1" xOffset="462" yOffset="714"/>
  </outline>
</glyph>
<glyph name="nyo.eth" format="2">
  <advance width="600"/>
  <unicode hex="129E"/>
  <note>
uni129E
</note>
  <anchor x="306" y="806" name="top"/>
  <outline>
    <contour>
      <point x="210" y="0" type="line"/>
      <point x="360" y="0" type="line"/>
      <point x="360" y="289" type="line"/>
      <point x="212" y="289" type="line"/>
      <point x="212" y="397"/>
      <point x="242" y="476"/>
      <point x="320" y="476" type="curve"/>
      <point x="444" y="568" type="line"/>
      <point x="287" y="568" type="line" smooth="yes"/>
      <point x="181" y="568"/>
      <point x="52" y="491"/>
      <point x="52" y="239" type="curve" smooth="yes"/>
      <point x="52" y="172" type="line"/>
      <point x="210" y="172" type="line"/>
    </contour>
    <contour>
      <point x="438" y="296" type="curve" smooth="yes"/>
      <point x="540" y="296"/>
      <point x="588" y="356"/>
      <point x="588" y="434" type="curve" smooth="yes"/>
      <point x="588" y="513"/>
      <point x="540" y="568"/>
      <point x="438" y="568" type="curve" smooth="yes"/>
      <point x="334" y="568"/>
      <point x="288" y="513"/>
      <point x="288" y="433" type="curve" smooth="yes"/>
      <point x="288" y="352"/>
      <point x="338" y="296"/>
    </contour>
    <contour>
      <point x="210" y="518" type="line"/>
      <point x="370" y="518" type="line"/>
      <point x="370" y="682" type="line"/>
      <point x="210" y="682" type="line"/>
    </contour>
    <contour>
      <point x="438" y="382" type="curve" smooth="yes"/>
      <point x="413" y="382"/>
      <point x="401" y="400"/>
      <point x="401" y="432" type="curve" smooth="yes"/>
      <point x="401" y="465"/>
      <point x="412" y="483"/>
      <point x="438" y="483" type="curve" smooth="yes"/>
      <point x="463" y="483"/>
      <point x="474" y="465"/>
      <point x="474" y="432" type="curve" smooth="yes"/>
      <point x="474" y="400"/>
      <point x="462" y="382"/>
    </contour>
    <component base="bonemiddle" xOffset="24" yOffset="-33"/>
  </outline>
</glyph>
<glyph name="aGlottal.eth" format="2">
  <advance width="500"/>
  <unicode hex="12A0"/>
  <note>
uni12A0
</note>
  <anchor x="252" y="714" name="top"/>
  <outline>
    <contour>
      <point x="20" y="0" type="line"/>
      <point x="185" y="0" type="line"/>
      <point x="384" y="530" type="line"/>
      <point x="286" y="530" type="line" smooth="yes"/>
      <point x="222" y="530"/>
      <point x="200" y="559"/>
      <point x="200" y="633" type="curve" smooth="yes"/>
      <point x="200" y="714" type="line"/>
      <point x="40" y="714" type="line"/>
      <point x="40" y="603" type="line" smooth="yes"/>
      <point x="40" y="500"/>
      <point x="87" y="434"/>
      <point x="180" y="417" type="curve"/>
    </contour>
    <contour>
      <point x="325" y="0" type="curve"/>
      <point x="485" y="0" type="line"/>
      <point x="485" y="226"/>
      <point x="441" y="341"/>
      <point x="314" y="388" type="curve"/>
      <point x="261" y="270" type="line"/>
      <point x="311" y="237"/>
      <point x="325" y="176"/>
    </contour>
  </outline>
</glyph>
<glyph name="aaGlottal.eth" format="2">
  <advance width="479"/>
  <unicode hex="12A3"/>
  <note>
uni12A3
</note>
  <anchor x="242" y="714" name="top"/>
  <outline>
    <contour>
      <point x="55" y="146" type="line"/>
      <point x="220" y="146" type="line"/>
      <point x="364" y="530" type="line"/>
      <point x="265" y="530" type="line" smooth="yes"/>
      <point x="201" y="530"/>
      <point x="180" y="559"/>
      <point x="180" y="633" type="curve" smooth="yes"/>
      <point x="180" y="714" type="line"/>
      <point x="20" y="714" type="line"/>
      <point x="20" y="603" type="line" smooth="yes"/>
      <point x="20" y="500"/>
      <point x="71" y="434"/>
      <point x="163" y="417" type="curve"/>
    </contour>
    <contour>
      <point x="304" y="0" type="curve"/>
      <point x="464" y="0" type="line"/>
      <point x="464" y="226"/>
      <point x="420" y="341"/>
      <point x="294" y="388" type="curve"/>
      <point x="241" y="270" type="line"/>
      <point x="291" y="237"/>
      <point x="304" y="176"/>
    </contour>
  </outline>
</glyph>
<glyph name="eeGlottal.eth" format="2">
  <advance width="713"/>
  <unicode hex="12A4"/>
  <note>
uni12A4
</note>
  <anchor x="363" y="714" name="top"/>
  <outline>
    <contour>
      <point x="327" y="0" type="line"/>
      <point x="527" y="0" type="line" smooth="yes"/>
      <point x="638" y="0"/>
      <point x="706" y="68"/>
      <point x="706" y="169" type="curve" smooth="yes"/>
      <point x="706" y="271"/>
      <point x="650" y="326"/>
      <point x="517" y="326" type="curve" smooth="yes"/>
      <point x="327" y="326" type="line"/>
    </contour>
    <contour>
      <point x="457" y="107" type="line"/>
      <point x="447" y="220" type="line"/>
      <point x="509" y="220" type="line" smooth="yes"/>
      <point x="541" y="220"/>
      <point x="559" y="199"/>
      <point x="559" y="166" type="curve" smooth="yes"/>
      <point x="559" y="130"/>
      <point x="545" y="107"/>
      <point x="509" y="107" type="curve" smooth="yes"/>
    </contour>
    <component base="aGlottal.eth"/>
  </outline>
</glyph>
<glyph name="eGlottal.eth" format="2">
  <advance width="574"/>
  <unicode hex="12A5"/>
  <note>
uni12A5
</note>
  <anchor x="289" y="715" name="top"/>
  <outline>
    <contour>
      <point x="110" y="0" type="line"/>
      <point x="275" y="0" type="line"/>
      <point x="359" y="248" type="line"/>
      <point x="389" y="217"/>
      <point x="399" y="157"/>
      <point x="399" y="0" type="curve"/>
      <point x="559" y="0" type="line"/>
      <point x="559" y="219"/>
      <point x="525" y="318"/>
      <point x="414" y="369" type="curve"/>
      <point x="469" y="503" type="line"/>
      <point x="337" y="503" type="line"/>
      <point x="367" y="596" type="line"/>
      <point x="254" y="596" type="line" smooth="yes"/>
      <point x="192" y="596"/>
      <point x="175" y="629"/>
      <point x="175" y="689" type="curve" smooth="yes"/>
      <point x="175" y="715" type="line"/>
      <point x="20" y="715" type="line"/>
      <point x="20" y="681" type="line" smooth="yes"/>
      <point x="20" y="568"/>
      <point x="78" y="508"/>
      <point x="163" y="494" type="curve"/>
      <point x="121" y="378" type="line"/>
      <point x="248" y="378" type="line"/>
    </contour>
  </outline>
</glyph>
<glyph name="oGlottal.eth" format="2">
  <advance width="487"/>
  <unicode hex="12A6"/>
  <note>
uni12A6
</note>
  <anchor x="246" y="714" name="top"/>
  <outline>
    <contour>
      <point x="20" y="0" type="line"/>
      <point x="185" y="0" type="line"/>
      <point x="378" y="530" type="line"/>
      <point x="280" y="530" type="line" smooth="yes"/>
      <point x="216" y="530"/>
      <point x="194" y="559"/>
      <point x="194" y="633" type="curve" smooth="yes"/>
      <point x="194" y="714" type="line"/>
      <point x="34" y="714" type="line"/>
      <point x="34" y="603" type="line" smooth="yes"/>
      <point x="34" y="500"/>
      <point x="79" y="434"/>
      <point x="172" y="417" type="curve"/>
    </contour>
    <contour>
      <point x="312" y="138" type="curve"/>
      <point x="472" y="138" type="line"/>
      <point x="455" y="275"/>
      <point x="404" y="351"/>
      <point x="308" y="388" type="curve"/>
      <point x="255" y="270" type="line"/>
      <point x="287" y="248"/>
      <point x="305" y="212"/>
    </contour>
  </outline>
</glyph>
<glyph name="waGlottal.eth" format="2">
  <advance width="611"/>
  <unicode hex="12A7"/>
  <note>
uni12A7
</note>
  <anchor x="298" y="780" name="top"/>
  <outline>
    <contour>
      <point x="109" y="0" type="line"/>
      <point x="274" y="0" type="line"/>
      <point x="370" y="262" type="line"/>
      <point x="406" y="242"/>
      <point x="435" y="187"/>
      <point x="435" y="0" type="curve"/>
      <point x="596" y="0" type="line"/>
      <point x="596" y="232"/>
      <point x="539" y="334"/>
      <point x="417" y="388" type="curve"/>
      <point x="454" y="488" type="line"/>
      <point x="320" y="488" type="line"/>
      <point x="320" y="632" type="line"/>
      <point x="165" y="632" type="line"/>
      <point x="165" y="376" type="line"/>
      <point x="254" y="376" type="line"/>
    </contour>
    <component base="bone" yOffset="-59"/>
  </outline>
</glyph>
<glyph name="ka.eth" format="2">
  <advance width="611"/>
  <unicode hex="12A8"/>
  <note>
uni12A8
</note>
  <anchor x="282" y="760" name="top"/>
  <outline>
    <contour>
      <point x="152" y="447" type="curve"/>
      <point x="248" y="563" type="line"/>
      <point x="214" y="580"/>
      <point x="196" y="618"/>
      <point x="196" y="681" type="curve" smooth="yes"/>
      <point x="196" y="760" type="line"/>
      <point x="20" y="760" type="line"/>
      <point x="20" y="679" type="line" smooth="yes"/>
      <point x="20" y="561"/>
      <point x="61" y="480"/>
    </contour>
    <component base="shortnarch" xOffset="54"/>
  </outline>
</glyph>
<glyph name="kaa.eth" format="2">
  <advance width="577"/>
  <unicode hex="12AB"/>
  <note>
uni12AB
</note>
  <anchor x="265" y="760" name="top"/>
  <outline>
    <contour>
      <point x="123" y="464" type="curve"/>
      <point x="212" y="563" type="line"/>
      <point x="190" y="580"/>
      <point x="180" y="614"/>
      <point x="180" y="669" type="curve" smooth="yes"/>
      <point x="180" y="760" type="line"/>
      <point x="20" y="760" type="line"/>
      <point x="20" y="669" type="line" smooth="yes"/>
      <point x="20" y="555"/>
      <point x="58" y="493"/>
    </contour>
    <component base="baashort" xOffset="35"/>
  </outline>
</glyph>
<glyph name="ke.eth" format="2">
  <advance width="580"/>
  <unicode hex="12AD"/>
  <note>
uni12AD
</note>
  <anchor x="266" y="760" name="top"/>
  <outline>
    <contour>
      <point x="353" y="0" type="line"/>
      <point x="513" y="0" type="line"/>
      <point x="513" y="358" type="line" smooth="yes"/>
      <point x="513" y="510"/>
      <point x="457" y="598"/>
      <point x="304" y="598" type="curve" smooth="yes"/>
      <point x="156" y="598"/>
      <point x="90" y="501"/>
      <point x="90" y="360" type="curve" smooth="yes"/>
      <point x="90" y="323" type="line"/>
      <point x="250" y="323" type="line"/>
      <point x="250" y="347" type="line" smooth="yes"/>
      <point x="250" y="418"/>
      <point x="261" y="463"/>
      <point x="302" y="463" type="curve" smooth="yes"/>
      <point x="345" y="463"/>
      <point x="353" y="423"/>
      <point x="353" y="348" type="curve" smooth="yes"/>
    </contour>
    <contour>
      <point x="97" y="0" type="line"/>
      <point x="257" y="0" type="line"/>
      <point x="257" y="137" type="line" smooth="yes"/>
      <point x="257" y="196"/>
      <point x="274" y="216"/>
      <point x="303" y="216" type="curve"/>
      <point x="303" y="352" type="line"/>
      <point x="143" y="352"/>
      <point x="97" y="271"/>
      <point x="97" y="146" type="curve" smooth="yes"/>
    </contour>
    <contour>
      <point x="123" y="464" type="curve"/>
      <point x="212" y="563" type="line"/>
      <point x="190" y="580"/>
      <point x="180" y="614"/>
      <point x="180" y="669" type="curve" smooth="yes"/>
      <point x="180" y="760" type="line"/>
      <point x="20" y="760" type="line"/>
      <point x="20" y="669" type="line" smooth="yes"/>
      <point x="20" y="555"/>
      <point x="58" y="493"/>
    </contour>
  </outline>
</glyph>
<glyph name="ko.eth" format="2">
  <advance width="575"/>
  <unicode hex="12AE"/>
  <note>
uni12AE
</note>
  <anchor x="272" y="760" name="top"/>
  <outline>
    <contour>
      <point x="123" y="464" type="curve"/>
      <point x="212" y="563" type="line"/>
      <point x="190" y="580"/>
      <point x="180" y="614"/>
      <point x="180" y="669" type="curve" smooth="yes"/>
      <point x="180" y="760" type="line"/>
      <point x="20" y="760" type="line"/>
      <point x="20" y="669" type="line" smooth="yes"/>
      <point x="20" y="555"/>
      <point x="58" y="493"/>
    </contour>
    <component base="baashort" xScale="-1" xOffset="576"/>
  </outline>
</glyph>
<glyph name="kwi.eth" format="2">
  <advance width="898"/>
  <unicode hex="12B2"/>
  <note>
uni12B2
</note>
  <anchor x="456" y="760" name="top"/>
  <outline>
    <contour>
      <point x="865" y="96" type="curve" smooth="yes"/>
      <point x="898" y="96" type="line"/>
      <point x="854" y="280" type="line"/>
      <point x="688" y="280" type="line"/>
      <point x="688" y="174" type="line"/>
      <point x="768" y="174" type="line"/>
      <point x="787" y="122"/>
      <point x="808" y="96"/>
    </contour>
    <contour>
      <point x="476" y="266" type="line"/>
      <point x="630" y="266" type="line"/>
      <point x="630" y="372" type="line"/>
      <point x="476" y="372" type="line"/>
    </contour>
    <contour>
      <point x="596" y="174" type="line"/>
      <point x="735" y="174" type="line"/>
      <point x="735" y="472" type="line"/>
      <point x="596" y="472" type="line"/>
    </contour>
    <component base="ka.eth"/>
  </outline>
</glyph>
<glyph name="kwaa.eth" format="2">
  <advance width="656"/>
  <unicode hex="12B3"/>
  <note>
uni12B3
</note>
  <anchor x="328" y="760" name="top"/>
  <outline>
    <contour>
      <point x="346" y="143" type="line"/>
      <point x="506" y="143" type="line"/>
      <point x="506" y="358" type="line" smooth="yes"/>
      <point x="506" y="510"/>
      <point x="435" y="598"/>
      <point x="297" y="598" type="curve" smooth="yes"/>
      <point x="149" y="598"/>
      <point x="83" y="501"/>
      <point x="83" y="360" type="curve" smooth="yes"/>
      <point x="83" y="297" type="line"/>
      <point x="243" y="297" type="line"/>
      <point x="243" y="347" type="line" smooth="yes"/>
      <point x="243" y="418"/>
      <point x="250" y="463"/>
      <point x="295" y="463" type="curve" smooth="yes"/>
      <point x="340" y="463"/>
      <point x="346" y="423"/>
      <point x="346" y="348" type="curve" smooth="yes"/>
    </contour>
    <contour>
      <point x="282" y="104" type="line"/>
      <point x="552" y="104" type="line"/>
      <point x="552" y="210" type="line"/>
      <point x="282" y="210" type="line"/>
    </contour>
    <contour>
      <point x="123" y="464" type="curve"/>
      <point x="212" y="563" type="line"/>
      <point x="190" y="580"/>
      <point x="180" y="614"/>
      <point x="180" y="669" type="curve" smooth="yes"/>
      <point x="180" y="760" type="line"/>
      <point x="20" y="760" type="line"/>
      <point x="20" y="669" type="line" smooth="yes"/>
      <point x="20" y="555"/>
      <point x="58" y="493"/>
    </contour>
    <contour>
      <point x="486" y="0" type="line"/>
      <point x="636" y="0" type="line"/>
      <point x="636" y="210" type="line"/>
      <point x="486" y="210" type="line"/>
    </contour>
    <component base="leftsingleflag" xOffset="83" yOffset="-204"/>
  </outline>
</glyph>
<glyph name="kwee.eth" format="2">
  <advance width="736"/>
  <unicode hex="12B4"/>
  <note>
uni12B4
</note>
  <anchor x="374" y="760" name="top"/>
  <outline>
    <contour>
      <point x="312" y="0" type="line"/>
      <point x="454" y="0" type="line"/>
      <point x="454" y="106" type="line"/>
      <point x="312" y="106" type="line"/>
    </contour>
    <component base="kaa.eth"/>
    <component base="baselinebowl" xOffset="340"/>
    <component base="leftsingleflag" xOffset="115" yOffset="-308"/>
  </outline>
</glyph>
<glyph name="kwe.eth" format="2">
  <advance width="857"/>
  <unicode hex="12B5"/>
  <note>
uni12B5
</note>
  <anchor x="438" y="760" name="top"/>
  <outline>
    <contour>
      <point x="587" y="300" type="line"/>
      <point x="722" y="300" type="line"/>
      <point x="722" y="585" type="line"/>
      <point x="587" y="585" type="line"/>
    </contour>
    <contour>
      <point x="467" y="300" type="line"/>
      <point x="656" y="300" type="line"/>
      <point x="656" y="406" type="line"/>
      <point x="467" y="406" type="line"/>
    </contour>
    <component base="ka.eth"/>
    <component base="rightsingleflag" xOffset="647" yOffset="-8"/>
  </outline>
</glyph>
<glyph name="kxa.eth" format="2">
  <advance width="735"/>
  <unicode hex="12B8"/>
  <note>
uni12B8
</note>
  <anchor x="334" y="839" name="top"/>
  <outline>
    <contour>
      <point x="245" y="0" type="line"/>
      <point x="405" y="0" type="line"/>
      <point x="405" y="303" type="line" smooth="yes"/>
      <point x="405" y="374"/>
      <point x="414" y="416"/>
      <point x="457" y="416" type="curve" smooth="yes"/>
      <point x="499" y="416"/>
      <point x="508" y="379"/>
      <point x="508" y="304" type="curve" smooth="yes"/>
      <point x="508" y="0" type="line"/>
      <point x="668" y="0" type="line"/>
      <point x="668" y="314" type="line" smooth="yes"/>
      <point x="668" y="466"/>
      <point x="597" y="554"/>
      <point x="459" y="554" type="curve" smooth="yes"/>
      <point x="311" y="554"/>
      <point x="245" y="457"/>
      <point x="245" y="316" type="curve" smooth="yes"/>
    </contour>
    <contour>
      <point x="288" y="403" type="curve"/>
      <point x="384" y="519" type="line"/>
      <point x="343" y="536"/>
      <point x="322" y="574"/>
      <point x="322" y="637" type="curve" smooth="yes"/>
      <point x="322" y="716" type="line"/>
      <point x="162" y="716" type="line"/>
      <point x="162" y="635" type="line" smooth="yes"/>
      <point x="162" y="517"/>
      <point x="201" y="436"/>
    </contour>
    <component base="bone"/>
  </outline>
</glyph>
<glyph name="kxaa.eth" format="2">
  <advance width="733"/>
  <unicode hex="12BB"/>
  <note>
uni12BB
</note>
  <anchor x="333" y="839" name="top"/>
  <outline>
    <contour>
      <point x="506" y="0" type="line"/>
      <point x="666" y="0" type="line"/>
      <point x="666" y="314" type="line" smooth="yes"/>
      <point x="666" y="466"/>
      <point x="595" y="554"/>
      <point x="457" y="554" type="curve" smooth="yes"/>
      <point x="309" y="554"/>
      <point x="243" y="457"/>
      <point x="243" y="316" type="curve" smooth="yes"/>
      <point x="243" y="240" type="line"/>
      <point x="403" y="240" type="line"/>
      <point x="403" y="303" type="line" smooth="yes"/>
      <point x="403" y="374"/>
      <point x="412" y="416"/>
      <point x="455" y="416" type="curve" smooth="yes"/>
      <point x="497" y="416"/>
      <point x="506" y="379"/>
      <point x="506" y="304" type="curve" smooth="yes"/>
    </contour>
    <contour>
      <point x="286" y="403" type="curve"/>
      <point x="382" y="519" type="line"/>
      <point x="348" y="536"/>
      <point x="330" y="574"/>
      <point x="330" y="637" type="curve" smooth="yes"/>
      <point x="330" y="716" type="line"/>
      <point x="154" y="716" type="line"/>
      <point x="154" y="635" type="line" smooth="yes"/>
      <point x="154" y="517"/>
      <point x="195" y="436"/>
    </contour>
    <component base="bone"/>
  </outline>
</glyph>
<glyph name="kxe.eth" format="2">
  <advance width="724"/>
  <unicode hex="12BD"/>
  <note>
uni12BD
</note>
  <anchor x="328" y="839" name="top"/>
  <outline>
    <contour>
      <point x="497" y="0" type="line"/>
      <point x="657" y="0" type="line"/>
      <point x="657" y="298" type="line" smooth="yes"/>
      <point x="657" y="450"/>
      <point x="586" y="538"/>
      <point x="448" y="538" type="curve" smooth="yes"/>
      <point x="300" y="538"/>
      <point x="234" y="441"/>
      <point x="234" y="300" type="curve" smooth="yes"/>
      <point x="234" y="263" type="line"/>
      <point x="394" y="263" type="line"/>
      <point x="394" y="287" type="line" smooth="yes"/>
      <point x="394" y="358"/>
      <point x="405" y="403"/>
      <point x="446" y="403" type="curve" smooth="yes"/>
      <point x="489" y="403"/>
      <point x="497" y="363"/>
      <point x="497" y="288" type="curve" smooth="yes"/>
    </contour>
    <contour>
      <point x="241" y="0" type="line"/>
      <point x="401" y="0" type="line"/>
      <point x="401" y="77" type="line" smooth="yes"/>
      <point x="401" y="136"/>
      <point x="418" y="156"/>
      <point x="447" y="156" type="curve"/>
      <point x="447" y="292" type="line"/>
      <point x="287" y="292"/>
      <point x="241" y="211"/>
      <point x="241" y="86" type="curve" smooth="yes"/>
    </contour>
    <contour>
      <point x="267" y="404" type="curve"/>
      <point x="356" y="503" type="line"/>
      <point x="334" y="520"/>
      <point x="324" y="554"/>
      <point x="324" y="609" type="curve" smooth="yes"/>
      <point x="324" y="700" type="line"/>
      <point x="164" y="700" type="line"/>
      <point x="164" y="609" type="line" smooth="yes"/>
      <point x="164" y="495"/>
      <point x="202" y="433"/>
    </contour>
    <component base="bone"/>
  </outline>
</glyph>
<glyph name="kxo.eth" format="2">
  <advance width="720"/>
  <unicode hex="12BE"/>
  <note>
uni12BE
</note>
  <anchor x="334" y="839" name="top"/>
  <outline>
    <contour>
      <point x="245" y="0" type="line"/>
      <point x="405" y="0" type="line"/>
      <point x="405" y="278" type="line" smooth="yes"/>
      <point x="405" y="353"/>
      <point x="411" y="393"/>
      <point x="456" y="393" type="curve" smooth="yes"/>
      <point x="501" y="393"/>
      <point x="508" y="348"/>
      <point x="508" y="277" type="curve" smooth="yes"/>
      <point x="508" y="167" type="line"/>
      <point x="668" y="167" type="line"/>
      <point x="668" y="290" type="line" smooth="yes"/>
      <point x="668" y="431"/>
      <point x="602" y="528"/>
      <point x="454" y="528" type="curve" smooth="yes"/>
      <point x="316" y="528"/>
      <point x="245" y="440"/>
      <point x="245" y="288" type="curve" smooth="yes"/>
    </contour>
    <contour>
      <point x="263" y="394" type="curve"/>
      <point x="352" y="493" type="line"/>
      <point x="330" y="510"/>
      <point x="320" y="544"/>
      <point x="320" y="599" type="curve" smooth="yes"/>
      <point x="320" y="760" type="line"/>
      <point x="160" y="760" type="line"/>
      <point x="160" y="599" type="line" smooth="yes"/>
      <point x="160" y="485"/>
      <point x="198" y="423"/>
    </contour>
    <component base="bone"/>
  </outline>
</glyph>
<glyph name="kxwi.eth" format="2">
  <advance width="1050"/>
  <unicode hex="12C2"/>
  <note>
uni12C2
</note>
  <anchor x="525" y="839" name="top"/>
  <outline>
    <contour>
      <point x="1017" y="73" type="curve" smooth="yes"/>
      <point x="1050" y="73" type="line"/>
      <point x="1006" y="257" type="line"/>
      <point x="840" y="257" type="line"/>
      <point x="840" y="151" type="line"/>
      <point x="920" y="151" type="line"/>
      <point x="939" y="99"/>
      <point x="960" y="73"/>
    </contour>
    <contour>
      <point x="633" y="243" type="line"/>
      <point x="752" y="243" type="line"/>
      <point x="752" y="349" type="line"/>
      <point x="633" y="349" type="line"/>
    </contour>
    <contour>
      <point x="748" y="151" type="line"/>
      <point x="887" y="151" type="line"/>
      <point x="887" y="449" type="line"/>
      <point x="748" y="449" type="line"/>
    </contour>
    <component base="kxa.eth"/>
  </outline>
</glyph>
<glyph name="kxwaa.eth" format="2">
  <advance width="802"/>
  <unicode hex="12C3"/>
  <note>
uni12C3
</note>
  <anchor x="401" y="851" name="top"/>
  <outline>
    <contour>
      <point x="498" y="0" type="line"/>
      <point x="658" y="0" type="line"/>
      <point x="658" y="314" type="line" smooth="yes"/>
      <point x="658" y="466"/>
      <point x="587" y="554"/>
      <point x="449" y="554" type="curve" smooth="yes"/>
      <point x="301" y="554"/>
      <point x="235" y="457"/>
      <point x="235" y="316" type="curve" smooth="yes"/>
      <point x="235" y="240" type="line"/>
      <point x="395" y="240" type="line"/>
      <point x="395" y="303" type="line" smooth="yes"/>
      <point x="395" y="374"/>
      <point x="404" y="416"/>
      <point x="447" y="416" type="curve" smooth="yes"/>
      <point x="489" y="416"/>
      <point x="498" y="379"/>
      <point x="498" y="304" type="curve" smooth="yes"/>
    </contour>
    <contour>
      <point x="278" y="403" type="curve"/>
      <point x="374" y="519" type="line"/>
      <point x="340" y="536"/>
      <point x="322" y="574"/>
      <point x="322" y="637" type="curve" smooth="yes"/>
      <point x="322" y="716" type="line"/>
      <point x="146" y="716" type="line"/>
      <point x="146" y="635" type="line" smooth="yes"/>
      <point x="146" y="517"/>
      <point x="187" y="436"/>
    </contour>
    <component base="footright" xOffset="259"/>
    <component base="footshort" xScale="-1" yScale="-1" xOffset="461" yOffset="773"/>
  </outline>
</glyph>
<glyph name="kxwee.eth" format="2">
  <advance width="892"/>
  <unicode hex="12C4"/>
  <note>
uni12C4
</note>
  <anchor x="442" y="839" name="top"/>
  <outline>
    <contour>
      <point x="436" y="0" type="line"/>
      <point x="657" y="0" type="line"/>
      <point x="657" y="106" type="line"/>
      <point x="436" y="106" type="line"/>
    </contour>
    <component base="baselinebowl" xOffset="496"/>
    <component base="leftsingleflag" xOffset="244" yOffset="-308"/>
    <component base="kxaa.eth"/>
  </outline>
</glyph>
<glyph name="kxwe.eth" format="2">
  <advance width="967"/>
  <unicode hex="12C5"/>
  <note>
uni12C5
</note>
  <anchor x="483" y="839" name="top"/>
  <outline>
    <contour>
      <point x="697" y="289" type="line"/>
      <point x="832" y="289" type="line"/>
      <point x="832" y="544" type="line"/>
      <point x="697" y="544" type="line"/>
    </contour>
    <contour>
      <point x="577" y="289" type="line"/>
      <point x="766" y="289" type="line"/>
      <point x="766" y="395" type="line"/>
      <point x="577" y="395" type="line"/>
    </contour>
    <component base="kxa.eth"/>
    <component base="rightsingleflag" xOffset="757" yOffset="-19"/>
  </outline>
</glyph>
<glyph name="wa.eth" format="2">
  <advance width="708"/>
  <unicode hex="12C8"/>
  <note>
uni12C8
</note>
  <anchor x="354" y="714" name="top"/>
  <outline>
    <contour>
      <point x="244" y="-10" type="curve" smooth="yes"/>
      <point x="316" y="-10"/>
      <point x="366" y="28"/>
      <point x="396" y="73" type="curve"/>
      <point x="455" y="73" type="line" smooth="yes"/>
      <point x="591" y="73"/>
      <point x="672" y="185"/>
      <point x="672" y="404" type="curve" smooth="yes"/>
      <point x="672" y="611"/>
      <point x="595" y="714"/>
      <point x="458" y="714" type="curve" smooth="yes"/>
      <point x="279" y="714" type="line" smooth="yes"/>
      <point x="122" y="714"/>
      <point x="36" y="558"/>
      <point x="36" y="318" type="curve" smooth="yes"/>
      <point x="36" y="102"/>
      <point x="100" y="-10"/>
    </contour>
    <contour>
      <point x="248" y="113" type="curve" smooth="yes"/>
      <point x="204" y="113"/>
      <point x="191" y="177"/>
      <point x="191" y="325" type="curve" smooth="yes"/>
      <point x="191" y="480"/>
      <point x="216" y="593"/>
      <point x="272" y="593" type="curve" smooth="yes"/>
      <point x="282" y="593" type="line"/>
      <point x="282" y="142" type="line"/>
      <point x="277" y="127"/>
      <point x="265" y="113"/>
    </contour>
    <contour>
      <point x="442" y="195" type="line"/>
      <point x="442" y="593" type="line"/>
      <point x="455" y="593" type="line" smooth="yes"/>
      <point x="511" y="593"/>
      <point x="516" y="505"/>
      <point x="516" y="402" type="curve" smooth="yes"/>
      <point x="516" y="285"/>
      <point x="506" y="195"/>
      <point x="455" y="195" type="curve" smooth="yes"/>
    </contour>
  </outline>
</glyph>
<glyph name="wu.eth" format="2">
  <advance width="844"/>
  <unicode hex="12C9"/>
  <note>
uni12C9
</note>
  <anchor x="440" y="714" name="top"/>
  <outline>
    <contour>
      <point x="416" y="73" type="line"/>
      <point x="747" y="73" type="line"/>
      <point x="747" y="179" type="line"/>
      <point x="416" y="179" type="line"/>
    </contour>
    <component base="wa.eth"/>
    <component base="rightdoubleflag" xOffset="636" yOffset="73"/>
  </outline>
</glyph>
<glyph name="waa.eth" format="2">
  <advance width="666"/>
  <unicode hex="12CB"/>
  <note>
uni12CB
</note>
  <anchor x="333" y="714" name="top"/>
  <outline>
    <contour>
      <point x="207" y="249" type="curve" smooth="yes"/>
      <point x="289" y="249"/>
      <point x="357" y="285"/>
      <point x="418" y="341" type="curve"/>
      <point x="479" y="341" type="line" smooth="yes"/>
      <point x="595" y="341"/>
      <point x="644" y="429"/>
      <point x="644" y="535" type="curve" smooth="yes"/>
      <point x="644" y="638"/>
      <point x="586" y="714"/>
      <point x="456" y="714" type="curve" smooth="yes"/>
      <point x="272" y="714" type="line"/>
      <point x="115" y="714"/>
      <point x="22" y="616"/>
      <point x="22" y="455" type="curve" smooth="yes"/>
      <point x="22" y="322"/>
      <point x="93" y="249"/>
    </contour>
    <contour>
      <point x="268" y="0" type="line"/>
      <point x="428" y="0" type="line"/>
      <point x="428" y="342" type="line"/>
      <point x="268" y="342" type="line"/>
    </contour>
    <contour>
      <point x="233" y="377" type="curve" smooth="yes"/>
      <point x="202" y="377"/>
      <point x="182" y="402"/>
      <point x="182" y="475" type="curve" smooth="yes"/>
      <point x="182" y="550"/>
      <point x="211" y="593"/>
      <point x="263" y="593" type="curve" smooth="yes"/>
      <point x="268" y="593" type="line"/>
      <point x="268" y="396" type="line"/>
      <point x="259" y="383"/>
      <point x="250" y="377"/>
    </contour>
    <contour>
      <point x="436" y="462" type="line"/>
      <point x="436" y="593" type="line"/>
      <point x="451" y="593" type="line" smooth="yes"/>
      <point x="481" y="593"/>
      <point x="499" y="571"/>
      <point x="499" y="534" type="curve" smooth="yes"/>
      <point x="499" y="486"/>
      <point x="483" y="462"/>
      <point x="451" y="462" type="curve" smooth="yes"/>
    </contour>
  </outline>
</glyph>
<glyph name="wo.eth" format="2">
  <advance width="666"/>
  <unicode hex="12CE"/>
  <note>
uni12CB
</note>
  <anchor x="333" y="714" name="top"/>
  <outline>
    <contour>
      <point x="199" y="249" type="curve" smooth="yes"/>
      <point x="287" y="249"/>
      <point x="325" y="276"/>
      <point x="361" y="341" type="curve"/>
      <point x="479" y="341" type="line" smooth="yes"/>
      <point x="596" y="341"/>
      <point x="644" y="429"/>
      <point x="644" y="535" type="curve" smooth="yes"/>
      <point x="644" y="638"/>
      <point x="586" y="714"/>
      <point x="448" y="714" type="curve" smooth="yes"/>
      <point x="272" y="714" type="line" smooth="yes"/>
      <point x="115" y="714"/>
      <point x="22" y="616"/>
      <point x="22" y="455" type="curve" smooth="yes"/>
      <point x="22" y="322"/>
      <point x="97" y="249"/>
    </contour>
    <contour>
      <point x="122" y="0" type="line"/>
      <point x="287" y="0" type="line"/>
      <point x="441" y="368" type="line"/>
      <point x="281" y="368" type="line"/>
    </contour>
    <contour>
      <point x="231" y="377" type="curve" smooth="yes"/>
      <point x="205" y="377"/>
      <point x="182" y="402"/>
      <point x="182" y="468" type="curve" smooth="yes"/>
      <point x="182" y="555"/>
      <point x="213" y="593"/>
      <point x="263" y="593" type="curve" smooth="yes"/>
      <point x="268" y="593" type="line"/>
      <point x="268" y="396" type="line"/>
      <point x="258" y="382"/>
      <point x="251" y="377"/>
    </contour>
    <contour>
      <point x="436" y="462" type="line"/>
      <point x="436" y="593" type="line"/>
      <point x="451" y="593" type="line" smooth="yes"/>
      <point x="481" y="593"/>
      <point x="499" y="571"/>
      <point x="499" y="534" type="curve" smooth="yes"/>
      <point x="499" y="486"/>
      <point x="483" y="462"/>
      <point x="451" y="462" type="curve" smooth="yes"/>
    </contour>
  </outline>
</glyph>
<glyph name="aPhr.eth" format="2">
  <advance width="479"/>
  <unicode hex="12D0"/>
  <note>
uni12D0
</note>
  <anchor x="239" y="724" name="top"/>
  <outline>
    <contour>
      <point x="238" y="-10" type="curve" smooth="yes"/>
      <point x="393" y="-10"/>
      <point x="443" y="104"/>
      <point x="443" y="253" type="curve" smooth="yes"/>
      <point x="443" y="461" type="line" smooth="yes"/>
      <point x="443" y="609"/>
      <point x="393" y="724"/>
      <point x="238" y="724" type="curve" smooth="yes"/>
      <point x="92" y="724"/>
      <point x="36" y="618"/>
      <point x="36" y="459" type="curve" smooth="yes"/>
      <point x="36" y="255" type="line" smooth="yes"/>
      <point x="36" y="95"/>
      <point x="91" y="-10"/>
    </contour>
    <contour>
      <point x="240" y="123" type="curve" smooth="yes"/>
      <point x="202" y="123"/>
      <point x="196" y="170"/>
      <point x="196" y="250" type="curve" smooth="yes"/>
      <point x="196" y="463" type="line" smooth="yes"/>
      <point x="196" y="543"/>
      <point x="203" y="590"/>
      <point x="240" y="590" type="curve" smooth="yes"/>
      <point x="281" y="590"/>
      <point x="284" y="538"/>
      <point x="284" y="462" type="curve" smooth="yes"/>
      <point x="284" y="251" type="line" smooth="yes"/>
      <point x="284" y="176"/>
      <point x="281" y="123"/>
    </contour>
  </outline>
</glyph>
<glyph name="aaPhr.eth" format="2">
  <advance width="549"/>
  <unicode hex="12D3"/>
  <note>
uni12D3
</note>
  <anchor x="285" y="725" name="top"/>
  <outline>
    <contour>
      <point x="230" y="0" type="line"/>
      <point x="385" y="0" type="line"/>
      <point x="549" y="387" type="line"/>
      <point x="422" y="387" type="line"/>
      <point x="422" y="402"/>
      <point x="422" y="423"/>
      <point x="422" y="450" type="curve" smooth="yes"/>
      <point x="422" y="523" type="line" smooth="yes"/>
      <point x="422" y="658"/>
      <point x="351" y="725"/>
      <point x="221" y="725" type="curve" smooth="yes"/>
      <point x="91" y="725"/>
      <point x="22" y="659"/>
      <point x="22" y="523" type="curve" smooth="yes"/>
      <point x="22" y="451" type="line" smooth="yes"/>
      <point x="22" y="315"/>
      <point x="90" y="248"/>
      <point x="223" y="248" type="curve" smooth="yes"/>
      <point x="281" y="248"/>
      <point x="316" y="261"/>
      <point x="340" y="280" type="curve"/>
      <point x="358" y="280" type="line"/>
    </contour>
    <contour>
      <point x="223" y="373" type="curve" smooth="yes"/>
      <point x="192" y="373"/>
      <point x="182" y="401"/>
      <point x="182" y="466" type="curve" smooth="yes"/>
      <point x="182" y="512" type="line" smooth="yes"/>
      <point x="182" y="573"/>
      <point x="191" y="600"/>
      <point x="222" y="600" type="curve" smooth="yes"/>
      <point x="254" y="600"/>
      <point x="262" y="573"/>
      <point x="262" y="512" type="curve" smooth="yes"/>
      <point x="262" y="466" type="line" smooth="yes"/>
      <point x="262" y="400"/>
      <point x="253" y="373"/>
    </contour>
  </outline>
</glyph>
<glyph name="eePhr.eth" format="2">
  <advance width="703"/>
  <unicode hex="12D4"/>
  <note>
uni12D4
</note>
  <anchor x="359" y="725" name="top"/>
  <outline>
    <contour>
      <point x="272" y="0" type="line"/>
      <point x="385" y="0" type="line"/>
      <point x="549" y="387" type="line"/>
      <point x="422" y="387" type="line"/>
      <point x="422" y="402"/>
      <point x="422" y="423"/>
      <point x="422" y="450" type="curve" smooth="yes"/>
      <point x="422" y="523" type="line" smooth="yes"/>
      <point x="422" y="658"/>
      <point x="351" y="725"/>
      <point x="221" y="725" type="curve" smooth="yes"/>
      <point x="91" y="725"/>
      <point x="22" y="659"/>
      <point x="22" y="523" type="curve" smooth="yes"/>
      <point x="22" y="451" type="line" smooth="yes"/>
      <point x="22" y="315"/>
      <point x="90" y="248"/>
      <point x="223" y="248" type="curve" smooth="yes"/>
      <point x="281" y="248"/>
      <point x="316" y="261"/>
      <point x="340" y="280" type="curve"/>
      <point x="358" y="280" type="line"/>
      <point x="272" y="92" type="line"/>
    </contour>
    <contour>
      <point x="418" y="107" type="line"/>
      <point x="465" y="220" type="line"/>
      <point x="499" y="220" type="line" smooth="yes"/>
      <point x="531" y="220"/>
      <point x="549" y="199"/>
      <point x="549" y="166" type="curve" smooth="yes"/>
      <point x="549" y="130"/>
      <point x="535" y="107"/>
      <point x="492" y="107" type="curve" smooth="yes"/>
    </contour>
    <contour>
      <point x="317" y="0" type="line"/>
      <point x="517" y="0" type="line" smooth="yes"/>
      <point x="628" y="0"/>
      <point x="696" y="68"/>
      <point x="696" y="169" type="curve" smooth="yes"/>
      <point x="696" y="271"/>
      <point x="640" y="326"/>
      <point x="507" y="326" type="curve" smooth="yes"/>
      <point x="461" y="326" type="line"/>
    </contour>
    <contour>
      <point x="223" y="373" type="curve" smooth="yes"/>
      <point x="192" y="373"/>
      <point x="182" y="401"/>
      <point x="182" y="466" type="curve" smooth="yes"/>
      <point x="182" y="512" type="line" smooth="yes"/>
      <point x="182" y="573"/>
      <point x="191" y="600"/>
      <point x="222" y="600" type="curve" smooth="yes"/>
      <point x="254" y="600"/>
      <point x="262" y="573"/>
      <point x="262" y="512" type="curve" smooth="yes"/>
      <point x="262" y="466" type="line" smooth="yes"/>
      <point x="262" y="400"/>
      <point x="253" y="373"/>
    </contour>
  </outline>
</glyph>
<glyph name="ePhr.eth" format="2">
  <advance width="479"/>
  <unicode hex="12D5"/>
  <note>
uni12D5
</note>
  <anchor x="239" y="760" name="top"/>
  <outline>
    <contour>
      <point x="238" y="-10" type="curve" smooth="yes"/>
      <point x="393" y="-10"/>
      <point x="443" y="104"/>
      <point x="443" y="253" type="curve" smooth="yes"/>
      <point x="443" y="371" type="line" smooth="yes"/>
      <point x="443" y="519"/>
      <point x="393" y="634"/>
      <point x="238" y="634" type="curve" smooth="yes"/>
      <point x="92" y="634"/>
      <point x="36" y="528"/>
      <point x="36" y="369" type="curve" smooth="yes"/>
      <point x="36" y="255" type="line" smooth="yes"/>
      <point x="36" y="95"/>
      <point x="91" y="-10"/>
    </contour>
    <contour>
      <point x="240" y="123" type="curve" smooth="yes"/>
      <point x="202" y="123"/>
      <point x="196" y="170"/>
      <point x="196" y="250" type="curve" smooth="yes"/>
      <point x="196" y="373" type="line" smooth="yes"/>
      <point x="196" y="453"/>
      <point x="203" y="500"/>
      <point x="240" y="500" type="curve" smooth="yes"/>
      <point x="281" y="500"/>
      <point x="284" y="448"/>
      <point x="284" y="372" type="curve" smooth="yes"/>
      <point x="284" y="251" type="line" smooth="yes"/>
      <point x="284" y="176"/>
      <point x="281" y="123"/>
    </contour>
    <contour>
      <point x="159" y="616" type="line"/>
      <point x="319" y="616" type="line"/>
      <point x="319" y="760" type="line"/>
      <point x="159" y="760" type="line"/>
    </contour>
  </outline>
</glyph>
<glyph name="oPhr.eth" format="2">
  <advance width="470"/>
  <unicode hex="12D6"/>
  <note>
uni12D6
</note>
  <anchor x="235" y="723" name="top"/>
  <outline>
    <contour>
      <point x="10" y="0" type="curve"/>
      <point x="175" y="0" type="line"/>
      <point x="175" y="131"/>
      <point x="199" y="192"/>
      <point x="299" y="264" type="curve" smooth="yes"/>
      <point x="416" y="348"/>
      <point x="460" y="406"/>
      <point x="460" y="525" type="curve" smooth="yes"/>
      <point x="460" y="645"/>
      <point x="385" y="723"/>
      <point x="252" y="723" type="curve" smooth="yes"/>
      <point x="116" y="723"/>
      <point x="37" y="647"/>
      <point x="37" y="518" type="curve" smooth="yes"/>
      <point x="37" y="430"/>
      <point x="69" y="364"/>
      <point x="123" y="324" type="curve"/>
      <point x="52" y="250"/>
      <point x="10" y="171"/>
    </contour>
    <contour>
      <point x="236" y="396" type="curve"/>
      <point x="213" y="416"/>
      <point x="196" y="457"/>
      <point x="196" y="518" type="curve" smooth="yes"/>
      <point x="196" y="579"/>
      <point x="217" y="608"/>
      <point x="253" y="608" type="curve" smooth="yes"/>
      <point x="289" y="608"/>
      <point x="307" y="580"/>
      <point x="307" y="529" type="curve" smooth="yes"/>
      <point x="307" y="473"/>
      <point x="287" y="428"/>
    </contour>
  </outline>
</glyph>
<glyph name="za.eth" format="2">
  <advance width="535"/>
  <unicode hex="12D8"/>
  <note>
uni12D8
</note>
  <anchor x="267" y="714" name="top"/>
  <outline>
    <contour>
      <point x="60" y="0" type="line"/>
      <point x="220" y="0" type="line"/>
      <point x="220" y="298" type="line"/>
      <point x="315" y="298" type="line"/>
      <point x="315" y="0" type="line"/>
      <point x="475" y="0" type="line"/>
      <point x="475" y="714" type="line"/>
      <point x="315" y="714" type="line"/>
      <point x="315" y="444" type="line"/>
      <point x="220" y="444" type="line"/>
      <point x="220" y="714" type="line"/>
      <point x="60" y="714" type="line"/>
    </contour>
  </outline>
</glyph>
<glyph name="zaa.eth" format="2">
  <advance width="535"/>
  <unicode hex="12DB"/>
  <note>
uni12DB
</note>
  <anchor x="267" y="714" name="top"/>
  <outline>
    <contour>
      <point x="315" y="0" type="line"/>
      <point x="475" y="0" type="line"/>
      <point x="475" y="714" type="line"/>
      <point x="315" y="714" type="line"/>
      <point x="315" y="444" type="line"/>
      <point x="220" y="444" type="line"/>
      <point x="220" y="714" type="line"/>
      <point x="60" y="714" type="line"/>
      <point x="60" y="157" type="line"/>
      <point x="220" y="157" type="line"/>
      <point x="220" y="298" type="line"/>
      <point x="315" y="298" type="line"/>
    </contour>
  </outline>
</glyph>
<glyph name="zha.eth" format="2">
  <advance width="753"/>
  <unicode hex="12E0"/>
  <note>
uni12E0
</note>
  <anchor x="376" y="714" name="top"/>
  <outline>
    <contour>
      <point x="169" y="0" type="line"/>
      <point x="329" y="0" type="line"/>
      <point x="329" y="298" type="line"/>
      <point x="424" y="298" type="line"/>
      <point x="424" y="0" type="line"/>
      <point x="584" y="0" type="line"/>
      <point x="584" y="520" type="line" smooth="yes"/>
      <point x="584" y="573"/>
      <point x="591" y="608"/>
      <point x="616" y="608" type="curve" smooth="yes"/>
      <point x="623" y="608" type="line"/>
      <point x="644" y="549"/>
      <point x="669" y="530"/>
      <point x="725" y="530" type="curve" smooth="yes"/>
      <point x="753" y="530" type="line"/>
      <point x="709" y="714" type="line"/>
      <point x="597" y="714" type="line" smooth="yes"/>
      <point x="488" y="714"/>
      <point x="424" y="655"/>
      <point x="424" y="525" type="curve" smooth="yes"/>
      <point x="424" y="444" type="line"/>
      <point x="329" y="444" type="line"/>
      <point x="329" y="525" type="line" smooth="yes"/>
      <point x="329" y="655"/>
      <point x="265" y="714"/>
      <point x="156" y="714" type="curve" smooth="yes"/>
      <point x="44" y="714" type="line"/>
      <point x="0" y="530" type="line"/>
      <point x="28" y="530" type="line" smooth="yes"/>
      <point x="84" y="530"/>
      <point x="109" y="549"/>
      <point x="130" y="608" type="curve"/>
      <point x="137" y="608" type="line" smooth="yes"/>
      <point x="162" y="608"/>
      <point x="169" y="573"/>
      <point x="169" y="520" type="curve" smooth="yes"/>
    </contour>
  </outline>
</glyph>
<glyph name="zhe.eth" format="2">
  <advance width="781"/>
  <unicode hex="12E5"/>
  <note>
uni12E5
</note>
  <anchor x="390" y="851" name="top"/>
  <outline>
    <contour>
      <point x="197" y="0" type="line"/>
      <point x="357" y="0" type="line"/>
      <point x="357" y="187" type="line"/>
      <point x="452" y="187" type="line"/>
      <point x="452" y="0" type="line"/>
      <point x="612" y="0" type="line"/>
      <point x="612" y="369" type="line" smooth="yes"/>
      <point x="612" y="422"/>
      <point x="619" y="457"/>
      <point x="644" y="457" type="curve" smooth="yes"/>
      <point x="651" y="457" type="line"/>
      <point x="672" y="398"/>
      <point x="697" y="379"/>
      <point x="753" y="379" type="curve" smooth="yes"/>
      <point x="781" y="379" type="line"/>
      <point x="737" y="563" type="line"/>
      <point x="625" y="563" type="line" smooth="yes"/>
      <point x="516" y="563"/>
      <point x="452" y="504"/>
      <point x="452" y="374" type="curve" smooth="yes"/>
      <point x="452" y="333" type="line"/>
      <point x="357" y="333" type="line"/>
      <point x="357" y="374" type="line" smooth="yes"/>
      <point x="357" y="504"/>
      <point x="293" y="563"/>
      <point x="184" y="563" type="curve" smooth="yes"/>
      <point x="72" y="563" type="line"/>
      <point x="28" y="379" type="line"/>
      <point x="56" y="379" type="line" smooth="yes"/>
      <point x="112" y="379"/>
      <point x="137" y="398"/>
      <point x="158" y="457" type="curve"/>
      <point x="165" y="457" type="line" smooth="yes"/>
      <point x="190" y="457"/>
      <point x="197" y="422"/>
      <point x="197" y="369" type="curve" smooth="yes"/>
    </contour>
    <contour>
      <point x="316" y="447" type="line"/>
      <point x="316" y="726" type="line"/>
      <point x="156" y="726" type="line"/>
      <point x="156" y="509" type="line"/>
    </contour>
    <component base="footshort" xScale="-1" yScale="-1" xOffset="461" yOffset="773"/>
  </outline>
</glyph>
<glyph name="ya.eth" format="2">
  <advance width="440"/>
  <unicode hex="12E8"/>
  <note>
uni12E8
</note>
  <anchor x="225" y="725" name="top"/>
  <outline>
    <contour>
      <point x="124" y="0" type="line"/>
      <point x="289" y="0" type="line"/>
      <point x="289" y="133" type="line" smooth="yes"/>
      <point x="289" y="197"/>
      <point x="284" y="258"/>
      <point x="270" y="301" type="curve"/>
      <point x="358" y="336"/>
      <point x="425" y="402"/>
      <point x="425" y="525" type="curve" smooth="yes"/>
      <point x="425" y="650"/>
      <point x="355" y="725"/>
      <point x="228" y="725" type="curve" smooth="yes"/>
      <point x="97" y="725"/>
      <point x="25" y="646"/>
      <point x="25" y="512" type="curve" smooth="yes"/>
      <point x="25" y="440"/>
      <point x="46" y="388"/>
      <point x="71" y="336" type="curve" smooth="yes"/>
      <point x="96" y="283"/>
      <point x="124" y="232"/>
      <point x="124" y="144" type="curve" smooth="yes"/>
    </contour>
    <contour>
      <point x="218" y="409" type="curve"/>
      <point x="200" y="443"/>
      <point x="183" y="476"/>
      <point x="183" y="527" type="curve" smooth="yes"/>
      <point x="183" y="569"/>
      <point x="195" y="601"/>
      <point x="228" y="601" type="curve" smooth="yes"/>
      <point x="261" y="601"/>
      <point x="270" y="568"/>
      <point x="270" y="530" type="curve" smooth="yes"/>
      <point x="270" y="462"/>
      <point x="241" y="426"/>
    </contour>
  </outline>
</glyph>
<glyph name="yi.eth" format="2">
  <advance width="660"/>
  <unicode hex="12EA"/>
  <note>
uni12EA
</note>
  <anchor x="342" y="725" name="top"/>
  <outline>
    <contour>
      <point x="627" y="-61" type="curve" smooth="yes"/>
      <point x="660" y="-61" type="line"/>
      <point x="616" y="123" type="line"/>
      <point x="450" y="123" type="line"/>
      <point x="450" y="17" type="line"/>
      <point x="530" y="17" type="line"/>
      <point x="549" y="-35"/>
      <point x="570" y="-61"/>
    </contour>
    <contour>
      <point x="243" y="109" type="line"/>
      <point x="362" y="109" type="line"/>
      <point x="362" y="215" type="line"/>
      <point x="243" y="215" type="line"/>
    </contour>
    <contour>
      <point x="358" y="17" type="line"/>
      <point x="497" y="17" type="line"/>
      <point x="497" y="315" type="line"/>
      <point x="358" y="315" type="line"/>
    </contour>
    <component base="ya.eth"/>
  </outline>
</glyph>
<glyph name="ye.eth" format="2">
  <advance width="598"/>
  <unicode hex="12ED"/>
  <note>
uni12ED
</note>
  <anchor x="294" y="725" name="top"/>
  <outline>
    <contour>
      <point x="383" y="0" type="curve" smooth="yes"/>
      <point x="510" y="0"/>
      <point x="588" y="94"/>
      <point x="588" y="253" type="curve" smooth="yes"/>
      <point x="588" y="292" type="line"/>
      <point x="428" y="292" type="line"/>
      <point x="428" y="229" type="line" smooth="yes"/>
      <point x="428" y="166"/>
      <point x="419" y="131"/>
      <point x="385" y="131" type="curve" smooth="yes"/>
      <point x="327" y="131"/>
      <point x="297" y="215"/>
      <point x="283" y="323" type="curve"/>
      <point x="430" y="327"/>
      <point x="530" y="424"/>
      <point x="530" y="540" type="curve" smooth="yes"/>
      <point x="530" y="651"/>
      <point x="457" y="725"/>
      <point x="317" y="725" type="curve" smooth="yes"/>
      <point x="176" y="725"/>
      <point x="95" y="640"/>
      <point x="95" y="458" type="curve" smooth="yes"/>
      <point x="95" y="203"/>
      <point x="201" y="0"/>
    </contour>
    <contour>
      <point x="149" y="0" type="line"/>
      <point x="383" y="0" type="line"/>
      <point x="283" y="106" type="line"/>
      <point x="149" y="106" type="line"/>
    </contour>
    <contour>
      <point x="267" y="440" type="curve"/>
      <point x="266" y="451"/>
      <point x="264" y="466"/>
      <point x="264" y="480" type="curve" smooth="yes"/>
      <point x="264" y="560"/>
      <point x="285" y="601"/>
      <point x="320" y="601" type="curve" smooth="yes"/>
      <point x="349" y="601"/>
      <point x="363" y="573"/>
      <point x="363" y="538" type="curve" smooth="yes"/>
      <point x="363" y="467"/>
      <point x="324" y="442"/>
    </contour>
    <component base="leftsingleflag" yOffset="-308"/>
  </outline>
</glyph>
<glyph name="da.eth" format="2">
  <advance width="553"/>
  <unicode hex="12F0"/>
  <note>
uni12F0
</note>
  <anchor x="276" y="725" name="top"/>
  <outline>
    <contour>
      <point x="191" y="182" type="curve"/>
      <point x="356" y="182" type="line"/>
      <point x="336" y="220"/>
      <point x="318" y="276"/>
      <point x="306" y="322" type="curve"/>
      <point x="446" y="325"/>
      <point x="532" y="416"/>
      <point x="532" y="533" type="curve" smooth="yes"/>
      <point x="532" y="651"/>
      <point x="459" y="725"/>
      <point x="339" y="725" type="curve" smooth="yes"/>
      <point x="200" y="725"/>
      <point x="121" y="640"/>
      <point x="121" y="457" type="curve" smooth="yes"/>
      <point x="121" y="341"/>
      <point x="155" y="247"/>
    </contour>
    <contour>
      <point x="283" y="440" type="curve"/>
      <point x="282" y="451"/>
      <point x="280" y="466"/>
      <point x="280" y="482" type="curve" smooth="yes"/>
      <point x="280" y="558"/>
      <point x="292" y="600"/>
      <point x="335" y="600" type="curve" smooth="yes"/>
      <point x="364" y="600"/>
      <point x="377" y="574"/>
      <point x="377" y="541" type="curve" smooth="yes"/>
      <point x="377" y="479"/>
      <point x="333" y="441"/>
    </contour>
    <component base="footmiddle" yOffset="78"/>
  </outline>
</glyph>
<glyph name="daa.eth" format="2">
  <advance width="716"/>
  <unicode hex="12F3"/>
  <note>
uni12F3
</note>
  <anchor x="327" y="724" name="top"/>
  <outline>
    <contour>
      <point x="326" y="238" type="curve"/>
      <point x="528" y="283" type="line"/>
      <point x="407" y="288"/>
      <point x="327" y="374"/>
      <point x="327" y="502" type="curve" smooth="yes"/>
      <point x="327" y="566"/>
      <point x="347" y="599"/>
      <point x="380" y="599" type="curve" smooth="yes"/>
      <point x="407" y="599"/>
      <point x="419" y="573"/>
      <point x="419" y="536" type="curve" smooth="yes"/>
      <point x="419" y="471"/>
      <point x="386" y="432"/>
      <point x="323" y="432" type="curve"/>
      <point x="345" y="331" type="line"/>
      <point x="487" y="335"/>
      <point x="587" y="408"/>
      <point x="587" y="533" type="curve" smooth="yes"/>
      <point x="587" y="641"/>
      <point x="513" y="724"/>
      <point x="381" y="724" type="curve" smooth="yes"/>
      <point x="249" y="724"/>
      <point x="162" y="640"/>
      <point x="162" y="499" type="curve" smooth="yes"/>
      <point x="162" y="354"/>
      <point x="232" y="263"/>
    </contour>
    <contour>
      <point x="494" y="0" type="line"/>
      <point x="654" y="0" type="line"/>
      <point x="654" y="287" type="line"/>
      <point x="154" y="287" type="line"/>
      <point x="154" y="181" type="line"/>
      <point x="494" y="181" type="line"/>
    </contour>
    <component base="leftsingleflag" yOffset="-127"/>
  </outline>
</glyph>
<glyph name="dee.eth" format="2">
  <advance width="687"/>
  <unicode hex="12F4"/>
  <note>
uni12F4
</note>
  <anchor x="337" y="725" name="top"/>
  <outline>
    <contour>
      <point x="159" y="136" type="line"/>
      <point x="413" y="136" type="line"/>
      <point x="519" y="242" type="line"/>
      <point x="336" y="242" type="line"/>
      <point x="326" y="262"/>
      <point x="308" y="309"/>
      <point x="301" y="341" type="curve"/>
      <point x="436" y="342"/>
      <point x="515" y="421"/>
      <point x="515" y="540" type="curve" smooth="yes"/>
      <point x="515" y="655"/>
      <point x="441" y="725"/>
      <point x="316" y="725" type="curve" smooth="yes"/>
      <point x="176" y="725"/>
      <point x="97" y="637"/>
      <point x="97" y="479" type="curve" smooth="yes"/>
      <point x="97" y="371"/>
      <point x="134" y="291"/>
      <point x="163" y="242" type="curve"/>
      <point x="142" y="242" type="line"/>
    </contour>
    <contour>
      <point x="268" y="450" type="curve"/>
      <point x="265" y="463"/>
      <point x="262" y="480"/>
      <point x="262" y="505" type="curve" smooth="yes"/>
      <point x="262" y="562"/>
      <point x="277" y="598"/>
      <point x="313" y="598" type="curve" smooth="yes"/>
      <point x="341" y="598"/>
      <point x="355" y="576"/>
      <point x="355" y="537" type="curve" smooth="yes"/>
      <point x="355" y="472"/>
      <point x="316" y="451"/>
    </contour>
    <component base="ballsmall" xOffset="366" yOffset="-191"/>
    <component base="leftsingleflag" yOffset="-172"/>
  </outline>
</glyph>
<glyph name="do.eth" format="2">
  <advance width="562"/>
  <unicode hex="12F6"/>
  <note>
uni12F6
</note>
  <anchor x="281" y="724" name="top"/>
  <outline>
    <contour>
      <point x="242" y="238" type="curve"/>
      <point x="444" y="283" type="line"/>
      <point x="323" y="288"/>
      <point x="243" y="373"/>
      <point x="243" y="503" type="curve" smooth="yes"/>
      <point x="243" y="567"/>
      <point x="262" y="599"/>
      <point x="295" y="599" type="curve" smooth="yes"/>
      <point x="325" y="599"/>
      <point x="335" y="573"/>
      <point x="335" y="537" type="curve" smooth="yes"/>
      <point x="335" y="484"/>
      <point x="302" y="432"/>
      <point x="239" y="432" type="curve"/>
      <point x="261" y="331" type="line"/>
      <point x="400" y="335"/>
      <point x="503" y="405"/>
      <point x="503" y="534" type="curve" smooth="yes"/>
      <point x="503" y="640"/>
      <point x="433" y="724"/>
      <point x="298" y="724" type="curve" smooth="yes"/>
      <point x="165" y="724"/>
      <point x="78" y="643"/>
      <point x="78" y="493" type="curve" smooth="yes"/>
      <point x="78" y="362"/>
      <point x="145" y="263"/>
    </contour>
    <contour>
      <point x="0" y="0" type="line"/>
      <point x="147" y="0" type="line"/>
      <point x="147" y="101" type="line" smooth="yes"/>
      <point x="147" y="173"/>
      <point x="170" y="187"/>
      <point x="224" y="187" type="curve" smooth="yes"/>
      <point x="367" y="187" type="line"/>
      <point x="367" y="293" type="line"/>
      <point x="152" y="293" type="line" smooth="yes"/>
      <point x="51" y="293"/>
      <point x="0" y="239"/>
      <point x="0" y="125" type="curve" smooth="yes"/>
    </contour>
    <component base="rightsingleflag" xOffset="352" yOffset="-121"/>
  </outline>
</glyph>
<glyph name="dwa.eth" format="2">
  <advance width="718"/>
  <unicode hex="12F7"/>
  <note>
uni12F7
</note>
  <anchor x="359" y="724" name="top"/>
  <outline>
    <contour>
      <point x="283" y="244" type="curve"/>
      <point x="485" y="289" type="line"/>
      <point x="364" y="294"/>
      <point x="284" y="374"/>
      <point x="284" y="502" type="curve" smooth="yes"/>
      <point x="284" y="566"/>
      <point x="304" y="599"/>
      <point x="337" y="599" type="curve" smooth="yes"/>
      <point x="364" y="599"/>
      <point x="376" y="573"/>
      <point x="376" y="536" type="curve" smooth="yes"/>
      <point x="376" y="471"/>
      <point x="343" y="432"/>
      <point x="280" y="432" type="curve"/>
      <point x="302" y="331" type="line"/>
      <point x="444" y="335"/>
      <point x="544" y="408"/>
      <point x="544" y="533" type="curve" smooth="yes"/>
      <point x="544" y="641"/>
      <point x="470" y="724"/>
      <point x="338" y="724" type="curve" smooth="yes"/>
      <point x="206" y="724"/>
      <point x="119" y="640"/>
      <point x="119" y="499" type="curve" smooth="yes"/>
      <point x="119" y="354"/>
      <point x="189" y="269"/>
    </contour>
    <contour>
      <point x="411" y="0" type="line"/>
      <point x="571" y="0" type="line"/>
      <point x="571" y="293" type="line"/>
      <point x="196" y="293" type="line"/>
      <point x="196" y="187" type="line"/>
      <point x="411" y="187" type="line"/>
    </contour>
    <component base="leftsingleflag" yOffset="-121"/>
    <component base="footright" xOffset="175"/>
  </outline>
</glyph>
<glyph name="dda.eth" format="2">
  <advance width="553"/>
  <unicode hex="12F8"/>
  <note>
uni12F8
</note>
  <anchor x="276" y="783" name="top"/>
  <outline>
    <contour>
      <point x="157" y="182" type="curve"/>
      <point x="322" y="182" type="line"/>
      <point x="306" y="208"/>
      <point x="292" y="243"/>
      <point x="288" y="274" type="curve"/>
      <point x="422" y="280"/>
      <point x="487" y="358"/>
      <point x="487" y="478" type="curve" smooth="yes"/>
      <point x="487" y="586"/>
      <point x="418" y="664"/>
      <point x="298" y="664" type="curve" smooth="yes"/>
      <point x="154" y="664"/>
      <point x="86" y="569"/>
      <point x="86" y="422" type="curve" smooth="yes"/>
      <point x="86" y="309"/>
      <point x="127" y="231"/>
    </contour>
    <contour>
      <point x="252" y="393" type="curve"/>
      <point x="250" y="405"/>
      <point x="247" y="422"/>
      <point x="247" y="438" type="curve" smooth="yes"/>
      <point x="247" y="499"/>
      <point x="256" y="537"/>
      <point x="289" y="537" type="curve" smooth="yes"/>
      <point x="318" y="537"/>
      <point x="326" y="510"/>
      <point x="326" y="482" type="curve" smooth="yes"/>
      <point x="326" y="421"/>
      <point x="298" y="395"/>
    </contour>
    <contour>
      <point x="215" y="611" type="line"/>
      <point x="375" y="611" type="line"/>
      <point x="375" y="783" type="line"/>
      <point x="215" y="783" type="line"/>
    </contour>
    <component base="footmiddle" yOffset="78"/>
  </outline>
</glyph>
<glyph name="ddaa.eth" format="2">
  <advance width="722"/>
  <unicode hex="12FB"/>
  <note>
uni12FB
</note>
  <anchor x="331" y="806" name="top"/>
  <outline>
    <contour>
      <point x="334" y="207" type="curve"/>
      <point x="531" y="251" type="line"/>
      <point x="407" y="257"/>
      <point x="338" y="352"/>
      <point x="338" y="468" type="curve" smooth="yes"/>
      <point x="338" y="515"/>
      <point x="349" y="556"/>
      <point x="384" y="556" type="curve" smooth="yes"/>
      <point x="409" y="556"/>
      <point x="424" y="535"/>
      <point x="424" y="494" type="curve" smooth="yes"/>
      <point x="424" y="434"/>
      <point x="391" y="400"/>
      <point x="326" y="400" type="curve"/>
      <point x="349" y="299" type="line"/>
      <point x="496" y="303"/>
      <point x="591" y="376"/>
      <point x="591" y="496" type="curve" smooth="yes"/>
      <point x="591" y="604"/>
      <point x="513" y="680"/>
      <point x="386" y="680" type="curve" smooth="yes"/>
      <point x="254" y="680"/>
      <point x="171" y="599"/>
      <point x="171" y="456" type="curve" smooth="yes"/>
      <point x="171" y="321"/>
      <point x="244" y="232"/>
    </contour>
    <contour>
      <point x="502" y="0" type="line"/>
      <point x="662" y="0" type="line"/>
      <point x="662" y="255" type="line"/>
      <point x="157" y="255" type="line"/>
      <point x="157" y="149" type="line"/>
      <point x="502" y="149" type="line"/>
    </contour>
    <contour>
      <point x="308" y="621" type="line"/>
      <point x="468" y="621" type="line"/>
      <point x="468" y="806" type="line"/>
      <point x="308" y="806" type="line"/>
    </contour>
    <component base="leftsingleflag" yOffset="-159"/>
  </outline>
</glyph>
<glyph name="ddee.eth" format="2">
  <advance width="672"/>
  <unicode hex="12FC"/>
  <note>
uni12FC
</note>
  <anchor x="330" y="806" name="top"/>
  <outline>
    <contour>
      <point x="161" y="240" type="curve"/>
      <point x="328" y="240" type="line"/>
      <point x="314" y="264"/>
      <point x="299" y="291"/>
      <point x="293" y="319" type="curve"/>
      <point x="418" y="319"/>
      <point x="498" y="395"/>
      <point x="498" y="512" type="curve" smooth="yes"/>
      <point x="498" y="623"/>
      <point x="425" y="694"/>
      <point x="309" y="694" type="curve" smooth="yes"/>
      <point x="163" y="694"/>
      <point x="90" y="603"/>
      <point x="90" y="457" type="curve" smooth="yes"/>
      <point x="90" y="363"/>
      <point x="135" y="277"/>
    </contour>
    <contour>
      <point x="134" y="136" type="line"/>
      <point x="432" y="136" type="line"/>
      <point x="499" y="242" type="line"/>
      <point x="134" y="242" type="line"/>
    </contour>
    <contour>
      <point x="261" y="427" type="curve"/>
      <point x="258" y="440"/>
      <point x="256" y="453"/>
      <point x="256" y="469" type="curve" smooth="yes"/>
      <point x="256" y="532"/>
      <point x="270" y="568"/>
      <point x="301" y="568" type="curve" smooth="yes"/>
      <point x="325" y="568"/>
      <point x="338" y="545"/>
      <point x="338" y="507" type="curve" smooth="yes"/>
      <point x="338" y="449"/>
      <point x="306" y="427"/>
    </contour>
    <contour>
      <point x="229" y="652" type="line"/>
      <point x="389" y="652" type="line"/>
      <point x="389" y="806" type="line"/>
      <point x="229" y="806" type="line"/>
    </contour>
    <component base="ballsmall" xOffset="351" yOffset="-191"/>
    <component base="leftsingleflag" yOffset="-172"/>
  </outline>
</glyph>
<glyph name="ddo.eth" format="2">
  <advance width="562"/>
  <unicode hex="12FE"/>
  <note>
uni12FE
</note>
  <anchor x="281" y="783" name="top"/>
  <outline>
    <contour>
      <point x="242" y="141" type="curve"/>
      <point x="444" y="186" type="line"/>
      <point x="323" y="191"/>
      <point x="243" y="276"/>
      <point x="243" y="406" type="curve" smooth="yes"/>
      <point x="243" y="470"/>
      <point x="262" y="502"/>
      <point x="295" y="502" type="curve" smooth="yes"/>
      <point x="325" y="502"/>
      <point x="335" y="476"/>
      <point x="335" y="440" type="curve" smooth="yes"/>
      <point x="335" y="387"/>
      <point x="302" y="335"/>
      <point x="239" y="335" type="curve"/>
      <point x="261" y="234" type="line"/>
      <point x="400" y="238"/>
      <point x="503" y="308"/>
      <point x="503" y="437" type="curve" smooth="yes"/>
      <point x="503" y="543"/>
      <point x="433" y="627"/>
      <point x="298" y="627" type="curve" smooth="yes"/>
      <point x="165" y="627"/>
      <point x="78" y="546"/>
      <point x="78" y="396" type="curve" smooth="yes"/>
      <point x="78" y="265"/>
      <point x="145" y="166"/>
    </contour>
    <contour>
      <point x="0" y="0" type="line"/>
      <point x="147" y="0" type="line"/>
      <point x="147" y="19" type="line" smooth="yes"/>
      <point x="147" y="76"/>
      <point x="170" y="90"/>
      <point x="224" y="90" type="curve" smooth="yes"/>
      <point x="367" y="90" type="line"/>
      <point x="367" y="196" type="line"/>
      <point x="152" y="196" type="line" smooth="yes"/>
      <point x="51" y="196"/>
      <point x="0" y="142"/>
      <point x="0" y="28" type="curve" smooth="yes"/>
    </contour>
    <contour>
      <point x="205" y="611" type="line"/>
      <point x="365" y="611" type="line"/>
      <point x="365" y="783" type="line"/>
      <point x="205" y="783" type="line"/>
    </contour>
    <component base="rightsingleflag" xOffset="352" yOffset="-218"/>
  </outline>
</glyph>
<glyph name="ddwa.eth" format="2">
  <advance width="742"/>
  <unicode hex="12FF"/>
  <note>
uni12FF
</note>
  <anchor x="371" y="806" name="top"/>
  <outline>
    <contour>
      <point x="275" y="207" type="curve"/>
      <point x="472" y="251" type="line"/>
      <point x="348" y="257"/>
      <point x="279" y="352"/>
      <point x="279" y="468" type="curve" smooth="yes"/>
      <point x="279" y="515"/>
      <point x="290" y="556"/>
      <point x="325" y="556" type="curve" smooth="yes"/>
      <point x="350" y="556"/>
      <point x="365" y="535"/>
      <point x="365" y="494" type="curve" smooth="yes"/>
      <point x="365" y="434"/>
      <point x="332" y="400"/>
      <point x="267" y="400" type="curve"/>
      <point x="290" y="299" type="line"/>
      <point x="437" y="303"/>
      <point x="532" y="376"/>
      <point x="532" y="496" type="curve" smooth="yes"/>
      <point x="532" y="604"/>
      <point x="454" y="680"/>
      <point x="327" y="680" type="curve" smooth="yes"/>
      <point x="195" y="680"/>
      <point x="112" y="599"/>
      <point x="112" y="456" type="curve" smooth="yes"/>
      <point x="112" y="321"/>
      <point x="185" y="232"/>
    </contour>
    <contour>
      <point x="433" y="0" type="line"/>
      <point x="593" y="0" type="line"/>
      <point x="593" y="255" type="line"/>
      <point x="168" y="255" type="line"/>
      <point x="168" y="149" type="line"/>
      <point x="433" y="149" type="line"/>
    </contour>
    <contour>
      <point x="249" y="621" type="line"/>
      <point x="409" y="621" type="line"/>
      <point x="409" y="806" type="line"/>
      <point x="249" y="806" type="line"/>
    </contour>
    <component base="footright" xOffset="199"/>
    <component base="leftsingleflag" yOffset="-159"/>
  </outline>
</glyph>
<glyph name="ja.eth" format="2">
  <advance width="553"/>
  <unicode hex="1300"/>
  <note>
uni1300
</note>
  <anchor x="276" y="867" name="top"/>
  <outline>
    <contour>
      <point x="145" y="182" type="curve"/>
      <point x="310" y="182" type="line"/>
      <point x="294" y="207"/>
      <point x="284" y="235"/>
      <point x="274" y="264" type="curve"/>
      <point x="408" y="270"/>
      <point x="473" y="343"/>
      <point x="473" y="459" type="curve" smooth="yes"/>
      <point x="473" y="559"/>
      <point x="407" y="636"/>
      <point x="284" y="636" type="curve" smooth="yes"/>
      <point x="139" y="636"/>
      <point x="72" y="547"/>
      <point x="72" y="412" type="curve" smooth="yes"/>
      <point x="72" y="296"/>
      <point x="114" y="227"/>
    </contour>
    <contour>
      <point x="238" y="383" type="curve"/>
      <point x="235" y="395"/>
      <point x="233" y="410"/>
      <point x="233" y="426" type="curve" smooth="yes"/>
      <point x="233" y="474"/>
      <point x="242" y="509"/>
      <point x="275" y="509" type="curve" smooth="yes"/>
      <point x="304" y="509"/>
      <point x="312" y="486"/>
      <point x="312" y="458" type="curve" smooth="yes"/>
      <point x="312" y="407"/>
      <point x="284" y="385"/>
    </contour>
    <contour>
      <point x="188" y="584" type="line"/>
      <point x="348" y="584" type="line"/>
      <point x="348" y="754" type="line"/>
      <point x="188" y="754" type="line"/>
    </contour>
    <component base="footmiddle" yOffset="78"/>
    <component base="bonemiddle" yOffset="28"/>
  </outline>
</glyph>
<glyph name="jee.eth" format="2">
  <advance width="759"/>
  <unicode hex="1304"/>
  <note>
uni1304
</note>
  <anchor x="373" y="869" name="top"/>
  <outline>
    <contour>
      <point x="334" y="181" type="curve"/>
      <point x="531" y="225" type="line"/>
      <point x="415" y="230"/>
      <point x="342" y="320"/>
      <point x="342" y="425" type="curve" smooth="yes"/>
      <point x="342" y="474"/>
      <point x="358" y="502"/>
      <point x="387" y="502" type="curve" smooth="yes"/>
      <point x="412" y="502"/>
      <point x="424" y="481"/>
      <point x="424" y="453" type="curve" smooth="yes"/>
      <point x="424" y="404"/>
      <point x="388" y="374"/>
      <point x="326" y="374" type="curve"/>
      <point x="349" y="273" type="line"/>
      <point x="498" y="277"/>
      <point x="591" y="344"/>
      <point x="591" y="454" type="curve" smooth="yes"/>
      <point x="591" y="553"/>
      <point x="516" y="627"/>
      <point x="384" y="627" type="curve" smooth="yes"/>
      <point x="249" y="627"/>
      <point x="171" y="549"/>
      <point x="171" y="418" type="curve" smooth="yes"/>
      <point x="171" y="290"/>
      <point x="246" y="205"/>
    </contour>
    <contour>
      <point x="157" y="123" type="line"/>
      <point x="497" y="123" type="line"/>
      <point x="588" y="229" type="line"/>
      <point x="157" y="229" type="line"/>
    </contour>
    <contour>
      <point x="308" y="568" type="line"/>
      <point x="468" y="568" type="line"/>
      <point x="468" y="757" type="line"/>
      <point x="308" y="757" type="line"/>
    </contour>
    <component base="ballsmall" xOffset="438" yOffset="-204"/>
    <component base="leftsingleflag" yOffset="-185"/>
    <component base="bonelong" xOffset="74" yOffset="30"/>
  </outline>
</glyph>
<glyph name="jo.eth" format="2">
  <advance width="652"/>
  <unicode hex="1306"/>
  <note>
uni1306
</note>
  <anchor x="326" y="870" name="top"/>
  <outline>
    <contour>
      <point x="291" y="182" type="curve"/>
      <point x="488" y="226" type="line"/>
      <point x="372" y="231"/>
      <point x="299" y="321"/>
      <point x="299" y="426" type="curve" smooth="yes"/>
      <point x="299" y="475"/>
      <point x="315" y="503"/>
      <point x="344" y="503" type="curve" smooth="yes"/>
      <point x="369" y="503"/>
      <point x="381" y="482"/>
      <point x="381" y="454" type="curve" smooth="yes"/>
      <point x="381" y="405"/>
      <point x="345" y="375"/>
      <point x="283" y="375" type="curve"/>
      <point x="306" y="274" type="line"/>
      <point x="455" y="278"/>
      <point x="548" y="345"/>
      <point x="548" y="455" type="curve" smooth="yes"/>
      <point x="548" y="554"/>
      <point x="473" y="628"/>
      <point x="341" y="628" type="curve" smooth="yes"/>
      <point x="206" y="628"/>
      <point x="128" y="550"/>
      <point x="128" y="419" type="curve" smooth="yes"/>
      <point x="128" y="291"/>
      <point x="203" y="206"/>
    </contour>
    <contour>
      <point x="0" y="0" type="line"/>
      <point x="147" y="0" type="line"/>
      <point x="147" y="41" type="line" smooth="yes"/>
      <point x="147" y="98"/>
      <point x="170" y="120"/>
      <point x="224" y="120" type="curve" smooth="yes"/>
      <point x="425" y="120" type="line"/>
      <point x="425" y="226" type="line"/>
      <point x="170" y="226" type="line" smooth="yes"/>
      <point x="69" y="226"/>
      <point x="0" y="172"/>
      <point x="0" y="58" type="curve" smooth="yes"/>
    </contour>
    <contour>
      <point x="265" y="569" type="line"/>
      <point x="425" y="569" type="line"/>
      <point x="425" y="758" type="line"/>
      <point x="265" y="758" type="line"/>
    </contour>
    <component base="bonelong" xOffset="31" yOffset="31"/>
    <component base="rightsingleflag" xOffset="401" yOffset="-188"/>
  </outline>
</glyph>
<glyph name="jwa.eth" format="2">
  <advance width="840"/>
  <unicode hex="1307"/>
  <note>
uni1307
</note>
  <anchor x="420" y="870" name="top"/>
  <outline>
    <contour>
      <point x="334" y="182" type="curve"/>
      <point x="531" y="226" type="line"/>
      <point x="415" y="231"/>
      <point x="342" y="321"/>
      <point x="342" y="426" type="curve" smooth="yes"/>
      <point x="342" y="475"/>
      <point x="358" y="503"/>
      <point x="387" y="503" type="curve" smooth="yes"/>
      <point x="412" y="503"/>
      <point x="424" y="482"/>
      <point x="424" y="454" type="curve" smooth="yes"/>
      <point x="424" y="405"/>
      <point x="388" y="375"/>
      <point x="326" y="375" type="curve"/>
      <point x="349" y="274" type="line"/>
      <point x="498" y="278"/>
      <point x="591" y="345"/>
      <point x="591" y="455" type="curve" smooth="yes"/>
      <point x="591" y="554"/>
      <point x="516" y="628"/>
      <point x="384" y="628" type="curve" smooth="yes"/>
      <point x="249" y="628"/>
      <point x="171" y="550"/>
      <point x="171" y="419" type="curve" smooth="yes"/>
      <point x="171" y="291"/>
      <point x="246" y="206"/>
    </contour>
    <contour>
      <point x="497" y="0" type="line"/>
      <point x="657" y="0" type="line"/>
      <point x="657" y="230" type="line"/>
      <point x="157" y="230" type="line"/>
      <point x="157" y="124" type="line"/>
      <point x="497" y="124" type="line"/>
    </contour>
    <contour>
      <point x="308" y="569" type="line"/>
      <point x="468" y="569" type="line"/>
      <point x="468" y="758" type="line"/>
      <point x="308" y="758" type="line"/>
    </contour>
    <component base="footright" xOffset="297" yOffset="-10"/>
    <component base="leftsingleflag" yOffset="-184"/>
    <component base="bonelong" xOffset="74" yOffset="31"/>
  </outline>
</glyph>
<glyph name="ga.eth" format="2">
  <advance width="533"/>
  <unicode hex="1308"/>
  <note>
uni1308
</note>
  <anchor x="233" y="714" name="top"/>
  <outline>
    <contour>
      <point x="306" y="0" type="line"/>
      <point x="466" y="0" type="line"/>
      <point x="466" y="362" type="line" smooth="yes"/>
      <point x="466" y="602"/>
      <point x="392" y="714"/>
      <point x="154" y="714" type="curve" smooth="yes"/>
      <point x="44" y="714" type="line"/>
      <point x="0" y="530" type="line"/>
      <point x="28" y="530" type="line" smooth="yes"/>
      <point x="83" y="530"/>
      <point x="109" y="548"/>
      <point x="130" y="608" type="curve"/>
      <point x="134" y="608" type="line" smooth="yes"/>
      <point x="259" y="608"/>
      <point x="306" y="557"/>
      <point x="306" y="323" type="curve" smooth="yes"/>
    </contour>
  </outline>
</glyph>
<glyph name="gaa.eth" format="2">
  <advance width="535"/>
  <unicode hex="130B"/>
  <note>
uni130B
</note>
  <anchor x="234" y="714" name="top"/>
  <outline>
    <contour>
      <point x="0" y="-78" type="line"/>
      <point x="25" y="-78" type="line" smooth="yes"/>
      <point x="86" y="-78"/>
      <point x="110" y="-58"/>
      <point x="130" y="0" type="curve"/>
      <point x="218" y="0" type="line" smooth="yes"/>
      <point x="388" y="0"/>
      <point x="468" y="92"/>
      <point x="468" y="252" type="curve" smooth="yes"/>
      <point x="468" y="362" type="line" smooth="yes"/>
      <point x="468" y="602"/>
      <point x="394" y="714"/>
      <point x="155" y="714" type="curve" smooth="yes"/>
      <point x="45" y="714" type="line"/>
      <point x="0" y="531" type="line"/>
      <point x="27" y="531" type="line" smooth="yes"/>
      <point x="86" y="531"/>
      <point x="108" y="549"/>
      <point x="130" y="609" type="curve"/>
      <point x="135" y="609" type="line" smooth="yes"/>
      <point x="260" y="609"/>
      <point x="308" y="557"/>
      <point x="308" y="339" type="curve" smooth="yes"/>
      <point x="308" y="249" type="line" smooth="yes"/>
      <point x="308" y="150"/>
      <point x="279" y="106"/>
      <point x="200" y="106" type="curve" smooth="yes"/>
      <point x="44" y="106" type="line"/>
    </contour>
  </outline>
</glyph>
<glyph name="ge.eth" format="2">
  <advance width="641"/>
  <unicode hex="130D"/>
  <note>
uni130D
</note>
  <anchor x="293" y="714" name="top"/>
  <outline>
    <contour>
      <point x="414" y="0" type="line"/>
      <point x="574" y="0" type="line"/>
      <point x="574" y="362" type="line" smooth="yes"/>
      <point x="574" y="602"/>
      <point x="493" y="714"/>
      <point x="255" y="714" type="curve" smooth="yes"/>
      <point x="179" y="714" type="line"/>
      <point x="251" y="614" type="line"/>
      <point x="288" y="614" type="line" smooth="yes"/>
      <point x="391" y="614"/>
      <point x="414" y="557"/>
      <point x="414" y="323" type="curve" smooth="yes"/>
    </contour>
    <component base="ballbig" yOffset="263"/>
  </outline>
</glyph>
<glyph name="go.eth" format="2">
  <advance width="533"/>
  <unicode hex="130E"/>
  <note>
uni130E
</note>
  <anchor x="233" y="760" name="top"/>
  <outline>
    <contour>
      <point x="306" y="0" type="line"/>
      <point x="466" y="0" type="line"/>
      <point x="466" y="268" type="line" smooth="yes"/>
      <point x="466" y="508"/>
      <point x="392" y="619"/>
      <point x="154" y="619" type="curve" smooth="yes"/>
      <point x="44" y="619" type="line"/>
      <point x="0" y="435" type="line"/>
      <point x="28" y="435" type="line" smooth="yes"/>
      <point x="83" y="435"/>
      <point x="109" y="453"/>
      <point x="130" y="513" type="curve"/>
      <point x="134" y="513" type="line" smooth="yes"/>
      <point x="259" y="513"/>
      <point x="306" y="462"/>
      <point x="306" y="228" type="curve" smooth="yes"/>
    </contour>
    <contour>
      <point x="144" y="575" type="line"/>
      <point x="304" y="575" type="line"/>
      <point x="304" y="760" type="line"/>
      <point x="144" y="760" type="line"/>
    </contour>
  </outline>
</glyph>
<glyph name="goa.eth" format="2">
	<advance width="549"/>
	<unicode hex="130F"/>
	<anchor x="249" y="760" name="top"/>
	<note>
		uni130F
	</note>
	<outline>
		<contour>
			<point x="184" y="0" type="line"/>
			<point x="405" y="0" type="line"/>
			<point x="405" y="106" type="line"/>
			<point x="184" y="106" type="line"/>
		</contour>
		<component base="go.eth" xOffset="16"/>
		<component base="leftdoubleflag" xOffset="23"/>
	</outline>
</glyph>
<glyph name="gwi.eth" format="2">
  <advance width="867"/>
  <unicode hex="1312"/>
  <note>
uni1312
</note>
  <anchor x="433" y="714" name="top"/>
  <outline>
    <contour>
      <point x="834" y="185" type="curve" smooth="yes"/>
      <point x="867" y="185" type="line"/>
      <point x="823" y="369" type="line"/>
      <point x="657" y="369" type="line"/>
      <point x="657" y="263" type="line"/>
      <point x="737" y="263" type="line"/>
      <point x="756" y="211"/>
      <point x="777" y="185"/>
    </contour>
    <contour>
      <point x="450" y="355" type="line"/>
      <point x="569" y="355" type="line"/>
      <point x="569" y="461" type="line"/>
      <point x="450" y="461" type="line"/>
    </contour>
    <contour>
      <point x="565" y="263" type="line"/>
      <point x="704" y="263" type="line"/>
      <point x="704" y="561" type="line"/>
      <point x="565" y="561" type="line"/>
    </contour>
    <component base="ga.eth"/>
  </outline>
</glyph>
<glyph name="gwaa.eth" format="2">
  <advance width="533"/>
  <unicode hex="1313"/>
  <note>
uni1313
</note>
  <anchor x="233" y="714" name="top"/>
  <outline>
    <contour>
      <point x="306" y="0" type="line"/>
      <point x="466" y="0" type="line"/>
      <point x="466" y="101" type="line" smooth="yes"/>
      <point x="466" y="341"/>
      <point x="392" y="453"/>
      <point x="154" y="453" type="curve" smooth="yes"/>
      <point x="44" y="453" type="line"/>
      <point x="0" y="269" type="line"/>
      <point x="29" y="269" type="line" smooth="yes"/>
      <point x="85" y="269"/>
      <point x="109" y="288"/>
      <point x="130" y="347" type="curve"/>
      <point x="134" y="347" type="line" smooth="yes"/>
      <point x="269" y="347"/>
      <point x="306" y="291"/>
      <point x="306" y="61" type="curve" smooth="yes"/>
    </contour>
    <contour>
      <point x="191" y="386" type="line"/>
      <point x="351" y="386" type="line"/>
      <point x="351" y="470" type="line" smooth="yes"/>
      <point x="351" y="642"/>
      <point x="301" y="714"/>
      <point x="152" y="714" type="curve" smooth="yes"/>
      <point x="44" y="714" type="line"/>
      <point x="0" y="530" type="line"/>
      <point x="31" y="530" type="line" smooth="yes"/>
      <point x="84" y="530"/>
      <point x="110" y="550"/>
      <point x="130" y="608" type="curve"/>
      <point x="135" y="608" type="line" smooth="yes"/>
      <point x="164" y="608"/>
      <point x="191" y="588"/>
      <point x="191" y="450" type="curve" smooth="yes"/>
    </contour>
  </outline>
</glyph>
<glyph name="gwee.eth" format="2">
  <advance width="692"/>
  <unicode hex="1314"/>
  <note>
uni1314
</note>
  <anchor x="342" y="714" name="top"/>
  <outline>
    <contour>
      <point x="165" y="0" type="line"/>
      <point x="386" y="0" type="line"/>
      <point x="386" y="106" type="line"/>
      <point x="165" y="106" type="line"/>
    </contour>
    <component base="ga.eth"/>
    <component base="leftsingleflag" yOffset="-308"/>
    <component base="baselinebowl" xOffset="296"/>
  </outline>
</glyph>
<glyph name="gwe.eth" format="2">
  <advance width="806"/>
  <unicode hex="1315"/>
  <note>
uni1315
</note>
  <anchor x="403" y="714" name="top"/>
  <outline>
    <contour>
      <point x="536" y="330" type="line"/>
      <point x="671" y="330" type="line"/>
      <point x="671" y="615" type="line"/>
      <point x="536" y="615" type="line"/>
    </contour>
    <contour>
      <point x="416" y="330" type="line"/>
      <point x="605" y="330" type="line"/>
      <point x="605" y="436" type="line"/>
      <point x="416" y="436" type="line"/>
    </contour>
    <component base="ga.eth"/>
    <component base="rightsingleflag" xOffset="596" yOffset="22"/>
  </outline>
</glyph>
<glyph name="gga.eth" format="2">
  <advance width="549"/>
  <unicode hex="1318"/>
  <note>
uni1318
</note>
  <anchor x="241" y="780" name="top"/>
  <outline>
    <contour>
      <point x="310" y="0" type="line"/>
      <point x="470" y="0" type="line"/>
      <point x="470" y="159" type="line" smooth="yes"/>
      <point x="470" y="399"/>
      <point x="396" y="511"/>
      <point x="158" y="511" type="curve" smooth="yes"/>
      <point x="48" y="511" type="line"/>
      <point x="4" y="327" type="line"/>
      <point x="32" y="327" type="line" smooth="yes"/>
      <point x="87" y="327"/>
      <point x="113" y="345"/>
      <point x="134" y="405" type="curve"/>
      <point x="138" y="405" type="line" smooth="yes"/>
      <point x="263" y="405"/>
      <point x="310" y="354"/>
      <point x="310" y="120" type="curve" smooth="yes"/>
    </contour>
    <contour>
      <point x="162" y="466" type="line"/>
      <point x="322" y="466" type="line"/>
      <point x="322" y="656" type="line"/>
      <point x="162" y="656" type="line"/>
    </contour>
    <component base="bone" yOffset="-59"/>
  </outline>
</glyph>
<glyph name="ggaa.eth" format="2">
  <advance width="556"/>
  <unicode hex="131B"/>
  <note>
uni131B
</note>
  <anchor x="244" y="780" name="top"/>
  <outline>
    <contour>
      <point x="30" y="-83" type="line"/>
      <point x="55" y="-83" type="line" smooth="yes"/>
      <point x="110" y="-83"/>
      <point x="144" y="-58"/>
      <point x="164" y="0" type="curve"/>
      <point x="239" y="0" type="line" smooth="yes"/>
      <point x="409" y="0"/>
      <point x="489" y="92"/>
      <point x="489" y="252" type="curve" smooth="yes"/>
      <point x="489" y="267" type="line" smooth="yes"/>
      <point x="489" y="387"/>
      <point x="415" y="514"/>
      <point x="176" y="514" type="curve" smooth="yes"/>
      <point x="66" y="514" type="line"/>
      <point x="32" y="328" type="line"/>
      <point x="59" y="328" type="line" smooth="yes"/>
      <point x="118" y="328"/>
      <point x="143" y="354"/>
      <point x="165" y="414" type="curve"/>
      <point x="170" y="414" type="line" smooth="yes"/>
      <point x="295" y="414"/>
      <point x="329" y="357"/>
      <point x="329" y="259" type="curve" smooth="yes"/>
      <point x="329" y="249" type="line" smooth="yes"/>
      <point x="329" y="146"/>
      <point x="300" y="100"/>
      <point x="221" y="100" type="curve" smooth="yes"/>
      <point x="65" y="100" type="line"/>
    </contour>
    <contour>
      <point x="162" y="463" type="line"/>
      <point x="322" y="463" type="line"/>
      <point x="322" y="656" type="line"/>
      <point x="162" y="656" type="line"/>
    </contour>
    <component base="bone" yOffset="-59"/>
  </outline>
</glyph>
<glyph name="gge.eth" format="2">
  <advance width="642"/>
  <unicode hex="131D"/>
  <note>
uni131D
</note>
  <anchor x="287" y="780" name="top"/>
  <outline>
    <contour>
      <point x="415" y="0" type="line"/>
      <point x="575" y="0" type="line"/>
      <point x="575" y="174" type="line" smooth="yes"/>
      <point x="575" y="414"/>
      <point x="494" y="526"/>
      <point x="256" y="526" type="curve" smooth="yes"/>
      <point x="180" y="526" type="line"/>
      <point x="252" y="426" type="line"/>
      <point x="289" y="426" type="line" smooth="yes"/>
      <point x="392" y="426"/>
      <point x="415" y="369"/>
      <point x="415" y="135" type="curve" smooth="yes"/>
    </contour>
    <contour>
      <point x="193" y="473" type="line"/>
      <point x="348" y="473" type="line"/>
      <point x="348" y="656" type="line"/>
      <point x="193" y="656" type="line"/>
    </contour>
    <component base="bonemiddle" yOffset="-59"/>
    <component base="ballbig" xOffset="11" yOffset="75"/>
  </outline>
</glyph>
<glyph name="ggo.eth" format="2">
  <advance width="621"/>
  <unicode hex="131E"/>
  <note>
uni131E
</note>
  <anchor x="310" y="868" name="top"/>
  <outline>
    <contour>
      <point x="354" y="0" type="line"/>
      <point x="514" y="0" type="line"/>
      <point x="514" y="100" type="line" smooth="yes"/>
      <point x="514" y="340"/>
      <point x="440" y="451"/>
      <point x="202" y="451" type="curve" smooth="yes"/>
      <point x="92" y="451" type="line"/>
      <point x="48" y="267" type="line"/>
      <point x="76" y="267" type="line" smooth="yes"/>
      <point x="131" y="267"/>
      <point x="157" y="285"/>
      <point x="178" y="345" type="curve"/>
      <point x="182" y="345" type="line" smooth="yes"/>
      <point x="307" y="345"/>
      <point x="354" y="294"/>
      <point x="354" y="60" type="curve" smooth="yes"/>
    </contour>
    <contour>
      <point x="227" y="369" type="line"/>
      <point x="387" y="369" type="line"/>
      <point x="387" y="455" type="line" smooth="yes"/>
      <point x="387" y="473"/>
      <point x="392" y="486"/>
      <point x="407" y="497" type="curve" smooth="yes"/>
      <point x="448" y="528"/>
      <point x="478" y="560"/>
      <point x="478" y="633" type="curve" smooth="yes"/>
      <point x="478" y="715"/>
      <point x="428" y="773"/>
      <point x="309" y="773" type="curve" smooth="yes"/>
      <point x="207" y="773"/>
      <point x="140" y="720"/>
      <point x="140" y="624" type="curve" smooth="yes"/>
      <point x="140" y="542"/>
      <point x="181" y="505"/>
      <point x="230" y="490" type="curve"/>
      <point x="228" y="480"/>
      <point x="227" y="467"/>
      <point x="227" y="452" type="curve" smooth="yes"/>
    </contour>
    <contour>
      <point x="304" y="559" type="curve"/>
      <point x="276" y="575"/>
      <point x="259" y="594"/>
      <point x="259" y="629" type="curve" smooth="yes"/>
      <point x="259" y="658"/>
      <point x="272" y="684"/>
      <point x="310" y="684" type="curve" smooth="yes"/>
      <point x="341" y="684"/>
      <point x="359" y="659"/>
      <point x="359" y="630" type="curve" smooth="yes"/>
      <point x="359" y="600"/>
      <point x="345" y="578"/>
    </contour>
    <component base="bonelong" yOffset="29"/>
  </outline>
</glyph>
<glyph name="tha.eth" format="2">
  <advance width="942"/>
  <unicode hex="1320"/>
  <note>
uni1320
</note>
  <anchor x="464" y="714" name="top"/>
  <outline>
    <contour>
      <point x="54" y="0" type="line"/>
      <point x="214" y="0" type="line"/>
      <point x="214" y="353" type="line" smooth="yes"/>
      <point x="214" y="498"/>
      <point x="255" y="579"/>
      <point x="360" y="579" type="curve" smooth="yes"/>
      <point x="368" y="579"/>
      <point x="376" y="579"/>
      <point x="384" y="579" type="curve"/>
      <point x="384" y="0" type="line"/>
      <point x="544" y="0" type="line"/>
      <point x="544" y="542" type="line"/>
      <point x="559" y="560"/>
      <point x="587" y="579"/>
      <point x="624" y="579" type="curve" smooth="yes"/>
      <point x="696" y="579"/>
      <point x="715" y="527"/>
      <point x="715" y="415" type="curve" smooth="yes"/>
      <point x="715" y="0" type="line"/>
      <point x="875" y="0" type="line"/>
      <point x="875" y="461" type="line" smooth="yes"/>
      <point x="875" y="600"/>
      <point x="830" y="714"/>
      <point x="669" y="714" type="curve" smooth="yes"/>
      <point x="601" y="714"/>
      <point x="562" y="687"/>
      <point x="544" y="667" type="curve"/>
      <point x="544" y="714" type="line"/>
      <point x="358" y="714" type="line" smooth="yes"/>
      <point x="187" y="714"/>
      <point x="54" y="621"/>
      <point x="54" y="360" type="curve" smooth="yes"/>
    </contour>
  </outline>
</glyph>
<glyph name="thaa.eth" format="2">
  <advance width="949"/>
  <unicode hex="1323"/>
  <note>
uni1323
</note>
  <anchor x="468" y="714" name="top"/>
  <outline>
    <contour>
      <point x="722" y="0" type="line"/>
      <point x="882" y="0" type="line"/>
      <point x="882" y="461" type="line" smooth="yes"/>
      <point x="882" y="600"/>
      <point x="838" y="714"/>
      <point x="675" y="714" type="curve" smooth="yes"/>
      <point x="605" y="714"/>
      <point x="566" y="687"/>
      <point x="548" y="667" type="curve"/>
      <point x="548" y="714" type="line"/>
      <point x="361" y="714" type="line" smooth="yes"/>
      <point x="187" y="714"/>
      <point x="54" y="621"/>
      <point x="54" y="360" type="curve" smooth="yes"/>
      <point x="54" y="237" type="line"/>
      <point x="214" y="237" type="line"/>
      <point x="214" y="353" type="line" smooth="yes"/>
      <point x="214" y="497"/>
      <point x="255" y="578"/>
      <point x="364" y="578" type="curve" smooth="yes"/>
      <point x="372" y="578"/>
      <point x="380" y="578"/>
      <point x="388" y="578" type="curve"/>
      <point x="388" y="237" type="line"/>
      <point x="548" y="237" type="line"/>
      <point x="548" y="542" type="line"/>
      <point x="563" y="560"/>
      <point x="591" y="579"/>
      <point x="629" y="579" type="curve" smooth="yes"/>
      <point x="694" y="579"/>
      <point x="722" y="527"/>
      <point x="722" y="415" type="curve" smooth="yes"/>
    </contour>
  </outline>
</glyph>
<glyph name="the.eth" format="2">
  <advance width="967"/>
  <unicode hex="1325"/>
  <note>
uni1325
</note>
  <anchor x="477" y="714" name="top"/>
  <outline>
    <contour>
      <point x="445" y="0" type="line"/>
      <point x="605" y="0" type="line"/>
      <point x="605" y="431" type="line"/>
      <point x="528" y="431" type="line"/>
      <point x="528" y="523" type="line"/>
      <point x="544" y="543"/>
      <point x="583" y="579"/>
      <point x="635" y="579" type="curve" smooth="yes"/>
      <point x="705" y="579"/>
      <point x="740" y="527"/>
      <point x="740" y="419" type="curve" smooth="yes"/>
      <point x="740" y="233" type="line"/>
      <point x="900" y="233" type="line"/>
      <point x="900" y="453" type="line" smooth="yes"/>
      <point x="900" y="597"/>
      <point x="842" y="714"/>
      <point x="681" y="714" type="curve" smooth="yes"/>
      <point x="599" y="714"/>
      <point x="547" y="675"/>
      <point x="528" y="654" type="curve"/>
      <point x="528" y="714" type="line"/>
      <point x="347" y="714" type="line" smooth="yes"/>
      <point x="188" y="714"/>
      <point x="54" y="623"/>
      <point x="54" y="382" type="curve" smooth="yes"/>
      <point x="54" y="233" type="line"/>
      <point x="214" y="233" type="line"/>
      <point x="214" y="375" type="line" smooth="yes"/>
      <point x="214" y="507"/>
      <point x="256" y="581"/>
      <point x="344" y="581" type="curve" smooth="yes"/>
      <point x="352" y="581"/>
      <point x="360" y="581"/>
      <point x="367" y="581" type="curve"/>
      <point x="367" y="307" type="line"/>
      <point x="445" y="307" type="line"/>
    </contour>
  </outline>
</glyph>
<glyph name="tho.eth" format="2">
  <advance width="949"/>
  <unicode hex="1326"/>
  <note>
uni1326
</note>
  <anchor x="468" y="714" name="top"/>
  <outline>
    <contour>
      <point x="54" y="0" type="line"/>
      <point x="214" y="0" type="line"/>
      <point x="214" y="353" type="line" smooth="yes"/>
      <point x="214" y="498"/>
      <point x="255" y="579"/>
      <point x="364" y="579" type="curve" smooth="yes"/>
      <point x="372" y="579"/>
      <point x="380" y="579"/>
      <point x="388" y="579" type="curve"/>
      <point x="388" y="238" type="line"/>
      <point x="548" y="238" type="line"/>
      <point x="548" y="554" type="line"/>
      <point x="563" y="572"/>
      <point x="591" y="591"/>
      <point x="629" y="591" type="curve" smooth="yes"/>
      <point x="694" y="591"/>
      <point x="722" y="539"/>
      <point x="722" y="427" type="curve" smooth="yes"/>
      <point x="722" y="238" type="line"/>
      <point x="882" y="238" type="line"/>
      <point x="882" y="461" type="line" smooth="yes"/>
      <point x="882" y="600"/>
      <point x="838" y="714"/>
      <point x="675" y="714" type="curve" smooth="yes"/>
      <point x="605" y="714"/>
      <point x="566" y="687"/>
      <point x="548" y="667" type="curve"/>
      <point x="548" y="714" type="line"/>
      <point x="361" y="714" type="line" smooth="yes"/>
      <point x="187" y="714"/>
      <point x="54" y="621"/>
      <point x="54" y="360" type="curve" smooth="yes"/>
    </contour>
  </outline>
</glyph>
<glyph name="che.eth" format="2">
  <advance width="1106"/>
  <unicode hex="132D"/>
  <note>
uni132D
</note>
  <anchor x="576" y="714" name="top"/>
  <outline>
    <contour>
      <point x="54" y="217" type="line"/>
      <point x="214" y="217" type="line"/>
      <point x="214" y="353" type="line" smooth="yes"/>
      <point x="214" y="498"/>
      <point x="255" y="579"/>
      <point x="360" y="579" type="curve" smooth="yes"/>
      <point x="368" y="579"/>
      <point x="376" y="579"/>
      <point x="384" y="579" type="curve"/>
      <point x="384" y="304" type="line"/>
      <point x="544" y="304" type="line"/>
      <point x="544" y="542" type="line"/>
      <point x="565" y="560"/>
      <point x="603" y="579"/>
      <point x="654" y="579" type="curve" smooth="yes"/>
      <point x="750" y="579"/>
      <point x="775" y="527"/>
      <point x="775" y="415" type="curve" smooth="yes"/>
      <point x="775" y="217" type="line"/>
      <point x="935" y="217" type="line"/>
      <point x="935" y="461" type="line" smooth="yes"/>
      <point x="935" y="600"/>
      <point x="883" y="714"/>
      <point x="699" y="714" type="curve" smooth="yes"/>
      <point x="615" y="714"/>
      <point x="566" y="687"/>
      <point x="544" y="667" type="curve"/>
      <point x="544" y="714" type="line"/>
      <point x="358" y="714" type="line" smooth="yes"/>
      <point x="187" y="714"/>
      <point x="54" y="621"/>
      <point x="54" y="360" type="curve" smooth="yes"/>
    </contour>
    <contour>
      <point x="91" y="217" type="line"/>
      <point x="217" y="217" type="line" smooth="yes"/>
      <point x="319" y="217"/>
      <point x="372" y="274"/>
      <point x="372" y="361" type="curve" smooth="yes"/>
      <point x="372" y="448"/>
      <point x="330" y="493"/>
      <point x="232" y="493" type="curve" smooth="yes"/>
      <point x="91" y="493" type="line"/>
    </contour>
    <contour>
      <point x="209" y="310" type="line"/>
      <point x="209" y="402" type="line"/>
      <point x="222" y="402" type="line" smooth="yes"/>
      <point x="242" y="402"/>
      <point x="252" y="384"/>
      <point x="252" y="359" type="curve" smooth="yes"/>
      <point x="252" y="329"/>
      <point x="244" y="310"/>
      <point x="221" y="310" type="curve" smooth="yes"/>
    </contour>
    <contour>
      <point x="461" y="0" type="line"/>
      <point x="621" y="0" type="line"/>
      <point x="621" y="369" type="line"/>
      <point x="461" y="369" type="line"/>
    </contour>
    <contour>
      <point x="422" y="304" type="line"/>
      <point x="621" y="304" type="line"/>
      <point x="621" y="434" type="line"/>
      <point x="422" y="434" type="line"/>
    </contour>
    <component base="bbowlnarrow" xOffset="493"/>
    <component base="bbowlnarrow" xOffset="808" yOffset="217"/>
  </outline>
</glyph>
<glyph name="cho.eth" format="2">
  <advance width="1042"/>
  <unicode hex="132E"/>
  <note>
uni132E
</note>
  <anchor x="544" y="714" name="top"/>
  <outline>
    <contour>
      <point x="54" y="0" type="line"/>
      <point x="214" y="0" type="line"/>
      <point x="214" y="353" type="line" smooth="yes"/>
      <point x="214" y="498"/>
      <point x="255" y="579"/>
      <point x="360" y="579" type="curve" smooth="yes"/>
      <point x="368" y="579"/>
      <point x="376" y="579"/>
      <point x="384" y="579" type="curve"/>
      <point x="384" y="171" type="line"/>
      <point x="544" y="171" type="line"/>
      <point x="544" y="542" type="line"/>
      <point x="559" y="560"/>
      <point x="587" y="579"/>
      <point x="624" y="579" type="curve" smooth="yes"/>
      <point x="696" y="579"/>
      <point x="715" y="527"/>
      <point x="715" y="415" type="curve" smooth="yes"/>
      <point x="715" y="171" type="line"/>
      <point x="875" y="171" type="line"/>
      <point x="875" y="461" type="line" smooth="yes"/>
      <point x="875" y="600"/>
      <point x="830" y="714"/>
      <point x="669" y="714" type="curve" smooth="yes"/>
      <point x="601" y="714"/>
      <point x="562" y="687"/>
      <point x="544" y="667" type="curve"/>
      <point x="544" y="714" type="line"/>
      <point x="358" y="714" type="line" smooth="yes"/>
      <point x="187" y="714"/>
      <point x="54" y="621"/>
      <point x="54" y="360" type="curve" smooth="yes"/>
    </contour>
    <component base="bbowlnarrow" xOffset="413" yOffset="171"/>
    <component base="bbowlnarrow" xOffset="744" yOffset="171"/>
    <component base="bbowlnarrow" xOffset="83"/>
  </outline>
</glyph>
<glyph name="chwa.eth" format="2">
  <advance width="1037"/>
  <unicode hex="132F"/>
  <note>
uni132F
</note>
  <anchor x="545" y="714" name="top"/>
  <outline>
    <contour>
      <point x="715" y="0" type="line"/>
      <point x="875" y="0" type="line"/>
      <point x="875" y="461" type="line" smooth="yes"/>
      <point x="875" y="600"/>
      <point x="830" y="714"/>
      <point x="669" y="714" type="curve" smooth="yes"/>
      <point x="601" y="714"/>
      <point x="562" y="687"/>
      <point x="544" y="667" type="curve"/>
      <point x="544" y="714" type="line"/>
      <point x="358" y="714" type="line" smooth="yes"/>
      <point x="187" y="714"/>
      <point x="54" y="621"/>
      <point x="54" y="360" type="curve" smooth="yes"/>
      <point x="54" y="196" type="line"/>
      <point x="214" y="196" type="line"/>
      <point x="214" y="353" type="line" smooth="yes"/>
      <point x="214" y="498"/>
      <point x="255" y="579"/>
      <point x="360" y="579" type="curve" smooth="yes"/>
      <point x="368" y="579"/>
      <point x="376" y="579"/>
      <point x="384" y="579" type="curve"/>
      <point x="384" y="196" type="line"/>
      <point x="544" y="196" type="line"/>
      <point x="544" y="542" type="line"/>
      <point x="559" y="560"/>
      <point x="587" y="579"/>
      <point x="624" y="579" type="curve" smooth="yes"/>
      <point x="696" y="579"/>
      <point x="715" y="527"/>
      <point x="715" y="415" type="curve" smooth="yes"/>
    </contour>
    <contour>
      <point x="91" y="196" type="line"/>
      <point x="217" y="196" type="line" smooth="yes"/>
      <point x="319" y="196"/>
      <point x="372" y="253"/>
      <point x="372" y="340" type="curve" smooth="yes"/>
      <point x="372" y="427"/>
      <point x="330" y="472"/>
      <point x="232" y="472" type="curve" smooth="yes"/>
      <point x="91" y="472" type="line"/>
    </contour>
    <contour>
      <point x="209" y="289" type="line"/>
      <point x="209" y="381" type="line"/>
      <point x="222" y="381" type="line" smooth="yes"/>
      <point x="242" y="381"/>
      <point x="252" y="363"/>
      <point x="252" y="338" type="curve" smooth="yes"/>
      <point x="252" y="308"/>
      <point x="244" y="289"/>
      <point x="221" y="289" type="curve" smooth="yes"/>
    </contour>
    <component base="footmiddle" xOffset="484"/>
    <component base="bbowlnarrow" xOffset="412" yOffset="196"/>
  </outline>
</glyph>
<glyph name="pha.eth" format="2">
  <advance width="550"/>
  <unicode hex="1330"/>
  <note>
uni1330
</note>
  <anchor x="275" y="760" name="top"/>
  <outline>
    <contour>
      <point x="20" y="0" type="curve"/>
      <point x="185" y="0" type="line"/>
      <point x="185" y="96"/>
      <point x="203" y="153"/>
      <point x="308" y="237" type="curve" smooth="yes"/>
      <point x="416" y="323"/>
      <point x="475" y="372"/>
      <point x="475" y="475" type="curve" smooth="yes"/>
      <point x="475" y="589"/>
      <point x="402" y="656"/>
      <point x="280" y="656" type="curve" smooth="yes"/>
      <point x="157" y="656"/>
      <point x="84" y="587"/>
      <point x="84" y="470" type="curve" smooth="yes"/>
      <point x="84" y="390"/>
      <point x="118" y="332"/>
      <point x="193" y="305" type="curve"/>
      <point x="304" y="380" type="line"/>
      <point x="257" y="398"/>
      <point x="236" y="427"/>
      <point x="236" y="471" type="curve" smooth="yes"/>
      <point x="236" y="505"/>
      <point x="249" y="531"/>
      <point x="278" y="531" type="curve" smooth="yes"/>
      <point x="307" y="531"/>
      <point x="321" y="506"/>
      <point x="321" y="470" type="curve" smooth="yes"/>
      <point x="321" y="411"/>
      <point x="283" y="383"/>
      <point x="227" y="344" type="curve" smooth="yes"/>
      <point x="74" y="237"/>
      <point x="27" y="165"/>
    </contour>
    <contour>
      <point x="370" y="0" type="line"/>
      <point x="530" y="0" type="line"/>
      <point x="530" y="21" type="line" smooth="yes"/>
      <point x="530" y="176"/>
      <point x="476" y="243"/>
      <point x="328" y="284" type="curve"/>
      <point x="220" y="199" type="line"/>
      <point x="328" y="171"/>
      <point x="370" y="128"/>
      <point x="370" y="8" type="curve" smooth="yes"/>
    </contour>
    <contour>
      <point x="199" y="616" type="line"/>
      <point x="359" y="616" type="line"/>
      <point x="359" y="760" type="line"/>
      <point x="199" y="760" type="line"/>
    </contour>
  </outline>
</glyph>
<glyph name="phu.eth" format="2">
  <advance width="695"/>
  <unicode hex="1331"/>
  <note>
uni1331
</note>
  <anchor x="357" y="760" name="top"/>
  <outline>
    <contour>
      <point x="426" y="129" type="line"/>
      <point x="558" y="129" type="line"/>
      <point x="558" y="235" type="line"/>
      <point x="426" y="235" type="line"/>
    </contour>
    <component base="pha.eth"/>
    <component base="rightsingleflag" xOffset="485" yOffset="-179"/>
  </outline>
</glyph>
<glyph name="phaa.eth" format="2">
  <advance width="529"/>
  <unicode hex="1333"/>
  <note>
uni1333
</note>
  <anchor x="264" y="760" name="top"/>
  <outline>
    <contour>
      <point x="20" y="91" type="curve"/>
      <point x="185" y="91" type="line"/>
      <point x="199" y="140"/>
      <point x="231" y="183"/>
      <point x="298" y="237" type="curve" smooth="yes"/>
      <point x="406" y="323"/>
      <point x="465" y="372"/>
      <point x="465" y="475" type="curve" smooth="yes"/>
      <point x="465" y="589"/>
      <point x="392" y="656"/>
      <point x="270" y="656" type="curve" smooth="yes"/>
      <point x="147" y="656"/>
      <point x="74" y="587"/>
      <point x="74" y="470" type="curve" smooth="yes"/>
      <point x="74" y="390"/>
      <point x="108" y="332"/>
      <point x="183" y="305" type="curve"/>
      <point x="294" y="380" type="line"/>
      <point x="247" y="398"/>
      <point x="226" y="427"/>
      <point x="226" y="471" type="curve" smooth="yes"/>
      <point x="226" y="505"/>
      <point x="239" y="531"/>
      <point x="268" y="531" type="curve" smooth="yes"/>
      <point x="297" y="531"/>
      <point x="311" y="506"/>
      <point x="311" y="470" type="curve" smooth="yes"/>
      <point x="311" y="411"/>
      <point x="273" y="383"/>
      <point x="217" y="344" type="curve" smooth="yes"/>
      <point x="96" y="259"/>
      <point x="41" y="196"/>
    </contour>
    <contour>
      <point x="349" y="0" type="line"/>
      <point x="509" y="0" type="line"/>
      <point x="509" y="21" type="line" smooth="yes"/>
      <point x="509" y="176"/>
      <point x="455" y="243"/>
      <point x="307" y="284" type="curve"/>
      <point x="199" y="199" type="line"/>
      <point x="307" y="171"/>
      <point x="349" y="128"/>
      <point x="349" y="8" type="curve" smooth="yes"/>
    </contour>
    <contour>
      <point x="187" y="616" type="line"/>
      <point x="347" y="616" type="line"/>
      <point x="347" y="760" type="line"/>
      <point x="187" y="760" type="line"/>
    </contour>
  </outline>
</glyph>
<glyph name="phee.eth" format="2">
  <advance width="700"/>
  <unicode hex="1334"/>
  <note>
uni1334
</note>
  <anchor x="354" y="760" name="top"/>
  <outline>
    <contour>
      <point x="20" y="0" type="curve"/>
      <point x="185" y="0" type="line"/>
      <point x="185" y="96"/>
      <point x="203" y="153"/>
      <point x="308" y="237" type="curve" smooth="yes"/>
      <point x="418" y="325"/>
      <point x="475" y="373"/>
      <point x="475" y="474" type="curve" smooth="yes"/>
      <point x="475" y="589"/>
      <point x="402" y="656"/>
      <point x="280" y="656" type="curve" smooth="yes"/>
      <point x="157" y="656"/>
      <point x="84" y="587"/>
      <point x="84" y="470" type="curve" smooth="yes"/>
      <point x="84" y="390"/>
      <point x="118" y="332"/>
      <point x="193" y="305" type="curve"/>
      <point x="304" y="380" type="line"/>
      <point x="257" y="398"/>
      <point x="236" y="427"/>
      <point x="236" y="471" type="curve" smooth="yes"/>
      <point x="236" y="505"/>
      <point x="249" y="531"/>
      <point x="278" y="531" type="curve" smooth="yes"/>
      <point x="307" y="531"/>
      <point x="321" y="506"/>
      <point x="321" y="470" type="curve" smooth="yes"/>
      <point x="321" y="411"/>
      <point x="284" y="384"/>
      <point x="227" y="344" type="curve" smooth="yes"/>
      <point x="73" y="236"/>
      <point x="27" y="165"/>
    </contour>
    <contour>
      <point x="530" y="-18" type="curve" smooth="yes"/>
      <point x="631" y="-18"/>
      <point x="688" y="50"/>
      <point x="688" y="138" type="curve" smooth="yes"/>
      <point x="688" y="233"/>
      <point x="623" y="290"/>
      <point x="538" y="290" type="curve" smooth="yes"/>
      <point x="499" y="290"/>
      <point x="471" y="278"/>
      <point x="446" y="251" type="curve"/>
      <point x="419" y="302"/>
      <point x="358" y="337"/>
      <point x="324" y="349" type="curve"/>
      <point x="215" y="262" type="line"/>
      <point x="292" y="225"/>
      <point x="309" y="204"/>
      <point x="353" y="120" type="curve" smooth="yes"/>
      <point x="388" y="52"/>
      <point x="427" y="-18"/>
    </contour>
    <contour>
      <point x="532" y="83" type="curve" smooth="yes"/>
      <point x="505" y="83"/>
      <point x="492" y="110"/>
      <point x="492" y="137" type="curve" smooth="yes"/>
      <point x="492" y="163"/>
      <point x="505" y="188"/>
      <point x="532" y="188" type="curve" smooth="yes"/>
      <point x="560" y="188"/>
      <point x="572" y="162"/>
      <point x="572" y="137" type="curve" smooth="yes"/>
      <point x="572" y="110"/>
      <point x="559" y="83"/>
    </contour>
    <contour>
      <point x="199" y="616" type="line"/>
      <point x="359" y="616" type="line"/>
      <point x="359" y="760" type="line"/>
      <point x="199" y="760" type="line"/>
    </contour>
  </outline>
</glyph>
<glyph name="pho.eth" format="2">
  <advance width="545"/>
  <unicode hex="1336"/>
  <note>
uni1336
</note>
  <anchor x="272" y="760" name="top"/>
  <outline>
    <contour>
      <point x="20" y="0" type="curve"/>
      <point x="185" y="0" type="line"/>
      <point x="185" y="96"/>
      <point x="203" y="153"/>
      <point x="308" y="237" type="curve" smooth="yes"/>
      <point x="416" y="323"/>
      <point x="475" y="372"/>
      <point x="475" y="475" type="curve" smooth="yes"/>
      <point x="475" y="589"/>
      <point x="402" y="656"/>
      <point x="280" y="656" type="curve" smooth="yes"/>
      <point x="157" y="656"/>
      <point x="84" y="587"/>
      <point x="84" y="470" type="curve" smooth="yes"/>
      <point x="84" y="390"/>
      <point x="118" y="332"/>
      <point x="193" y="305" type="curve"/>
      <point x="304" y="380" type="line"/>
      <point x="257" y="398"/>
      <point x="236" y="427"/>
      <point x="236" y="471" type="curve" smooth="yes"/>
      <point x="236" y="505"/>
      <point x="249" y="531"/>
      <point x="278" y="531" type="curve" smooth="yes"/>
      <point x="307" y="531"/>
      <point x="321" y="506"/>
      <point x="321" y="470" type="curve" smooth="yes"/>
      <point x="321" y="411"/>
      <point x="283" y="383"/>
      <point x="227" y="344" type="curve" smooth="yes"/>
      <point x="74" y="237"/>
      <point x="27" y="165"/>
    </contour>
    <contour>
      <point x="360" y="95" type="curve"/>
      <point x="525" y="95" type="line"/>
      <point x="508" y="199"/>
      <point x="450" y="250"/>
      <point x="328" y="284" type="curve"/>
      <point x="220" y="199" type="line"/>
      <point x="298" y="179"/>
      <point x="342" y="154"/>
    </contour>
    <contour>
      <point x="199" y="616" type="line"/>
      <point x="359" y="616" type="line"/>
      <point x="359" y="760" type="line"/>
      <point x="199" y="760" type="line"/>
    </contour>
  </outline>
</glyph>
<glyph name="tsaa.eth" format="2">
  <advance width="569"/>
  <unicode hex="133B"/>
  <note>
uni133B
</note>
  <anchor x="284" y="724" name="top"/>
  <outline>
    <contour>
      <point x="20" y="107" type="curve"/>
      <point x="181" y="107" type="line"/>
      <point x="190" y="178"/>
      <point x="220" y="238"/>
      <point x="312" y="305" type="curve" smooth="yes"/>
      <point x="418" y="394"/>
      <point x="479" y="440"/>
      <point x="479" y="543" type="curve" smooth="yes"/>
      <point x="479" y="657"/>
      <point x="406" y="724"/>
      <point x="284" y="724" type="curve" smooth="yes"/>
      <point x="161" y="724"/>
      <point x="88" y="655"/>
      <point x="88" y="538" type="curve" smooth="yes"/>
      <point x="88" y="458"/>
      <point x="122" y="400"/>
      <point x="197" y="373" type="curve"/>
      <point x="308" y="448" type="line"/>
      <point x="261" y="466"/>
      <point x="240" y="495"/>
      <point x="240" y="539" type="curve" smooth="yes"/>
      <point x="240" y="573"/>
      <point x="253" y="599"/>
      <point x="282" y="599" type="curve" smooth="yes"/>
      <point x="311" y="599"/>
      <point x="325" y="574"/>
      <point x="325" y="538" type="curve" smooth="yes"/>
      <point x="325" y="479"/>
      <point x="289" y="455"/>
      <point x="231" y="412" type="curve" smooth="yes"/>
      <point x="93" y="310"/>
      <point x="40" y="236"/>
    </contour>
    <contour>
      <point x="384" y="0" type="line"/>
      <point x="549" y="0" type="line"/>
      <point x="549" y="14" type="line" smooth="yes"/>
      <point x="549" y="204"/>
      <point x="466" y="301"/>
      <point x="332" y="351" type="curve"/>
      <point x="224" y="266" type="line"/>
      <point x="316" y="229"/>
      <point x="384" y="166"/>
      <point x="384" y="11" type="curve" smooth="yes"/>
    </contour>
  </outline>
</glyph>
<glyph name="tsee.eth" format="2">
  <advance width="700"/>
  <unicode hex="133C"/>
  <note>
uni133C
</note>
  <anchor x="354" y="724" name="top"/>
  <outline>
    <contour>
      <point x="20" y="0" type="curve"/>
      <point x="185" y="0" type="line"/>
      <point x="185" y="124"/>
      <point x="187" y="208"/>
      <point x="321" y="305" type="curve" smooth="yes"/>
      <point x="427" y="394"/>
      <point x="488" y="440"/>
      <point x="488" y="543" type="curve" smooth="yes"/>
      <point x="488" y="657"/>
      <point x="415" y="724"/>
      <point x="293" y="724" type="curve" smooth="yes"/>
      <point x="170" y="724"/>
      <point x="97" y="655"/>
      <point x="97" y="538" type="curve" smooth="yes"/>
      <point x="97" y="458"/>
      <point x="131" y="400"/>
      <point x="206" y="373" type="curve"/>
      <point x="317" y="448" type="line"/>
      <point x="270" y="466"/>
      <point x="249" y="495"/>
      <point x="249" y="539" type="curve" smooth="yes"/>
      <point x="249" y="573"/>
      <point x="262" y="599"/>
      <point x="291" y="599" type="curve" smooth="yes"/>
      <point x="320" y="599"/>
      <point x="334" y="574"/>
      <point x="334" y="538" type="curve" smooth="yes"/>
      <point x="334" y="479"/>
      <point x="298" y="455"/>
      <point x="240" y="412" type="curve" smooth="yes"/>
      <point x="68" y="285"/>
      <point x="28" y="199"/>
    </contour>
    <contour>
      <point x="532" y="-18" type="curve" smooth="yes"/>
      <point x="631" y="-18"/>
      <point x="688" y="50"/>
      <point x="688" y="141" type="curve" smooth="yes"/>
      <point x="688" y="231"/>
      <point x="627" y="290"/>
      <point x="541" y="290" type="curve" smooth="yes"/>
      <point x="486" y="290"/>
      <point x="451" y="266"/>
      <point x="434" y="244" type="curve"/>
      <point x="411" y="298"/>
      <point x="358" y="337"/>
      <point x="324" y="349" type="curve"/>
      <point x="217" y="267" type="line"/>
      <point x="271" y="253"/>
      <point x="312" y="217"/>
      <point x="352" y="122" type="curve" smooth="yes"/>
      <point x="391" y="29"/>
      <point x="441" y="-18"/>
    </contour>
    <contour>
      <point x="533" y="83" type="curve" smooth="yes"/>
      <point x="506" y="83"/>
      <point x="493" y="110"/>
      <point x="493" y="137" type="curve" smooth="yes"/>
      <point x="493" y="162"/>
      <point x="506" y="188"/>
      <point x="533" y="188" type="curve" smooth="yes"/>
      <point x="561" y="188"/>
      <point x="573" y="162"/>
      <point x="573" y="137" type="curve" smooth="yes"/>
      <point x="573" y="110"/>
      <point x="560" y="83"/>
    </contour>
  </outline>
</glyph>
<glyph name="tso.eth" format="2">
  <advance width="562"/>
  <unicode hex="133E"/>
  <note>
uni133E
</note>
  <anchor x="281" y="724" name="top"/>
  <outline>
    <contour>
      <point x="20" y="0" type="curve"/>
      <point x="185" y="0" type="line"/>
      <point x="185" y="124"/>
      <point x="187" y="208"/>
      <point x="321" y="305" type="curve" smooth="yes"/>
      <point x="427" y="394"/>
      <point x="488" y="440"/>
      <point x="488" y="543" type="curve" smooth="yes"/>
      <point x="488" y="657"/>
      <point x="415" y="724"/>
      <point x="293" y="724" type="curve" smooth="yes"/>
      <point x="170" y="724"/>
      <point x="97" y="655"/>
      <point x="97" y="538" type="curve" smooth="yes"/>
      <point x="97" y="458"/>
      <point x="131" y="400"/>
      <point x="206" y="373" type="curve"/>
      <point x="317" y="448" type="line"/>
      <point x="270" y="466"/>
      <point x="249" y="495"/>
      <point x="249" y="539" type="curve" smooth="yes"/>
      <point x="249" y="573"/>
      <point x="262" y="599"/>
      <point x="291" y="599" type="curve" smooth="yes"/>
      <point x="320" y="599"/>
      <point x="334" y="574"/>
      <point x="334" y="538" type="curve" smooth="yes"/>
      <point x="334" y="479"/>
      <point x="298" y="455"/>
      <point x="240" y="412" type="curve" smooth="yes"/>
      <point x="68" y="285"/>
      <point x="28" y="199"/>
    </contour>
    <contour>
      <point x="373" y="108" type="curve"/>
      <point x="542" y="108" type="line"/>
      <point x="512" y="236"/>
      <point x="450" y="310"/>
      <point x="341" y="351" type="curve"/>
      <point x="233" y="266" type="line"/>
      <point x="303" y="238"/>
      <point x="348" y="196"/>
    </contour>
  </outline>
</glyph>
<glyph name="tza.eth" format="2">
  <advance width="479"/>
  <unicode hex="1340"/>
  <note>
uni1340
</note>
  <anchor x="239" y="724" name="top"/>
  <outline>
    <contour>
      <point x="123" y="304" type="line"/>
      <point x="354" y="304" type="line"/>
      <point x="354" y="423" type="line"/>
      <point x="123" y="423" type="line"/>
    </contour>
    <component base="aPhr.eth"/>
  </outline>
</glyph>
<glyph name="tzi.eth" format="2">
  <advance width="493"/>
  <unicode hex="1342"/>
  <note>
uni1342
</note>
  <anchor x="254" y="725" name="top"/>
  <outline>
    <contour>
      <point x="233" y="0" type="line"/>
      <point x="367" y="0" type="line"/>
      <point x="367" y="106" type="line"/>
      <point x="233" y="106" type="line"/>
    </contour>
    <component base="tzaa.eth"/>
    <component base="rightdoubleflag" xOffset="285"/>
  </outline>
</glyph>
<glyph name="tzaa.eth" format="2">
  <advance width="453"/>
  <unicode hex="1343"/>
  <note>
uni1343
</note>
  <anchor x="221" y="725" name="top"/>
  <outline>
    <contour>
      <point x="93" y="0" type="line"/>
      <point x="258" y="0" type="line"/>
      <point x="266" y="85" type="line" smooth="yes"/>
      <point x="276" y="190"/>
      <point x="291" y="227"/>
      <point x="348" y="300" type="curve" smooth="yes"/>
      <point x="383" y="344"/>
      <point x="428" y="404"/>
      <point x="428" y="510" type="curve" smooth="yes"/>
      <point x="428" y="649"/>
      <point x="358" y="725"/>
      <point x="227" y="725" type="curve" smooth="yes"/>
      <point x="91" y="725"/>
      <point x="15" y="633"/>
      <point x="15" y="504" type="curve" smooth="yes"/>
      <point x="15" y="389"/>
      <point x="62" y="311"/>
      <point x="148" y="269" type="curve"/>
      <point x="127" y="233"/>
      <point x="112" y="176"/>
      <point x="102" y="83" type="curve" smooth="yes"/>
    </contour>
    <contour>
      <point x="228" y="381" type="curve"/>
      <point x="192" y="393"/>
      <point x="174" y="424"/>
      <point x="173" y="456" type="curve"/>
      <point x="267" y="456" type="line"/>
      <point x="265" y="427"/>
      <point x="240" y="400"/>
    </contour>
    <contour>
      <point x="171" y="546" type="line"/>
      <point x="172" y="585"/>
      <point x="191" y="609"/>
      <point x="220" y="609" type="curve" smooth="yes"/>
      <point x="249" y="609"/>
      <point x="268" y="587"/>
      <point x="269" y="546" type="curve"/>
    </contour>
  </outline>
</glyph>
<glyph name="tzee.eth" format="2">
  <advance width="505"/>
  <unicode hex="1344"/>
  <note>
uni1344
</note>
  <anchor x="256" y="725" name="top"/>
  <outline>
    <contour>
      <point x="119" y="0" type="line"/>
      <point x="319" y="0" type="line" smooth="yes"/>
      <point x="430" y="0"/>
      <point x="498" y="68"/>
      <point x="498" y="169" type="curve" smooth="yes"/>
      <point x="498" y="271"/>
      <point x="442" y="326"/>
      <point x="309" y="326" type="curve" smooth="yes"/>
      <point x="202" y="326" type="line"/>
    </contour>
    <contour>
      <point x="260" y="107" type="line"/>
      <point x="279" y="220" type="line"/>
      <point x="301" y="220" type="line" smooth="yes"/>
      <point x="333" y="220"/>
      <point x="351" y="199"/>
      <point x="351" y="166" type="curve" smooth="yes"/>
      <point x="351" y="130"/>
      <point x="337" y="107"/>
      <point x="301" y="107" type="curve" smooth="yes"/>
    </contour>
    <component base="tzaa.eth"/>
  </outline>
</glyph>
<glyph name="tzo.eth" format="2">
  <advance width="470"/>
  <unicode hex="1346"/>
  <note>
uni1346
</note>
  <anchor x="235" y="723" name="top"/>
  <outline>
    <contour>
      <point x="125" y="473" type="line"/>
      <point x="383" y="473" type="line"/>
      <point x="383" y="552" type="line"/>
      <point x="125" y="552" type="line"/>
    </contour>
    <component base="oPhr.eth"/>
  </outline>
</glyph>
<glyph name="fa.eth" format="2">
  <advance width="589"/>
  <unicode hex="1348"/>
  <note>
uni1348
</note>
  <anchor x="307" y="723" name="top"/>
  <outline>
    <contour>
      <point x="227" y="0" type="curve" smooth="yes"/>
      <point x="432" y="0" type="line"/>
      <point x="486" y="106" type="line"/>
      <point x="401" y="106" type="line"/>
      <point x="414" y="126"/>
      <point x="434" y="168"/>
      <point x="434" y="218" type="curve" smooth="yes"/>
      <point x="434" y="283"/>
      <point x="400" y="334"/>
      <point x="345" y="362" type="curve"/>
      <point x="375" y="387"/>
      <point x="400" y="420"/>
      <point x="418" y="454" type="curve" smooth="yes"/>
      <point x="457" y="527"/>
      <point x="472" y="619"/>
      <point x="473" y="723" type="curve"/>
      <point x="308" y="723" type="line"/>
      <point x="305" y="629"/>
      <point x="292" y="561"/>
      <point x="271" y="515" type="curve" smooth="yes"/>
      <point x="251" y="470"/>
      <point x="218" y="446"/>
      <point x="174" y="416" type="curve" smooth="yes"/>
      <point x="97" y="364"/>
      <point x="26" y="315"/>
      <point x="26" y="193" type="curve" smooth="yes"/>
      <point x="26" y="69"/>
      <point x="99" y="0"/>
    </contour>
    <contour>
      <point x="232" y="116" type="curve" smooth="yes"/>
      <point x="202" y="116"/>
      <point x="184" y="141"/>
      <point x="184" y="195" type="curve" smooth="yes"/>
      <point x="184" y="243"/>
      <point x="198" y="278"/>
      <point x="235" y="297" type="curve"/>
      <point x="263" y="281"/>
      <point x="280" y="246"/>
      <point x="280" y="194" type="curve" smooth="yes"/>
      <point x="280" y="146"/>
      <point x="265" y="116"/>
    </contour>
    <component base="rightdoubleflag" xOffset="381"/>
  </outline>
</glyph>
<glyph name="fu.eth" format="2">
  <advance width="573"/>
  <unicode hex="1349"/>
  <note>
uni1349
</note>
  <anchor x="299" y="760" name="top"/>
  <outline>
    <contour>
      <point x="65" y="0" type="curve"/>
      <point x="230" y="0" type="line"/>
      <point x="234" y="71"/>
      <point x="276" y="147"/>
      <point x="330" y="196" type="curve" smooth="yes"/>
      <point x="394" y="254"/>
      <point x="417" y="313"/>
      <point x="417" y="387" type="curve" smooth="yes"/>
      <point x="417" y="454"/>
      <point x="396" y="509"/>
      <point x="354" y="539" type="curve"/>
      <point x="425" y="583"/>
      <point x="467" y="650"/>
      <point x="467" y="760" type="curve"/>
      <point x="302" y="760" type="line"/>
      <point x="302" y="670"/>
      <point x="264" y="619"/>
      <point x="153" y="573" type="curve" smooth="yes"/>
      <point x="76" y="541"/>
      <point x="26" y="484"/>
      <point x="26" y="376" type="curve" smooth="yes"/>
      <point x="26" y="288"/>
      <point x="66" y="226"/>
      <point x="148" y="203" type="curve"/>
      <point x="103" y="161"/>
      <point x="67" y="78"/>
    </contour>
    <contour>
      <point x="224" y="314" type="curve" smooth="yes"/>
      <point x="195" y="314"/>
      <point x="183" y="337"/>
      <point x="183" y="386" type="curve" smooth="yes"/>
      <point x="183" y="429"/>
      <point x="196" y="454"/>
      <point x="221" y="454" type="curve" smooth="yes"/>
      <point x="247" y="454"/>
      <point x="260" y="430"/>
      <point x="260" y="386" type="curve" smooth="yes"/>
      <point x="260" y="336"/>
      <point x="248" y="314"/>
    </contour>
    <contour>
      <point x="310" y="193" type="line"/>
      <point x="415" y="193" type="line"/>
      <point x="415" y="299" type="line"/>
      <point x="310" y="299" type="line"/>
    </contour>
    <component base="rightdoubleflag" xOffset="365" yOffset="193"/>
  </outline>
</glyph>
<glyph name="fi.eth" format="2">
  <advance width="656"/>
  <unicode hex="134A"/>
  <note>
uni134A
</note>
  <anchor x="341" y="724" name="top"/>
  <outline>
    <contour>
      <point x="233" y="0" type="line"/>
      <point x="438" y="0" type="line" smooth="yes"/>
      <point x="594" y="0"/>
      <point x="656" y="82"/>
      <point x="656" y="239" type="curve" smooth="yes"/>
      <point x="656" y="293" type="line"/>
      <point x="496" y="293" type="line"/>
      <point x="496" y="235" type="line" smooth="yes"/>
      <point x="496" y="158"/>
      <point x="481" y="124"/>
      <point x="443" y="124" type="curve" smooth="yes"/>
      <point x="377" y="124" type="line"/>
    </contour>
    <contour>
      <point x="476" y="724" type="curve"/>
      <point x="311" y="724" type="line"/>
      <point x="311" y="593"/>
      <point x="287" y="532"/>
      <point x="187" y="460" type="curve" smooth="yes"/>
      <point x="70" y="376"/>
      <point x="26" y="318"/>
      <point x="26" y="199" type="curve" smooth="yes"/>
      <point x="26" y="79"/>
      <point x="101" y="1"/>
      <point x="234" y="1" type="curve" smooth="yes"/>
      <point x="370" y="1"/>
      <point x="449" y="77"/>
      <point x="449" y="206" type="curve" smooth="yes"/>
      <point x="449" y="294"/>
      <point x="417" y="360"/>
      <point x="363" y="400" type="curve"/>
      <point x="434" y="474"/>
      <point x="476" y="553"/>
    </contour>
    <contour>
      <point x="250" y="328" type="curve"/>
      <point x="273" y="308"/>
      <point x="290" y="267"/>
      <point x="290" y="206" type="curve" smooth="yes"/>
      <point x="290" y="145"/>
      <point x="269" y="116"/>
      <point x="233" y="116" type="curve" smooth="yes"/>
      <point x="197" y="116"/>
      <point x="179" y="144"/>
      <point x="179" y="195" type="curve" smooth="yes"/>
      <point x="179" y="251"/>
      <point x="199" y="296"/>
    </contour>
  </outline>
</glyph>
<glyph name="faa.eth" format="2">
  <advance width="609"/>
  <unicode hex="134B"/>
  <note>
uni134B
</note>
  <anchor x="317" y="761" name="top"/>
  <outline>
    <contour>
      <point x="261" y="0" type="line"/>
      <point x="421" y="0" type="line"/>
      <point x="421" y="195" type="line"/>
      <point x="507" y="195" type="line"/>
      <point x="507" y="301" type="line"/>
      <point x="421" y="301" type="line"/>
      <point x="421" y="363" type="line" smooth="yes"/>
      <point x="421" y="443"/>
      <point x="407" y="495"/>
      <point x="359" y="528" type="curve"/>
      <point x="429" y="569"/>
      <point x="459" y="650"/>
      <point x="459" y="761" type="curve"/>
      <point x="299" y="761" type="line"/>
      <point x="298" y="658"/>
      <point x="259" y="618"/>
      <point x="161" y="571" type="curve" smooth="yes"/>
      <point x="73" y="529"/>
      <point x="26" y="487"/>
      <point x="26" y="373" type="curve" smooth="yes"/>
      <point x="26" y="240"/>
      <point x="113" y="185"/>
      <point x="230" y="185" type="curve" smooth="yes"/>
      <point x="261" y="185" type="line"/>
    </contour>
    <contour>
      <point x="243" y="300" type="line" smooth="yes"/>
      <point x="206" y="300"/>
      <point x="190" y="331"/>
      <point x="190" y="382" type="curve" smooth="yes"/>
      <point x="190" y="434"/>
      <point x="203" y="457"/>
      <point x="227" y="457" type="curve" smooth="yes"/>
      <point x="250" y="457"/>
      <point x="261" y="431"/>
      <point x="261" y="376" type="curve" smooth="yes"/>
      <point x="261" y="300" type="line"/>
    </contour>
    <component base="rightsingleflag" xOffset="399" yOffset="-113"/>
  </outline>
</glyph>
<glyph name="fee.eth" format="2">
  <advance width="805"/>
  <unicode hex="134C"/>
  <note>
uni134C
</note>
  <anchor x="409" y="724" name="top"/>
  <outline>
    <contour>
      <point x="332" y="49" type="line"/>
      <point x="611" y="49" type="line"/>
      <point x="580" y="143" type="line"/>
      <point x="368" y="143" type="line"/>
    </contour>
    <component base="ballsmall" xOffset="484" yOffset="-159"/>
    <component base="oPhr.eth" xScale="-1" yScale="-1" xOffset="486" yOffset="724"/>
  </outline>
</glyph>
